<svg width="166" height="54" viewBox="0 0 166 54" fill="none" xmlns="http://www.w3.org/2000/svg">
<g filter="url(#filter0_d)">
<path d="M20.16 22.02L16.785 13.275C16.685 13.015 16.58 12.715 16.47 12.375C16.36 12.025 16.255 11.655 16.155 11.265C15.945 12.075 15.73 12.75 15.51 13.29L12.135 22.02H20.16ZM26.22 30H23.97C23.71 30 23.5 29.935 23.34 29.805C23.18 29.675 23.06 29.51 22.98 29.31L20.97 24.12H11.325L9.315 29.31C9.255 29.49 9.14 29.65 8.97 29.79C8.8 29.93 8.59 30 8.34 30H6.09L14.685 8.505H17.625L26.22 30ZM36.5927 27.69C37.4227 27.69 38.1377 27.595 38.7377 27.405C39.3377 27.215 39.8277 26.95 40.2077 26.61C40.5977 26.26 40.8827 25.85 41.0627 25.38C41.2427 24.9 41.3327 24.375 41.3327 23.805C41.3327 22.695 40.9377 21.82 40.1477 21.18C39.3577 20.53 38.1727 20.205 36.5927 20.205H31.9427V27.69H36.5927ZM31.9427 10.8V18.135H35.7827C36.6027 18.135 37.3127 18.045 37.9127 17.865C38.5227 17.685 39.0227 17.435 39.4127 17.115C39.8127 16.795 40.1077 16.41 40.2977 15.96C40.4877 15.5 40.5827 15 40.5827 14.46C40.5827 13.19 40.2027 12.265 39.4427 11.685C38.6827 11.095 37.5027 10.8 35.9027 10.8H31.9427ZM35.9027 8.505C37.2227 8.505 38.3577 8.635 39.3077 8.895C40.2677 9.155 41.0527 9.525 41.6627 10.005C42.2827 10.485 42.7377 11.075 43.0277 11.775C43.3177 12.465 43.4627 13.245 43.4627 14.115C43.4627 14.645 43.3777 15.155 43.2077 15.645C43.0477 16.125 42.8027 16.575 42.4727 16.995C42.1427 17.415 41.7227 17.795 41.2127 18.135C40.7127 18.465 40.1227 18.735 39.4427 18.945C41.0227 19.245 42.2077 19.81 42.9977 20.64C43.7977 21.46 44.1977 22.54 44.1977 23.88C44.1977 24.79 44.0277 25.62 43.6877 26.37C43.3577 27.12 42.8677 27.765 42.2177 28.305C41.5777 28.845 40.7877 29.265 39.8477 29.565C38.9077 29.855 37.8377 30 36.6377 30H29.0477V8.505H35.9027ZM68.3023 19.26C68.3023 20.87 68.0473 22.35 67.5373 23.7C67.0273 25.04 66.3073 26.195 65.3773 27.165C64.4473 28.135 63.3273 28.89 62.0173 29.43C60.7173 29.96 59.2773 30.225 57.6973 30.225C56.1173 30.225 54.6773 29.96 53.3773 29.43C52.0773 28.89 50.9623 28.135 50.0323 27.165C49.1023 26.195 48.3823 25.04 47.8723 23.7C47.3623 22.35 47.1073 20.87 47.1073 19.26C47.1073 17.65 47.3623 16.175 47.8723 14.835C48.3823 13.485 49.1023 12.325 50.0323 11.355C50.9623 10.375 52.0773 9.615 53.3773 9.075C54.6773 8.535 56.1173 8.265 57.6973 8.265C59.2773 8.265 60.7173 8.535 62.0173 9.075C63.3273 9.615 64.4473 10.375 65.3773 11.355C66.3073 12.325 67.0273 13.485 67.5373 14.835C68.0473 16.175 68.3023 17.65 68.3023 19.26ZM65.3173 19.26C65.3173 17.94 65.1373 16.755 64.7773 15.705C64.4173 14.655 63.9073 13.77 63.2473 13.05C62.5873 12.32 61.7873 11.76 60.8473 11.37C59.9073 10.98 58.8573 10.785 57.6973 10.785C56.5473 10.785 55.5023 10.98 54.5623 11.37C53.6223 11.76 52.8173 12.32 52.1473 13.05C51.4873 13.77 50.9773 14.655 50.6173 15.705C50.2573 16.755 50.0773 17.94 50.0773 19.26C50.0773 20.58 50.2573 21.765 50.6173 22.815C50.9773 23.855 51.4873 24.74 52.1473 25.47C52.8173 26.19 53.6223 26.745 54.5623 27.135C55.5023 27.515 56.5473 27.705 57.6973 27.705C58.8573 27.705 59.9073 27.515 60.8473 27.135C61.7873 26.745 62.5873 26.19 63.2473 25.47C63.9073 24.74 64.4173 23.855 64.7773 22.815C65.1373 21.765 65.3173 20.58 65.3173 19.26ZM80.7607 27.69C81.6507 27.69 82.4457 27.54 83.1457 27.24C83.8457 26.94 84.4357 26.52 84.9157 25.98C85.4057 25.44 85.7757 24.795 86.0257 24.045C86.2857 23.295 86.4157 22.47 86.4157 21.57V8.505H89.3107V21.57C89.3107 22.81 89.1107 23.96 88.7107 25.02C88.3207 26.08 87.7557 27 87.0157 27.78C86.2857 28.55 85.3907 29.155 84.3307 29.595C83.2707 30.035 82.0807 30.255 80.7607 30.255C79.4407 30.255 78.2507 30.035 77.1907 29.595C76.1307 29.155 75.2307 28.55 74.4907 27.78C73.7507 27 73.1807 26.08 72.7807 25.02C72.3907 23.96 72.1957 22.81 72.1957 21.57V8.505H75.0907V21.555C75.0907 22.455 75.2157 23.28 75.4657 24.03C75.7257 24.78 76.0957 25.425 76.5757 25.965C77.0657 26.505 77.6607 26.93 78.3607 27.24C79.0707 27.54 79.8707 27.69 80.7607 27.69ZM109.061 10.95H102.101V30H99.2063V10.95H92.2313V8.505H109.061V10.95ZM141.383 8.505V30H138.833V14.205C138.833 13.995 138.838 13.77 138.848 13.53C138.868 13.29 138.888 13.045 138.908 12.795L131.528 26.235C131.298 26.685 130.948 26.91 130.478 26.91H130.058C129.588 26.91 129.238 26.685 129.008 26.235L121.478 12.735C121.538 13.265 121.568 13.755 121.568 14.205V30H119.018V8.505H121.163C121.423 8.505 121.623 8.53 121.763 8.58C121.903 8.63 122.038 8.77 122.168 9L129.593 22.23C129.713 22.47 129.828 22.72 129.938 22.98C130.058 23.24 130.168 23.505 130.268 23.775C130.368 23.505 130.473 23.24 130.583 22.98C130.693 22.71 130.813 22.455 130.943 22.215L138.233 9C138.353 8.77 138.483 8.63 138.623 8.58C138.773 8.53 138.978 8.505 139.238 8.505H141.383ZM160.14 27.63L160.125 30H146.88V8.505H160.125V10.875H149.79V18.015H158.16V20.295H149.79V27.63H160.14Z" fill="#58A6FF"/>
<path d="M20.16 22.02V23.02H21.6178L21.0929 21.6599L20.16 22.02ZM16.785 13.275L15.8517 13.634L15.8521 13.6351L16.785 13.275ZM16.47 12.375L15.516 12.6748L15.5186 12.6828L16.47 12.375ZM16.155 11.265L17.1237 11.0166L15.187 11.014L16.155 11.265ZM15.51 13.29L14.5839 12.9127L14.5805 12.921L14.5773 12.9294L15.51 13.29ZM12.135 22.02L11.2023 21.6594L10.6763 23.02H12.135V22.02ZM26.22 30V31H27.6968L27.1485 29.6287L26.22 30ZM23.34 29.805L22.7094 30.5811L22.7094 30.5811L23.34 29.805ZM22.98 29.31L22.0474 29.6712L22.0515 29.6814L22.98 29.31ZM20.97 24.12L21.9025 23.7589L21.6551 23.12H20.97V24.12ZM11.325 24.12V23.12H10.6399L10.3925 23.7589L11.325 24.12ZM9.315 29.31L8.38249 28.9489L8.37387 28.9711L8.36632 28.9938L9.315 29.31ZM8.97 29.79L9.60571 30.5619L9.60571 30.5619L8.97 29.79ZM6.09 30L5.16148 29.6287L4.61316 31H6.09V30ZM14.685 8.505V7.505H14.0079L13.7565 8.13372L14.685 8.505ZM17.625 8.505L18.5535 8.13372L18.3021 7.505H17.625V8.505ZM21.0929 21.6599L17.7179 12.9149L15.8521 13.6351L19.2271 22.3801L21.0929 21.6599ZM17.7183 12.916C17.6264 12.6768 17.5273 12.3945 17.4214 12.0672L15.5186 12.6828C15.6327 13.0355 15.7437 13.3532 15.8517 13.634L17.7183 12.916ZM17.424 12.0752C17.3198 11.7437 17.2197 11.391 17.1237 11.0166L15.1863 11.5134C15.2903 11.919 15.4002 12.3063 15.516 12.6748L17.424 12.0752ZM15.187 11.014C14.9838 11.7978 14.7817 12.4273 14.5839 12.9127L16.4361 13.6673C16.6783 13.0727 16.9062 12.3522 17.123 11.516L15.187 11.014ZM14.5773 12.9294L11.2023 21.6594L13.0677 22.3806L16.4427 13.6506L14.5773 12.9294ZM12.135 23.02H20.16V21.02H12.135V23.02ZM26.22 29H23.97V31H26.22V29ZM23.97 29C23.9225 29 23.9068 28.994 23.9132 28.996C23.9166 28.997 23.9246 28.9999 23.9356 29.0057C23.9467 29.0115 23.9588 29.0193 23.9706 29.0289L22.7094 30.5811C23.0901 30.8904 23.5417 31 23.97 31V29ZM23.9706 29.0289C23.9487 29.0111 23.9282 28.9879 23.9085 28.9386L22.0515 29.6814C22.1918 30.0321 22.4113 30.3389 22.7094 30.5811L23.9706 29.0289ZM23.9125 28.9489L21.9025 23.7589L20.0375 24.4811L22.0475 29.6711L23.9125 28.9489ZM20.97 23.12H11.325V25.12H20.97V23.12ZM10.3925 23.7589L8.38249 28.9489L10.2475 29.6711L12.2575 24.4811L10.3925 23.7589ZM8.36632 28.9938C8.36764 28.9898 8.36917 28.9863 8.37055 28.9836C8.37192 28.9809 8.37258 28.9802 8.37173 28.9814C8.37014 28.9836 8.36035 28.9966 8.33429 29.0181L9.60571 30.5619C9.89703 30.322 10.1352 30.0116 10.2637 29.6262L8.36632 28.9938ZM8.33429 29.0181C8.3385 29.0146 8.3443 29.0105 8.35131 29.0066C8.35832 29.0028 8.36447 29.0003 8.36877 28.9988C8.37296 28.9974 8.37361 28.9976 8.36956 28.9983C8.36538 28.9989 8.35584 29 8.34 29V31C8.78875 31 9.23262 30.8692 9.60571 30.5619L8.33429 29.0181ZM8.34 29H6.09V31H8.34V29ZM7.01852 30.3713L15.6135 8.87628L13.7565 8.13372L5.16148 29.6287L7.01852 30.3713ZM14.685 9.505H17.625V7.505H14.685V9.505ZM16.6965 8.87628L25.2915 30.3713L27.1485 29.6287L18.5535 8.13372L16.6965 8.87628ZM40.2077 26.61L40.8745 27.3552L40.8756 27.3542L40.2077 26.61ZM41.0627 25.38L41.9966 25.7377L41.9991 25.7311L41.0627 25.38ZM40.1477 21.18L39.5124 21.9522L39.5183 21.957L40.1477 21.18ZM31.9427 20.205V19.205H30.9427V20.205H31.9427ZM31.9427 27.69H30.9427V28.69H31.9427V27.69ZM31.9427 10.8V9.8H30.9427V10.8H31.9427ZM31.9427 18.135H30.9427V19.135H31.9427V18.135ZM37.9127 17.865L37.6297 16.9059L37.6254 16.9072L37.9127 17.865ZM39.4127 17.115L38.788 16.3341L38.7784 16.3419L39.4127 17.115ZM40.2977 15.96L41.219 16.349L41.222 16.3418L40.2977 15.96ZM39.4427 11.685L38.8295 12.4749L38.8361 12.48L39.4427 11.685ZM39.3077 8.895L39.0438 9.85953L39.0463 9.86023L39.3077 8.895ZM41.6627 10.005L41.0443 10.7909L41.0506 10.7957L41.6627 10.005ZM43.0277 11.775L42.1039 12.1577L42.1058 12.1625L43.0277 11.775ZM43.2077 15.645L42.2629 15.3172L42.2591 15.3288L43.2077 15.645ZM42.4727 16.995L43.2591 17.6128L42.4727 16.995ZM41.2127 18.135L41.7636 18.9696L41.7674 18.9671L41.2127 18.135ZM39.4427 18.945L39.1477 17.9895L39.2562 19.9274L39.4427 18.945ZM42.9977 20.64L42.2733 21.3295L42.282 21.3383L42.9977 20.64ZM43.6877 26.37L42.7769 25.9571L42.7724 25.9673L43.6877 26.37ZM42.2177 28.305L41.5787 27.5358L41.5729 27.5407L42.2177 28.305ZM39.8477 29.565L40.1425 30.5206L40.1518 30.5177L39.8477 29.565ZM29.0477 30H28.0477V31H29.0477V30ZM29.0477 8.505V7.505H28.0477V8.505H29.0477ZM36.5927 28.69C37.4945 28.69 38.3165 28.5873 39.0396 28.3583L38.4358 26.4517C37.9589 26.6027 37.3509 26.69 36.5927 26.69V28.69ZM39.0396 28.3583C39.7438 28.1354 40.3673 27.8091 40.8745 27.3552L39.5409 25.8648C39.2882 26.0909 38.9317 26.2946 38.4358 26.4517L39.0396 28.3583ZM40.8756 27.3542C41.3787 26.9028 41.7575 26.362 41.9966 25.7376L40.1289 25.0224C40.008 25.338 39.8168 25.6172 39.5398 25.8658L40.8756 27.3542ZM41.9991 25.7311C42.2256 25.127 42.3327 24.4815 42.3327 23.805H40.3327C40.3327 24.2685 40.2599 24.673 40.1264 25.0289L41.9991 25.7311ZM42.3327 23.805C42.3327 22.4249 41.8251 21.2519 40.7772 20.403L39.5183 21.957C40.0504 22.3881 40.3327 22.9651 40.3327 23.805H42.3327ZM40.7831 20.4078C39.7394 19.549 38.2846 19.205 36.5927 19.205V21.205C38.0609 21.205 38.9761 21.511 39.5124 21.9522L40.7831 20.4078ZM36.5927 19.205H31.9427V21.205H36.5927V19.205ZM30.9427 20.205V27.69H32.9427V20.205H30.9427ZM31.9427 28.69H36.5927V26.69H31.9427V28.69ZM30.9427 10.8V18.135H32.9427V10.8H30.9427ZM31.9427 19.135H35.7827V17.135H31.9427V19.135ZM35.7827 19.135C36.6718 19.135 37.4832 19.0379 38.2001 18.8228L37.6254 16.9072C37.1423 17.0521 36.5336 17.135 35.7827 17.135V19.135ZM38.1958 18.8241C38.9019 18.6158 39.5304 18.312 40.0471 17.8881L38.7784 16.3419C38.5151 16.558 38.1436 16.7542 37.6297 16.9059L38.1958 18.8241ZM40.0374 17.8959C40.5608 17.4772 40.9611 16.9598 41.219 16.349L39.3765 15.571C39.2544 15.8602 39.0647 16.1128 38.788 16.3341L40.0374 17.8959ZM41.222 16.3418C41.4661 15.7507 41.5827 15.1198 41.5827 14.46H39.5827C39.5827 14.8802 39.5094 15.2493 39.3735 15.5782L41.222 16.3418ZM41.5827 14.46C41.5827 12.989 41.1338 11.7176 40.0494 10.89L38.8361 12.48C39.2717 12.8124 39.5827 13.391 39.5827 14.46H41.5827ZM40.056 10.8951C39.0377 10.1046 37.5901 9.8 35.9027 9.8V11.8C37.4153 11.8 38.3278 12.0854 38.8295 12.4749L40.056 10.8951ZM35.9027 9.8H31.9427V11.8H35.9027V9.8ZM35.9027 9.505C37.1617 9.505 38.2033 9.6295 39.0438 9.85953L39.5717 7.93047C38.5122 7.6405 37.2837 7.505 35.9027 7.505V9.505ZM39.0463 9.86023C39.9115 10.0946 40.5653 10.4139 41.0443 10.7909L42.2811 9.21913C41.5402 8.6361 40.624 8.21545 39.5692 7.92977L39.0463 9.86023ZM41.0506 10.7957C41.5379 11.173 41.8829 11.6243 42.1039 12.1577L43.9516 11.3923C43.5926 10.5257 43.0275 9.79695 42.2749 9.21428L41.0506 10.7957ZM42.1058 12.1625C42.3366 12.7115 42.4627 13.3567 42.4627 14.115H44.4627C44.4627 13.1333 44.2989 12.2185 43.9496 11.3875L42.1058 12.1625ZM42.4627 14.115C42.4627 14.5359 42.3956 14.935 42.263 15.3172L44.1525 15.9728C44.3599 15.375 44.4627 14.7541 44.4627 14.115H42.4627ZM42.2591 15.3288C42.1374 15.6937 41.9493 16.0425 41.6864 16.3772L43.2591 17.6128C43.6561 17.1075 43.9581 16.5563 44.1564 15.9612L42.2591 15.3288ZM41.6864 16.3772C41.4306 16.7027 41.0927 17.0132 40.658 17.3029L41.7674 18.9671C42.3527 18.5768 42.8548 18.1273 43.2591 17.6128L41.6864 16.3772ZM40.6619 17.3004C40.2542 17.5695 39.7536 17.8024 39.1477 17.9895L39.7378 19.9005C40.4919 19.6676 41.1713 19.3605 41.7636 18.9696L40.6619 17.3004ZM39.2562 19.9274C40.7111 20.2037 41.6753 20.7011 42.2734 21.3294L43.7221 19.9506C42.7402 18.9189 41.3343 18.2863 39.6293 17.9626L39.2562 19.9274ZM42.282 21.3383C42.869 21.94 43.1977 22.7534 43.1977 23.88H45.1977C45.1977 22.3266 44.7265 20.98 43.7135 19.9417L42.282 21.3383ZM43.1977 23.88C43.1977 24.6627 43.0522 25.3499 42.777 25.9571L44.5985 26.7829C45.0032 25.8901 45.1977 24.9173 45.1977 23.88H43.1977ZM42.7724 25.9673C42.5069 26.5708 42.1133 27.0917 41.5787 27.5358L42.8568 29.0742C43.6222 28.4383 44.2086 27.6692 44.6031 26.7727L42.7724 25.9673ZM41.5729 27.5407C41.0492 27.9825 40.3807 28.3452 39.5437 28.6123L40.1518 30.5177C41.1947 30.1848 42.1062 29.7075 42.8626 29.0693L41.5729 27.5407ZM39.5529 28.6094C38.7267 28.8643 37.7589 29 36.6377 29V31C37.9165 31 39.0888 30.8457 40.1425 30.5206L39.5529 28.6094ZM36.6377 29H29.0477V31H36.6377V29ZM30.0477 30V8.505H28.0477V30H30.0477ZM29.0477 9.505H35.9027V7.505H29.0477V9.505ZM67.5373 23.7L68.4719 24.0557L68.4727 24.0534L67.5373 23.7ZM65.3773 27.165L64.6554 26.4729L64.6554 26.4729L65.3773 27.165ZM62.0173 29.43L62.3948 30.356L62.3984 30.3545L62.0173 29.43ZM53.3773 29.43L52.9937 30.3535L52.9997 30.356L53.3773 29.43ZM50.0323 27.165L49.3104 27.8571L49.3104 27.8571L50.0323 27.165ZM47.8723 23.7L46.9368 24.0534L46.9377 24.0557L47.8723 23.7ZM47.8723 14.835L48.8069 15.1907L48.8077 15.1884L47.8723 14.835ZM50.0323 11.355L50.7541 12.0471L50.7576 12.0434L50.0323 11.355ZM62.0173 9.075L61.6337 9.9985L61.6362 9.99953L62.0173 9.075ZM65.3773 11.355L64.6519 12.0434L64.6554 12.0471L65.3773 11.355ZM67.5373 14.835L66.6018 15.1884L66.6027 15.1907L67.5373 14.835ZM63.2473 13.05L62.5055 13.7207L62.5101 13.7257L63.2473 13.05ZM60.8473 11.37L61.2305 10.4463L61.2305 10.4463L60.8473 11.37ZM54.5623 11.37L54.179 10.4463L54.179 10.4463L54.5623 11.37ZM52.1473 13.05L51.4105 12.3738L51.4101 12.3743L52.1473 13.05ZM50.6173 15.705L49.6713 15.3807L49.6713 15.3807L50.6173 15.705ZM50.6173 22.815L49.6713 23.1393L49.6723 23.1421L50.6173 22.815ZM52.1473 25.47L51.4055 26.1406L51.4103 26.146L51.4152 26.1512L52.1473 25.47ZM54.5623 27.135L54.179 28.0587L54.1875 28.0621L54.5623 27.135ZM60.8473 27.135L61.2221 28.0621L61.2305 28.0587L60.8473 27.135ZM63.2473 25.47L63.9844 26.1457L63.989 26.1406L63.2473 25.47ZM64.7773 22.815L65.7223 23.1421L65.7232 23.1393L64.7773 22.815ZM67.3023 19.26C67.3023 20.7632 67.0645 22.1218 66.6018 23.3466L68.4727 24.0534C69.0301 22.5782 69.3023 20.9768 69.3023 19.26H67.3023ZM66.6027 23.3443C66.1371 24.5675 65.4866 25.606 64.6554 26.4729L66.0991 27.8571C67.1279 26.784 67.9174 25.5125 68.4719 24.0557L66.6027 23.3443ZM64.6554 26.4729C63.8268 27.3372 62.8248 28.0155 61.6362 28.5055L62.3984 30.3545C63.8297 29.7645 65.0677 28.9328 66.0991 27.8571L64.6554 26.4729ZM61.6397 28.504C60.4737 28.9794 59.164 29.225 57.6973 29.225V31.225C59.3905 31.225 60.9608 30.9406 62.3948 30.356L61.6397 28.504ZM57.6973 29.225C56.2305 29.225 54.9208 28.9794 53.7548 28.504L52.9997 30.356C54.4337 30.9406 56.004 31.225 57.6973 31.225V29.225ZM53.7609 28.5065C52.5822 28.0169 51.584 27.3385 50.7541 26.4729L49.3104 27.8571C50.3405 28.9315 51.5723 29.7631 52.9937 30.3535L53.7609 28.5065ZM50.7541 26.4729C49.9229 25.606 49.2724 24.5675 48.8069 23.3443L46.9377 24.0557C47.4921 25.5125 48.2816 26.784 49.3104 27.8571L50.7541 26.4729ZM48.8077 23.3466C48.3451 22.1218 48.1073 20.7632 48.1073 19.26H46.1073C46.1073 20.9768 46.3795 22.5782 46.9368 24.0534L48.8077 23.3466ZM48.1073 19.26C48.1073 17.7567 48.3451 16.404 48.8069 15.1907L46.9377 14.4793C46.3794 15.946 46.1073 17.5433 46.1073 19.26H48.1073ZM48.8077 15.1884C49.2737 13.9551 49.9242 12.9127 50.7541 12.0471L49.3104 10.6629C48.2804 11.7373 47.4909 13.0149 46.9368 14.4816L48.8077 15.1884ZM50.7576 12.0434C51.5874 11.169 52.5844 10.4872 53.7609 9.9985L52.9937 8.1515C51.5701 8.74283 50.3372 9.58097 49.3069 10.6666L50.7576 12.0434ZM53.7609 9.9985C54.9253 9.51483 56.2328 9.265 57.6973 9.265V7.265C56.0017 7.265 54.4293 7.55517 52.9937 8.1515L53.7609 9.9985ZM57.6973 9.265C59.1617 9.265 60.4693 9.51483 61.6337 9.9985L62.4009 8.1515C60.9653 7.55517 59.3928 7.265 57.6973 7.265V9.265ZM61.6362 9.99953C62.8226 10.4886 63.8235 11.1704 64.6519 12.0434L66.1026 10.6666C65.0711 9.57961 63.832 8.74142 62.3984 8.15047L61.6362 9.99953ZM64.6554 12.0471C65.4854 12.9127 66.1359 13.9551 66.6018 15.1884L68.4727 14.4816C67.9187 13.0149 67.1292 11.7373 66.0991 10.6629L64.6554 12.0471ZM66.6027 15.1907C67.0644 16.404 67.3023 17.7567 67.3023 19.26H69.3023C69.3023 17.5433 69.0301 15.946 68.4719 14.4793L66.6027 15.1907ZM66.3173 19.26C66.3173 17.85 66.125 16.5527 65.7232 15.3807L63.8313 16.0293C64.1495 16.9573 64.3173 18.03 64.3173 19.26H66.3173ZM65.7232 15.3807C65.3246 14.2181 64.7493 13.2087 63.9844 12.3743L62.5101 13.7257C63.0652 14.3313 63.5099 15.0919 63.8313 16.0293L65.7232 15.3807ZM63.989 12.3794C63.2263 11.5357 62.3025 10.8911 61.2305 10.4463L60.464 12.2937C61.2721 12.6289 61.9482 13.1043 62.5055 13.7206L63.989 12.3794ZM61.2305 10.4463C60.1532 9.99938 58.9705 9.785 57.6973 9.785V11.785C58.744 11.785 59.6613 11.9606 60.464 12.2937L61.2305 10.4463ZM57.6973 9.785C56.4328 9.785 55.2553 9.9998 54.179 10.4463L54.9455 12.2937C55.7492 11.9602 56.6617 11.785 57.6973 11.785V9.785ZM54.179 10.4463C53.1083 10.8906 52.1817 11.5336 51.4105 12.3738L52.884 13.7262C53.4529 13.1064 54.1362 12.6294 54.9455 12.2937L54.179 10.4463ZM51.4101 12.3743C50.6452 13.2087 50.0699 14.2181 49.6713 15.3807L51.5632 16.0293C51.8846 15.0919 52.3293 14.3313 52.8844 13.7257L51.4101 12.3743ZM49.6713 15.3807C49.2695 16.5527 49.0773 17.85 49.0773 19.26H51.0773C51.0773 18.03 51.245 16.9573 51.5632 16.0293L49.6713 15.3807ZM49.0773 19.26C49.0773 20.67 49.2695 21.9673 49.6713 23.1393L51.5632 22.4907C51.245 21.5627 51.0773 20.49 51.0773 19.26H49.0773ZM49.6723 23.1421C50.071 24.2941 50.6453 25.2998 51.4055 26.1406L52.889 24.7994C52.3293 24.1802 51.8835 23.4159 51.5623 22.4879L49.6723 23.1421ZM51.4152 26.1512C52.1862 26.9798 53.1115 27.6157 54.179 28.0587L54.9455 26.2113C54.1331 25.8743 53.4483 25.4002 52.8793 24.7888L51.4152 26.1512ZM54.1875 28.0621C55.2615 28.4963 56.436 28.705 57.6973 28.705V26.705C56.6586 26.705 55.743 26.5337 54.9371 26.2079L54.1875 28.0621ZM57.6973 28.705C58.9674 28.705 60.1471 28.4967 61.2221 28.0621L60.4725 26.2079C59.6675 26.5333 58.7472 26.705 57.6973 26.705V28.705ZM61.2305 28.0587C62.2993 27.6152 63.2218 26.9777 63.9844 26.1457L62.5101 24.7943C61.9528 25.4023 61.2752 25.8748 60.464 26.2113L61.2305 28.0587ZM63.989 26.1406C64.7493 25.2998 65.3235 24.2941 65.7223 23.1421L63.8323 22.4879C63.511 23.4159 63.0653 24.1802 62.5055 24.7994L63.989 26.1406ZM65.7232 23.1393C66.125 21.9673 66.3173 20.67 66.3173 19.26H64.3173C64.3173 20.49 64.1495 21.5627 63.8313 22.4907L65.7232 23.1393ZM84.9157 25.98L84.1751 25.308L84.1683 25.3156L84.9157 25.98ZM86.0257 24.045L85.0808 23.7174L85.077 23.7288L86.0257 24.045ZM86.4157 8.505V7.505H85.4157V8.505H86.4157ZM89.3107 8.505H90.3107V7.505H89.3107V8.505ZM88.7107 25.02L87.7751 24.6669L87.7722 24.6747L88.7107 25.02ZM87.0157 27.78L86.2902 27.0917L86.29 27.092L87.0157 27.78ZM74.4907 27.78L73.7652 28.4683L73.7697 28.4729L74.4907 27.78ZM72.7807 25.02L71.8422 25.3653L71.8451 25.3731L72.7807 25.02ZM72.1957 8.505V7.505H71.1957V8.505H72.1957ZM75.0907 8.505H76.0907V7.505H75.0907V8.505ZM75.4657 24.03L74.517 24.3462L74.5209 24.3575L75.4657 24.03ZM76.5757 25.965L75.8283 26.6294L75.8351 26.637L76.5757 25.965ZM78.3607 27.24L77.9558 28.1543L77.9636 28.1578L77.9715 28.1611L78.3607 27.24ZM80.7607 28.69C81.7636 28.69 82.696 28.5207 83.5396 28.1591L82.7518 26.3209C82.1955 26.5593 81.5378 26.69 80.7607 26.69V28.69ZM83.5396 28.1591C84.3673 27.8044 85.0802 27.3002 85.6631 26.6444L84.1683 25.3156C83.7912 25.7398 83.3241 26.0756 82.7518 26.3209L83.5396 28.1591ZM85.6563 26.652C86.2472 26.0007 86.6842 25.2318 86.9744 24.3612L85.077 23.7288C84.8672 24.3582 84.5642 24.8793 84.1751 25.308L85.6563 26.652ZM86.9705 24.3725C87.2716 23.5041 87.4157 22.5668 87.4157 21.57H85.4157C85.4157 22.3732 85.2998 23.0859 85.0809 23.7175L86.9705 24.3725ZM87.4157 21.57V8.505H85.4157V21.57H87.4157ZM86.4157 9.505H89.3107V7.505H86.4157V9.505ZM88.3107 8.505V21.57H90.3107V8.505H88.3107ZM88.3107 21.57C88.3107 22.7008 88.1287 23.73 87.7751 24.6669L89.6463 25.3731C90.0927 24.19 90.3107 22.9192 90.3107 21.57H88.3107ZM87.7722 24.6747C87.4267 25.6137 86.932 26.4153 86.2902 27.0917L87.7412 28.4683C88.5795 27.5847 89.2147 26.5463 89.6492 25.3653L87.7722 24.6747ZM86.29 27.092C85.664 27.7523 84.8887 28.2807 83.9473 28.6714L84.7141 30.5186C85.8927 30.0293 86.9074 29.3477 87.7414 28.468L86.29 27.092ZM83.9473 28.6714C83.0257 29.054 81.9687 29.255 80.7607 29.255V31.255C82.1927 31.255 83.5157 31.016 84.7141 30.5186L83.9473 28.6714ZM80.7607 29.255C79.5527 29.255 78.4957 29.054 77.5741 28.6714L76.8073 30.5186C78.0057 31.016 79.3287 31.255 80.7607 31.255V29.255ZM77.5741 28.6714C76.6317 28.2802 75.8493 27.7505 75.2117 27.0871L73.7697 28.4729C74.6121 29.3495 75.6297 30.0298 76.8073 30.5186L77.5741 28.6714ZM75.2162 27.0917C74.5727 26.4135 74.0719 25.6091 73.7163 24.6669L71.8451 25.3731C72.2896 26.5509 72.9287 27.5865 73.7652 28.4683L75.2162 27.0917ZM73.7192 24.6747C73.3737 23.7356 73.1957 22.7037 73.1957 21.57H71.1957C71.1957 22.9163 71.4077 24.1844 71.8422 25.3653L73.7192 24.6747ZM73.1957 21.57V8.505H71.1957V21.57H73.1957ZM72.1957 9.505H75.0907V7.505H72.1957V9.505ZM74.0907 8.505V21.555H76.0907V8.505H74.0907ZM74.0907 21.555C74.0907 22.5478 74.2287 23.4812 74.517 24.3462L76.4144 23.7138C76.2027 23.0788 76.0907 22.3622 76.0907 21.555H74.0907ZM74.5209 24.3575C74.8196 25.2194 75.2527 25.9819 75.8283 26.6294L77.3231 25.3006C76.9387 24.8681 76.6318 24.3406 76.4105 23.7025L74.5209 24.3575ZM75.8351 26.637C76.4236 27.2854 77.1347 27.7907 77.9558 28.1543L78.7656 26.3257C78.1867 26.0693 77.7079 25.7246 77.3163 25.293L75.8351 26.637ZM77.9715 28.1611C78.8222 28.5206 79.7575 28.69 80.7607 28.69V26.69C79.9839 26.69 79.3192 26.5594 78.7499 26.3189L77.9715 28.1611ZM109.061 10.95V11.95H110.061V10.95H109.061ZM102.101 10.95V9.95H101.101V10.95H102.101ZM102.101 30V31H103.101V30H102.101ZM99.2063 30H98.2063V31H99.2063V30ZM99.2063 10.95H100.206V9.95H99.2063V10.95ZM92.2313 10.95H91.2313V11.95H92.2313V10.95ZM92.2313 8.505V7.505H91.2313V8.505H92.2313ZM109.061 8.505H110.061V7.505H109.061V8.505ZM109.061 9.95H102.101V11.95H109.061V9.95ZM101.101 10.95V30H103.101V10.95H101.101ZM102.101 29H99.2063V31H102.101V29ZM100.206 30V10.95H98.2063V30H100.206ZM99.2063 9.95H92.2313V11.95H99.2063V9.95ZM93.2313 10.95V8.505H91.2313V10.95H93.2313ZM92.2313 9.505H109.061V7.505H92.2313V9.505ZM108.061 8.505V10.95H110.061V8.505H108.061ZM141.383 8.505H142.383V7.505H141.383V8.505ZM141.383 30V31H142.383V30H141.383ZM138.833 30H137.833V31H138.833V30ZM138.848 13.53L137.852 13.447L137.85 13.4676L137.849 13.4884L138.848 13.53ZM138.908 12.795L139.905 12.8747L138.032 12.3137L138.908 12.795ZM131.528 26.235L130.652 25.7537L130.645 25.7667L130.638 25.7799L131.528 26.235ZM129.008 26.235L129.899 25.7799L129.891 25.7637L129.882 25.7479L129.008 26.235ZM121.478 12.735L122.352 12.2479L120.485 12.8475L121.478 12.735ZM121.568 30V31H122.568V30H121.568ZM119.018 30H118.018V31H119.018V30ZM119.018 8.505V7.505H118.018V8.505H119.018ZM122.168 9L123.04 8.51058L123.039 8.50794L122.168 9ZM129.593 22.23L130.488 21.7828L130.477 21.7614L130.465 21.7406L129.593 22.23ZM129.938 22.98L129.017 23.3696L129.024 23.3845L129.03 23.3991L129.938 22.98ZM130.268 23.775L129.331 24.1223L130.268 26.6542L131.206 24.1223L130.268 23.775ZM130.583 22.98L131.504 23.3697L131.51 23.3573L130.583 22.98ZM130.943 22.215L130.068 21.732L130.064 21.7387L130.943 22.215ZM138.233 9L139.109 9.48302L139.115 9.47286L139.12 9.46256L138.233 9ZM138.623 8.58L138.307 7.63132L138.297 7.63468L138.287 7.63826L138.623 8.58ZM140.383 8.505V30H142.383V8.505H140.383ZM141.383 29H138.833V31H141.383V29ZM139.833 30V14.205H137.833V30H139.833ZM139.833 14.205C139.833 14.0107 139.838 13.7997 139.848 13.5716L137.849 13.4884C137.839 13.7403 137.833 13.9793 137.833 14.205H139.833ZM139.845 13.613C139.865 13.3719 139.885 13.1258 139.905 12.8747L137.912 12.7153C137.892 12.9642 137.872 13.2081 137.852 13.447L139.845 13.613ZM138.032 12.3137L130.652 25.7537L132.405 26.7163L139.785 13.2763L138.032 12.3137ZM130.638 25.7799C130.612 25.8312 130.589 25.8618 130.575 25.8786C130.561 25.8947 130.553 25.8996 130.553 25.9001C130.552 25.9003 130.551 25.9016 130.544 25.9035C130.536 25.9056 130.516 25.91 130.478 25.91V27.91C130.88 27.91 131.278 27.8116 131.634 27.5824C131.987 27.3558 132.241 27.0387 132.419 26.6901L130.638 25.7799ZM130.478 25.91H130.058V27.91H130.478V25.91ZM130.058 25.91C130.021 25.91 130.001 25.9056 129.993 25.9035C129.986 25.9016 129.985 25.9003 129.984 25.9001C129.983 25.8996 129.976 25.8947 129.962 25.8786C129.947 25.8618 129.925 25.8312 129.899 25.7799L128.118 26.6901C128.296 27.0387 128.55 27.3558 128.903 27.5824C129.259 27.8116 129.657 27.91 130.058 27.91V25.91ZM129.882 25.7479L122.352 12.2479L120.605 13.2221L128.135 26.7221L129.882 25.7479ZM120.485 12.8475C120.541 13.3468 120.568 13.7987 120.568 14.205H122.568C122.568 13.7113 122.536 13.1832 122.472 12.6225L120.485 12.8475ZM120.568 14.205V30H122.568V14.205H120.568ZM121.568 29H119.018V31H121.568V29ZM120.018 30V8.505H118.018V30H120.018ZM119.018 9.505H121.163V7.505H119.018V9.505ZM121.163 9.505C121.263 9.505 121.335 9.50989 121.384 9.51603C121.436 9.52244 121.445 9.52819 121.427 9.52174L122.1 7.63826C121.8 7.53117 121.466 7.505 121.163 7.505V9.505ZM121.427 9.52174C121.314 9.48143 121.258 9.42473 121.25 9.41663C121.242 9.40864 121.261 9.4262 121.298 9.49206L123.039 8.50794C122.873 8.21511 122.586 7.81179 122.1 7.63826L121.427 9.52174ZM121.296 9.48941L128.721 22.7194L130.465 21.7406L123.04 8.51058L121.296 9.48941ZM128.699 22.6772C128.809 22.8974 128.915 23.1281 129.017 23.3696L130.859 22.5904C130.742 22.3119 130.618 22.0426 130.488 21.7828L128.699 22.6772ZM129.03 23.3991C129.14 23.6354 129.24 23.8765 129.331 24.1223L131.206 23.4277C131.097 23.1335 130.977 22.8446 130.846 22.5609L129.03 23.3991ZM131.206 24.1223C131.301 23.8663 131.4 23.6154 131.504 23.3696L129.662 22.5904C129.546 22.8646 129.436 23.1437 129.331 23.4277L131.206 24.1223ZM131.51 23.3573C131.607 23.1189 131.711 22.8971 131.823 22.6913L130.064 21.7387C129.916 22.0129 129.78 22.3011 129.657 22.6027L131.51 23.3573ZM131.819 22.698L139.109 9.48302L137.358 8.51697L130.068 21.732L131.819 22.698ZM139.12 9.46256C139.152 9.40053 139.167 9.38891 139.154 9.40295C139.14 9.41804 139.078 9.47954 138.96 9.52174L138.287 7.63826C137.787 7.81702 137.504 8.23654 137.347 8.53743L139.12 9.46256ZM138.94 9.52868C138.935 9.5301 138.956 9.52311 139.011 9.51639C139.064 9.50985 139.139 9.505 139.238 9.505V7.505C138.931 7.505 138.604 7.5325 138.307 7.63132L138.94 9.52868ZM139.238 9.505H141.383V7.505H139.238V9.505ZM160.14 27.63L161.14 27.6363L161.146 26.63H160.14V27.63ZM160.125 30V31H161.118L161.125 30.0063L160.125 30ZM146.88 30H145.88V31H146.88V30ZM146.88 8.505V7.505H145.88V8.505H146.88ZM160.125 8.505H161.125V7.505H160.125V8.505ZM160.125 10.875V11.875H161.125V10.875H160.125ZM149.79 10.875V9.875H148.79V10.875H149.79ZM149.79 18.015H148.79V19.015H149.79V18.015ZM158.16 18.015H159.16V17.015H158.16V18.015ZM158.16 20.295V21.295H159.16V20.295H158.16ZM149.79 20.295V19.295H148.79V20.295H149.79ZM149.79 27.63H148.79V28.63H149.79V27.63ZM159.14 27.6237L159.125 29.9937L161.125 30.0063L161.14 27.6363L159.14 27.6237ZM160.125 29H146.88V31H160.125V29ZM147.88 30V8.505H145.88V30H147.88ZM146.88 9.505H160.125V7.505H146.88V9.505ZM159.125 8.505V10.875H161.125V8.505H159.125ZM160.125 9.875H149.79V11.875H160.125V9.875ZM148.79 10.875V18.015H150.79V10.875H148.79ZM149.79 19.015H158.16V17.015H149.79V19.015ZM157.16 18.015V20.295H159.16V18.015H157.16ZM158.16 19.295H149.79V21.295H158.16V19.295ZM148.79 20.295V27.63H150.79V20.295H148.79ZM149.79 28.63H160.14V26.63H149.79V28.63Z" fill="#58A6FF"/>
</g>
<g filter="url(#filter1_d)">
<rect x="6" y="36" width="155" height="10" fill="#5965E0"/>
<rect x="6.5" y="36.5" width="154" height="9" stroke="#5965E0"/>
</g>
<defs>
<filter id="filter0_d" x="0.613159" y="7.265" width="164.533" height="31.99" filterUnits="userSpaceOnUse" color-interpolation-filters="sRGB">
<feFlood flood-opacity="0" result="BackgroundImageFix"/>
<feColorMatrix in="SourceAlpha" type="matrix" values="0 0 0 0 0 0 0 0 0 0 0 0 0 0 0 0 0 0 127 0"/>
<feOffset dy="4"/>
<feGaussianBlur stdDeviation="2"/>
<feColorMatrix type="matrix" values="0 0 0 0 0 0 0 0 0 0 0 0 0 0 0 0 0 0 0.25 0"/>
<feBlend mode="normal" in2="BackgroundImageFix" result="effect1_dropShadow"/>
<feBlend mode="normal" in="SourceGraphic" in2="effect1_dropShadow" result="shape"/>
</filter>
<filter id="filter1_d" x="2" y="36" width="163" height="18" filterUnits="userSpaceOnUse" color-interpolation-filters="sRGB">
<feFlood flood-opacity="0" result="BackgroundImageFix"/>
<feColorMatrix in="SourceAlpha" type="matrix" values="0 0 0 0 0 0 0 0 0 0 0 0 0 0 0 0 0 0 127 0"/>
<feOffset dy="4"/>
<feGaussianBlur stdDeviation="2"/>
<feColorMatrix type="matrix" values="0 0 0 0 0 0 0 0 0 0 0 0 0 0 0 0 0 0 0.25 0"/>
<feBlend mode="normal" in2="BackgroundImageFix" result="effect1_dropShadow"/>
<feBlend mode="normal" in="SourceGraphic" in2="effect1_dropShadow" result="shape"/>
</filter>
</defs>
</svg>
