<svg width="350" height="54" viewBox="0 0 350 54" fill="none" xmlns="http://www.w3.org/2000/svg">
<g filter="url(#filter0_d)">
<path d="M4 38C4 36.8954 4.89543 36 6 36H343C344.105 36 345 36.8954 345 38V44C345 45.1046 344.105 46 343 46H6C4.89543 46 4 45.1046 4 44V38Z" fill="#5965E0"/>
<path d="M6 36.5H343C343.828 36.5 344.5 37.1716 344.5 38V44C344.5 44.8284 343.828 45.5 343 45.5H6C5.17157 45.5 4.5 44.8284 4.5 44V38C4.5 37.1716 5.17157 36.5 6 36.5Z" stroke="#5965E0"/>
</g>
<g filter="url(#filter1_d)">
<path d="M14.29 27.69C15.12 27.69 15.835 27.595 16.435 27.405C17.035 27.215 17.525 26.95 17.905 26.61C18.295 26.26 18.58 25.85 18.76 25.38C18.94 24.9 19.03 24.375 19.03 23.805C19.03 22.695 18.635 21.82 17.845 21.18C17.055 20.53 15.87 20.205 14.29 20.205H9.64V27.69H14.29ZM9.64 10.8V18.135H13.48C14.3 18.135 15.01 18.045 15.61 17.865C16.22 17.685 16.72 17.435 17.11 17.115C17.51 16.795 17.805 16.41 17.995 15.96C18.185 15.5 18.28 15 18.28 14.46C18.28 13.19 17.9 12.265 17.14 11.685C16.38 11.095 15.2 10.8 13.6 10.8H9.64ZM13.6 8.505C14.92 8.505 16.055 8.635 17.005 8.895C17.965 9.155 18.75 9.525 19.36 10.005C19.98 10.485 20.435 11.075 20.725 11.775C21.015 12.465 21.16 13.245 21.16 14.115C21.16 14.645 21.075 15.155 20.905 15.645C20.745 16.125 20.5 16.575 20.17 16.995C19.84 17.415 19.42 17.795 18.91 18.135C18.41 18.465 17.82 18.735 17.14 18.945C18.72 19.245 19.905 19.81 20.695 20.64C21.495 21.46 21.895 22.54 21.895 23.88C21.895 24.79 21.725 25.62 21.385 26.37C21.055 27.12 20.565 27.765 19.915 28.305C19.275 28.845 18.485 29.265 17.545 29.565C16.605 29.855 15.535 30 14.335 30H6.745V8.505H13.6ZM34.4345 27.69C35.3245 27.69 36.1195 27.54 36.8195 27.24C37.5195 26.94 38.1095 26.52 38.5895 25.98C39.0795 25.44 39.4495 24.795 39.6995 24.045C39.9595 23.295 40.0895 22.47 40.0895 21.57V8.505H42.9845V21.57C42.9845 22.81 42.7845 23.96 42.3845 25.02C41.9945 26.08 41.4295 27 40.6895 27.78C39.9595 28.55 39.0645 29.155 38.0045 29.595C36.9445 30.035 35.7545 30.255 34.4345 30.255C33.1145 30.255 31.9245 30.035 30.8645 29.595C29.8045 29.155 28.9045 28.55 28.1645 27.78C27.4245 27 26.8545 26.08 26.4545 25.02C26.0645 23.96 25.8695 22.81 25.8695 21.57V8.505H28.7645V21.555C28.7645 22.455 28.8895 23.28 29.1395 24.03C29.3995 24.78 29.7695 25.425 30.2495 25.965C30.7395 26.505 31.3345 26.93 32.0345 27.24C32.7445 27.54 33.5445 27.69 34.4345 27.69ZM51.1101 30H48.2001V8.505H51.1101V30ZM68.8033 27.555V30H56.6083V8.505H59.5033V27.555H68.8033ZM90.6484 19.26C90.6484 20.87 90.3934 22.335 89.8834 23.655C89.3734 24.975 88.6534 26.105 87.7234 27.045C86.7934 27.985 85.6734 28.715 84.3634 29.235C83.0634 29.745 81.6234 30 80.0434 30H72.0184V8.505H80.0434C81.6234 8.505 83.0634 8.765 84.3634 9.285C85.6734 9.795 86.7934 10.525 87.7234 11.475C88.6534 12.415 89.3734 13.545 89.8834 14.865C90.3934 16.185 90.6484 17.65 90.6484 19.26ZM87.6634 19.26C87.6634 17.94 87.4834 16.76 87.1234 15.72C86.7634 14.68 86.2534 13.8 85.5934 13.08C84.9334 12.36 84.1334 11.81 83.1934 11.43C82.2534 11.05 81.2034 10.86 80.0434 10.86H74.9284V27.645H80.0434C81.2034 27.645 82.2534 27.455 83.1934 27.075C84.1334 26.695 84.9334 26.15 85.5934 25.44C86.2534 24.72 86.7634 23.84 87.1234 22.8C87.4834 21.76 87.6634 20.58 87.6634 19.26ZM97.7507 30H94.8407V8.505H97.7507V30ZM120.664 8.505V30H119.209C118.979 30 118.784 29.96 118.624 29.88C118.474 29.8 118.324 29.665 118.174 29.475L105.739 13.275C105.759 13.525 105.774 13.77 105.784 14.01C105.794 14.25 105.799 14.475 105.799 14.685V30H103.249V8.505H104.749C104.879 8.505 104.989 8.515 105.079 8.535C105.169 8.545 105.249 8.57 105.319 8.61C105.389 8.64 105.459 8.69 105.529 8.76C105.599 8.82 105.674 8.9 105.754 9L118.189 25.185C118.169 24.925 118.149 24.675 118.129 24.435C118.119 24.185 118.114 23.95 118.114 23.73V8.505H120.664ZM143.619 19.665V27.915C142.539 28.695 141.384 29.28 140.154 29.67C138.934 30.05 137.594 30.24 136.134 30.24C134.404 30.24 132.844 29.975 131.454 29.445C130.064 28.905 128.874 28.155 127.884 27.195C126.904 26.225 126.149 25.065 125.619 23.715C125.089 22.365 124.824 20.88 124.824 19.26C124.824 17.62 125.079 16.125 125.589 14.775C126.109 13.425 126.844 12.27 127.794 11.31C128.744 10.34 129.899 9.59 131.259 9.06C132.619 8.53 134.139 8.265 135.819 8.265C136.669 8.265 137.459 8.33 138.189 8.46C138.919 8.58 139.594 8.76 140.214 9C140.834 9.23 141.409 9.515 141.939 9.855C142.469 10.185 142.964 10.56 143.424 10.98L142.599 12.3C142.469 12.5 142.299 12.63 142.089 12.69C141.889 12.74 141.664 12.69 141.414 12.54C141.174 12.4 140.899 12.23 140.589 12.03C140.279 11.83 139.899 11.64 139.449 11.46C139.009 11.27 138.484 11.11 137.874 10.98C137.274 10.85 136.559 10.785 135.729 10.785C134.519 10.785 133.424 10.985 132.444 11.385C131.464 11.775 130.629 12.34 129.939 13.08C129.249 13.81 128.719 14.7 128.349 15.75C127.979 16.79 127.794 17.96 127.794 19.26C127.794 20.61 127.984 21.82 128.364 22.89C128.754 23.95 129.304 24.855 130.014 25.605C130.734 26.345 131.604 26.91 132.624 27.3C133.644 27.69 134.789 27.885 136.059 27.885C137.059 27.885 137.944 27.775 138.714 27.555C139.494 27.325 140.254 27.01 140.994 26.61V21.885H137.649C137.459 21.885 137.304 21.83 137.184 21.72C137.074 21.61 137.019 21.475 137.019 21.315V19.665H143.619ZM169.376 10.95H162.416V30H159.521V10.95H152.546V8.505H169.376V10.95ZM189.98 8.505V30H187.07V20.22H175.475V30H172.565V8.505H175.475V18.09H187.07V8.505H189.98ZM208.735 27.63L208.72 30H195.475V8.505H208.72V10.875H198.385V18.015H206.755V20.295H198.385V27.63H208.735ZM226.811 19.65C227.641 19.65 228.371 19.54 229.001 19.32C229.641 19.1 230.176 18.795 230.606 18.405C231.046 18.005 231.376 17.53 231.596 16.98C231.816 16.43 231.926 15.825 231.926 15.165C231.926 13.795 231.501 12.725 230.651 11.955C229.811 11.185 228.531 10.8 226.811 10.8H223.361V19.65H226.811ZM226.811 8.505C228.171 8.505 229.351 8.665 230.351 8.985C231.361 9.295 232.196 9.74 232.856 10.32C233.516 10.9 234.006 11.6 234.326 12.42C234.656 13.24 234.821 14.155 234.821 15.165C234.821 16.165 234.646 17.08 234.296 17.91C233.946 18.74 233.431 19.455 232.751 20.055C232.081 20.655 231.246 21.125 230.246 21.465C229.256 21.795 228.111 21.96 226.811 21.96H223.361V30H220.466V8.505H226.811ZM244.438 18.915C245.278 18.915 246.018 18.815 246.658 18.615C247.308 18.405 247.848 18.115 248.278 17.745C248.718 17.365 249.048 16.915 249.268 16.395C249.488 15.875 249.598 15.3 249.598 14.67C249.598 13.39 249.178 12.425 248.338 11.775C247.498 11.125 246.238 10.8 244.558 10.8H241.378V18.915H244.438ZM254.368 30H251.788C251.258 30 250.868 29.795 250.618 29.385L245.038 21.705C244.868 21.465 244.683 21.295 244.483 21.195C244.293 21.085 243.993 21.03 243.583 21.03H241.378V30H238.483V8.505H244.558C245.918 8.505 247.093 8.645 248.083 8.925C249.073 9.195 249.888 9.59 250.528 10.11C251.178 10.63 251.658 11.26 251.968 12C252.278 12.73 252.433 13.55 252.433 14.46C252.433 15.22 252.313 15.93 252.073 16.59C251.833 17.25 251.483 17.845 251.023 18.375C250.573 18.895 250.018 19.34 249.358 19.71C248.708 20.08 247.968 20.36 247.138 20.55C247.508 20.76 247.828 21.065 248.098 21.465L254.368 30ZM276.947 19.26C276.947 20.87 276.692 22.35 276.182 23.7C275.672 25.04 274.952 26.195 274.022 27.165C273.092 28.135 271.972 28.89 270.662 29.43C269.362 29.96 267.922 30.225 266.342 30.225C264.762 30.225 263.322 29.96 262.022 29.43C260.722 28.89 259.607 28.135 258.677 27.165C257.747 26.195 257.027 25.04 256.517 23.7C256.007 22.35 255.752 20.87 255.752 19.26C255.752 17.65 256.007 16.175 256.517 14.835C257.027 13.485 257.747 12.325 258.677 11.355C259.607 10.375 260.722 9.615 262.022 9.075C263.322 8.535 264.762 8.265 266.342 8.265C267.922 8.265 269.362 8.535 270.662 9.075C271.972 9.615 273.092 10.375 274.022 11.355C274.952 12.325 275.672 13.485 276.182 14.835C276.692 16.175 276.947 17.65 276.947 19.26ZM273.962 19.26C273.962 17.94 273.782 16.755 273.422 15.705C273.062 14.655 272.552 13.77 271.892 13.05C271.232 12.32 270.432 11.76 269.492 11.37C268.552 10.98 267.502 10.785 266.342 10.785C265.192 10.785 264.147 10.98 263.207 11.37C262.267 11.76 261.462 12.32 260.792 13.05C260.132 13.77 259.622 14.655 259.262 15.705C258.902 16.755 258.722 17.94 258.722 19.26C258.722 20.58 258.902 21.765 259.262 22.815C259.622 23.855 260.132 24.74 260.792 25.47C261.462 26.19 262.267 26.745 263.207 27.135C264.147 27.515 265.192 27.705 266.342 27.705C267.502 27.705 268.552 27.515 269.492 27.135C270.432 26.745 271.232 26.19 271.892 25.47C272.552 24.74 273.062 23.855 273.422 22.815C273.782 21.765 273.962 20.58 273.962 19.26ZM287.436 22.575C287.436 23.775 287.286 24.85 286.986 25.8C286.696 26.75 286.261 27.555 285.681 28.215C285.111 28.865 284.406 29.365 283.566 29.715C282.726 30.065 281.761 30.24 280.671 30.24C279.681 30.24 278.671 30.1 277.641 29.82C277.661 29.53 277.686 29.245 277.716 28.965C277.746 28.675 277.771 28.39 277.791 28.11C277.811 27.94 277.871 27.805 277.971 27.705C278.081 27.595 278.246 27.54 278.466 27.54C278.646 27.54 278.881 27.585 279.171 27.675C279.471 27.765 279.871 27.81 280.371 27.81C281.031 27.81 281.621 27.71 282.141 27.51C282.661 27.31 283.096 27 283.446 26.58C283.796 26.16 284.061 25.625 284.241 24.975C284.431 24.315 284.526 23.535 284.526 22.635V8.505H287.436V22.575ZM305.972 27.63L305.957 30H292.712V8.505H305.957V10.875H295.622V18.015H303.992V20.295H295.622V27.63H305.972ZM324.648 25.56C324.808 25.56 324.948 25.625 325.068 25.755L326.223 27C325.343 28.02 324.273 28.815 323.013 29.385C321.763 29.955 320.248 30.24 318.468 30.24C316.928 30.24 315.528 29.975 314.268 29.445C313.008 28.905 311.933 28.155 311.043 27.195C310.153 26.225 309.463 25.065 308.973 23.715C308.483 22.365 308.238 20.88 308.238 19.26C308.238 17.64 308.493 16.155 309.003 14.805C309.513 13.455 310.228 12.295 311.148 11.325C312.078 10.355 313.188 9.605 314.478 9.075C315.768 8.535 317.193 8.265 318.753 8.265C320.283 8.265 321.633 8.51 322.803 9C323.973 9.49 325.003 10.155 325.893 10.995L324.933 12.33C324.873 12.43 324.793 12.515 324.693 12.585C324.603 12.645 324.478 12.675 324.318 12.675C324.138 12.675 323.918 12.58 323.658 12.39C323.398 12.19 323.058 11.97 322.638 11.73C322.218 11.49 321.693 11.275 321.063 11.085C320.433 10.885 319.658 10.785 318.738 10.785C317.628 10.785 316.613 10.98 315.693 11.37C314.773 11.75 313.978 12.305 313.308 13.035C312.648 13.765 312.133 14.655 311.763 15.705C311.393 16.755 311.208 17.94 311.208 19.26C311.208 20.6 311.398 21.795 311.778 22.845C312.168 23.895 312.693 24.785 313.353 25.515C314.023 26.235 314.808 26.785 315.708 27.165C316.618 27.545 317.598 27.735 318.648 27.735C319.288 27.735 319.863 27.7 320.373 27.63C320.893 27.55 321.368 27.43 321.798 27.27C322.238 27.11 322.643 26.91 323.013 26.67C323.393 26.42 323.768 26.125 324.138 25.785C324.308 25.635 324.478 25.56 324.648 25.56ZM344.132 10.95H337.172V30H334.277V10.95H327.302V8.505H344.132V10.95Z" fill="#58A6FF"/>
<path d="M17.905 26.61L18.5718 27.3552L18.5729 27.3542L17.905 26.61ZM18.76 25.38L19.6939 25.7377L19.6963 25.7311L18.76 25.38ZM17.845 21.18L17.2096 21.9522L17.2155 21.957L17.845 21.18ZM9.64 20.205V19.205H8.64V20.205H9.64ZM9.64 27.69H8.64V28.69H9.64V27.69ZM9.64 10.8V9.8H8.64V10.8H9.64ZM9.64 18.135H8.64V19.135H9.64V18.135ZM15.61 17.865L15.327 16.9059L15.3227 16.9072L15.61 17.865ZM17.11 17.115L16.4853 16.3341L16.4757 16.3419L17.11 17.115ZM17.995 15.96L18.9163 16.349L18.9193 16.3418L17.995 15.96ZM17.14 11.685L16.5268 12.4749L16.5333 12.48L17.14 11.685ZM17.005 8.895L16.741 9.85953L16.7436 9.86023L17.005 8.895ZM19.36 10.005L18.7416 10.7909L18.7478 10.7957L19.36 10.005ZM20.725 11.775L19.8011 12.1577L19.8031 12.1625L20.725 11.775ZM20.905 15.645L19.9602 15.3172L19.9563 15.3288L20.905 15.645ZM20.17 16.995L20.9563 17.6128L20.17 16.995ZM18.91 18.135L19.4608 18.9696L19.4647 18.9671L18.91 18.135ZM17.14 18.945L16.8449 17.9895L16.9535 19.9274L17.14 18.945ZM20.695 20.64L19.9706 21.3295L19.9792 21.3383L20.695 20.64ZM21.385 26.37L20.4742 25.9571L20.4697 25.9673L21.385 26.37ZM19.915 28.305L19.276 27.5358L19.2701 27.5407L19.915 28.305ZM17.545 29.565L17.8398 30.5206L17.849 30.5177L17.545 29.565ZM6.745 30H5.745V31H6.745V30ZM6.745 8.505V7.505H5.745V8.505H6.745ZM14.29 28.69C15.1918 28.69 16.0138 28.5873 16.7369 28.3583L16.1331 26.4517C15.6562 26.6027 15.0482 26.69 14.29 26.69V28.69ZM16.7369 28.3583C17.4411 28.1354 18.0646 27.8091 18.5718 27.3552L17.2382 25.8648C16.9854 26.0909 16.6289 26.2946 16.1331 26.4517L16.7369 28.3583ZM18.5729 27.3542C19.0759 26.9028 19.4548 26.362 19.6939 25.7376L17.8261 25.0224C17.7052 25.338 17.5141 25.6172 17.2371 25.8658L18.5729 27.3542ZM19.6963 25.7311C19.9229 25.127 20.03 24.4815 20.03 23.805H18.03C18.03 24.2685 17.9571 24.673 17.8237 25.0289L19.6963 25.7311ZM20.03 23.805C20.03 22.4249 19.5223 21.2519 18.4745 20.403L17.2155 21.957C17.7477 22.3881 18.03 22.9651 18.03 23.805H20.03ZM18.4804 20.4078C17.4367 19.549 15.9819 19.205 14.29 19.205V21.205C15.7581 21.205 16.6733 21.511 17.2096 21.9522L18.4804 20.4078ZM14.29 19.205H9.64V21.205H14.29V19.205ZM8.64 20.205V27.69H10.64V20.205H8.64ZM9.64 28.69H14.29V26.69H9.64V28.69ZM8.64 10.8V18.135H10.64V10.8H8.64ZM9.64 19.135H13.48V17.135H9.64V19.135ZM13.48 19.135C14.3691 19.135 15.1805 19.0379 15.8973 18.8228L15.3227 16.9072C14.8395 17.0521 14.2309 17.135 13.48 17.135V19.135ZM15.893 18.8241C16.5991 18.6158 17.2277 18.312 17.7443 17.8881L16.4757 16.3419C16.2123 16.558 15.8409 16.7542 15.327 16.9059L15.893 18.8241ZM17.7347 17.8959C18.2581 17.4772 18.6584 16.9598 18.9163 16.349L17.0738 15.571C16.9516 15.8602 16.7619 16.1128 16.4853 16.3341L17.7347 17.8959ZM18.9193 16.3418C19.1634 15.7507 19.28 15.1198 19.28 14.46H17.28C17.28 14.8802 17.2066 15.2493 17.0707 15.5782L18.9193 16.3418ZM19.28 14.46C19.28 12.989 18.8311 11.7176 17.7467 10.89L16.5333 12.48C16.9689 12.8124 17.28 13.391 17.28 14.46H19.28ZM17.7532 10.8951C16.735 10.1046 15.2874 9.8 13.6 9.8V11.8C15.1126 11.8 16.025 12.0854 16.5268 12.4749L17.7532 10.8951ZM13.6 9.8H9.64V11.8H13.6V9.8ZM13.6 9.505C14.859 9.505 15.9005 9.6295 16.741 9.85953L17.269 7.93047C16.2095 7.6405 14.981 7.505 13.6 7.505V9.505ZM16.7436 9.86023C17.6088 10.0946 18.2625 10.4139 18.7416 10.7909L19.9784 9.21913C19.2375 8.6361 18.3212 8.21545 17.2664 7.92977L16.7436 9.86023ZM18.7478 10.7957C19.2352 11.173 19.5801 11.6243 19.8011 12.1577L21.6489 11.3923C21.2899 10.5257 20.7248 9.79695 19.9722 9.21428L18.7478 10.7957ZM19.8031 12.1625C20.0339 12.7115 20.16 13.3567 20.16 14.115H22.16C22.16 13.1333 21.9961 12.2185 21.6469 11.3875L19.8031 12.1625ZM20.16 14.115C20.16 14.5359 20.0929 14.935 19.9602 15.3172L21.8498 15.9728C22.0571 15.375 22.16 14.7541 22.16 14.115H20.16ZM19.9563 15.3288C19.8347 15.6937 19.6466 16.0425 19.3837 16.3772L20.9563 17.6128C21.3534 17.1075 21.6553 16.5563 21.8537 15.9612L19.9563 15.3288ZM19.3837 16.3772C19.1279 16.7027 18.79 17.0132 18.3553 17.3029L19.4647 18.9671C20.05 18.5768 20.5521 18.1273 20.9563 17.6128L19.3837 16.3772ZM18.3592 17.3004C17.9515 17.5695 17.4508 17.8024 16.8449 17.9895L17.4351 19.9005C18.1892 19.6676 18.8685 19.3605 19.4608 18.9696L18.3592 17.3004ZM16.9535 19.9274C18.4084 20.2037 19.3726 20.7011 19.9707 21.3294L21.4193 19.9506C20.4374 18.9189 19.0316 18.2863 17.3265 17.9626L16.9535 19.9274ZM19.9792 21.3383C20.5663 21.94 20.895 22.7534 20.895 23.88H22.895C22.895 22.3266 22.4237 20.98 21.4108 19.9417L19.9792 21.3383ZM20.895 23.88C20.895 24.6627 20.7495 25.3499 20.4742 25.9571L22.2958 26.7829C22.7005 25.8901 22.895 24.9173 22.895 23.88H20.895ZM20.4697 25.9673C20.2041 26.5708 19.8106 27.0917 19.276 27.5358L20.554 29.0742C21.3194 28.4383 21.9059 27.6692 22.3003 26.7727L20.4697 25.9673ZM19.2701 27.5407C18.7465 27.9825 18.078 28.3452 17.241 28.6123L17.849 30.5177C18.892 30.1848 19.8035 29.7075 20.5599 29.0693L19.2701 27.5407ZM17.2502 28.6094C16.424 28.8643 15.4562 29 14.335 29V31C15.6138 31 16.786 30.8457 17.8398 30.5206L17.2502 28.6094ZM14.335 29H6.745V31H14.335V29ZM7.745 30V8.505H5.745V30H7.745ZM6.745 9.505H13.6V7.505H6.745V9.505ZM38.5895 25.98L37.8489 25.308L37.8421 25.3156L38.5895 25.98ZM39.6995 24.045L38.7546 23.7174L38.7508 23.7288L39.6995 24.045ZM40.0895 8.505V7.505H39.0895V8.505H40.0895ZM42.9845 8.505H43.9845V7.505H42.9845V8.505ZM42.3845 25.02L41.4489 24.6669L41.446 24.6747L42.3845 25.02ZM40.6895 27.78L39.9641 27.0917L39.9638 27.092L40.6895 27.78ZM28.1645 27.78L27.4391 28.4683L27.4435 28.4729L28.1645 27.78ZM26.4545 25.02L25.516 25.3653L25.5189 25.3731L26.4545 25.02ZM25.8695 8.505V7.505H24.8695V8.505H25.8695ZM28.7645 8.505H29.7645V7.505H28.7645V8.505ZM29.1395 24.03L28.1908 24.3462L28.1947 24.3575L29.1395 24.03ZM30.2495 25.965L29.5021 26.6294L29.509 26.637L30.2495 25.965ZM32.0345 27.24L31.6296 28.1543L31.6374 28.1578L31.6453 28.1611L32.0345 27.24ZM34.4345 28.69C35.4374 28.69 36.3698 28.5207 37.2135 28.1591L36.4256 26.3209C35.8693 26.5593 35.2117 26.69 34.4345 26.69V28.69ZM37.2135 28.1591C38.0411 27.8044 38.754 27.3002 39.3369 26.6444L37.8421 25.3156C37.4651 25.7398 36.998 26.0756 36.4256 26.3209L37.2135 28.1591ZM39.3301 26.652C39.921 26.0007 40.358 25.2318 40.6482 24.3612L38.7508 23.7288C38.541 24.3582 38.238 24.8793 37.849 25.308L39.3301 26.652ZM40.6444 24.3725C40.9454 23.5041 41.0895 22.5668 41.0895 21.57H39.0895C39.0895 22.3732 38.9736 23.0859 38.7547 23.7175L40.6444 24.3725ZM41.0895 21.57V8.505H39.0895V21.57H41.0895ZM40.0895 9.505H42.9845V7.505H40.0895V9.505ZM41.9845 8.505V21.57H43.9845V8.505H41.9845ZM41.9845 21.57C41.9845 22.7008 41.8025 23.73 41.4489 24.6669L43.3201 25.3731C43.7666 24.19 43.9845 22.9192 43.9845 21.57H41.9845ZM41.446 24.6747C41.1006 25.6137 40.6058 26.4153 39.9641 27.0917L41.415 28.4683C42.2533 27.5847 42.8885 26.5463 43.323 25.3653L41.446 24.6747ZM39.9638 27.092C39.3378 27.7523 38.5625 28.2807 37.6212 28.6714L38.3879 30.5186C39.5666 30.0293 40.5812 29.3477 41.4152 28.468L39.9638 27.092ZM37.6212 28.6714C36.6995 29.054 35.6425 29.255 34.4345 29.255V31.255C35.8665 31.255 37.1895 31.016 38.3879 30.5186L37.6212 28.6714ZM34.4345 29.255C33.2265 29.255 32.1695 29.054 31.2479 28.6714L30.4812 30.5186C31.6795 31.016 33.0025 31.255 34.4345 31.255V29.255ZM31.2479 28.6714C30.3055 28.2802 29.5231 27.7505 28.8855 27.0871L27.4435 28.4729C28.2859 29.3495 29.3035 30.0298 30.4812 30.5186L31.2479 28.6714ZM28.89 27.0917C28.2465 26.4135 27.7457 25.6091 27.3901 24.6669L25.5189 25.3731C25.9634 26.5509 26.6025 27.5865 27.4391 28.4683L28.89 27.0917ZM27.393 24.6747C27.0475 23.7356 26.8695 22.7037 26.8695 21.57H24.8695C24.8695 22.9163 25.0816 24.1844 25.516 25.3653L27.393 24.6747ZM26.8695 21.57V8.505H24.8695V21.57H26.8695ZM25.8695 9.505H28.7645V7.505H25.8695V9.505ZM27.7645 8.505V21.555H29.7645V8.505H27.7645ZM27.7645 21.555C27.7645 22.5478 27.9025 23.4812 28.1908 24.3462L30.0882 23.7138C29.8765 23.0788 29.7645 22.3622 29.7645 21.555H27.7645ZM28.1947 24.3575C28.4935 25.2194 28.9266 25.9819 29.5021 26.6294L30.9969 25.3006C30.6125 24.8681 30.3056 24.3406 30.0844 23.7025L28.1947 24.3575ZM29.509 26.637C30.0974 27.2854 30.8085 27.7907 31.6296 28.1543L32.4395 26.3257C31.8605 26.0693 31.3817 25.7246 30.9901 25.293L29.509 26.637ZM31.6453 28.1611C32.496 28.5206 33.4313 28.69 34.4345 28.69V26.69C33.6577 26.69 32.993 26.5594 32.4237 26.3189L31.6453 28.1611ZM51.1101 30V31H52.1101V30H51.1101ZM48.2001 30H47.2001V31H48.2001V30ZM48.2001 8.505V7.505H47.2001V8.505H48.2001ZM51.1101 8.505H52.1101V7.505H51.1101V8.505ZM51.1101 29H48.2001V31H51.1101V29ZM49.2001 30V8.505H47.2001V30H49.2001ZM48.2001 9.505H51.1101V7.505H48.2001V9.505ZM50.1101 8.505V30H52.1101V8.505H50.1101ZM68.8033 27.555H69.8033V26.555H68.8033V27.555ZM68.8033 30V31H69.8033V30H68.8033ZM56.6083 30H55.6083V31H56.6083V30ZM56.6083 8.505V7.505H55.6083V8.505H56.6083ZM59.5033 8.505H60.5033V7.505H59.5033V8.505ZM59.5033 27.555H58.5033V28.555H59.5033V27.555ZM67.8033 27.555V30H69.8033V27.555H67.8033ZM68.8033 29H56.6083V31H68.8033V29ZM57.6083 30V8.505H55.6083V30H57.6083ZM56.6083 9.505H59.5033V7.505H56.6083V9.505ZM58.5033 8.505V27.555H60.5033V8.505H58.5033ZM59.5033 28.555H68.8033V26.555H59.5033V28.555ZM87.7234 27.045L87.0126 26.3417L87.0126 26.3417L87.7234 27.045ZM84.3634 29.235L84.7287 30.1659L84.7324 30.1645L84.3634 29.235ZM72.0184 30H71.0184V31H72.0184V30ZM72.0184 8.505V7.505H71.0184V8.505H72.0184ZM84.3634 9.285L83.992 10.2135L84.0006 10.2169L84.3634 9.285ZM87.7234 11.475L87.0088 12.1746L87.0126 12.1783L87.7234 11.475ZM89.8834 14.865L90.8162 14.5046L90.8162 14.5046L89.8834 14.865ZM85.5934 13.08L84.8563 13.7557L85.5934 13.08ZM83.1934 11.43L82.8186 12.3571L82.8186 12.3571L83.1934 11.43ZM74.9284 10.86V9.86H73.9284V10.86H74.9284ZM74.9284 27.645H73.9284V28.645H74.9284V27.645ZM83.1934 27.075L82.8186 26.1479L82.8186 26.1479L83.1934 27.075ZM85.5934 25.44L86.3259 26.1209L86.3306 26.1157L85.5934 25.44ZM87.1234 22.8L88.0684 23.1271L88.0684 23.1271L87.1234 22.8ZM89.6484 19.26C89.6484 20.7636 89.4105 22.1043 88.9506 23.2946L90.8162 24.0154C91.3763 22.5657 91.6484 20.9764 91.6484 19.26H89.6484ZM88.9506 23.2946C88.4867 24.4954 87.8391 25.5062 87.0126 26.3417L88.4343 27.7483C89.4678 26.7038 90.2602 25.4546 90.8162 24.0154L88.9506 23.2946ZM87.0126 26.3417C86.186 27.1771 85.1847 27.8331 83.9945 28.3055L84.7324 30.1645C86.1622 29.5969 87.4009 28.7929 88.4343 27.7483L87.0126 26.3417ZM83.9982 28.3041C82.8289 28.7628 81.5148 29 80.0434 29V31C81.7321 31 83.298 30.7272 84.7286 30.1659L83.9982 28.3041ZM80.0434 29H72.0184V31H80.0434V29ZM73.0184 30V8.505H71.0184V30H73.0184ZM72.0184 9.505H80.0434V7.505H72.0184V9.505ZM80.0434 9.505C81.5125 9.505 82.8244 9.74641 83.992 10.2135L84.7348 8.35652C83.3025 7.78359 81.7344 7.505 80.0434 7.505V9.505ZM84.0006 10.2169C85.186 10.6783 86.1839 11.3319 87.0088 12.1745L88.438 10.7755C87.4029 9.71811 86.1609 8.91167 84.7262 8.35313L84.0006 10.2169ZM87.0126 12.1783C87.8391 13.0138 88.4867 14.0246 88.9506 15.2254L90.8162 14.5046C90.2602 13.0654 89.4678 11.8162 88.4343 10.7717L87.0126 12.1783ZM88.9506 15.2254C89.4105 16.4157 89.6484 17.7564 89.6484 19.26H91.6484C91.6484 17.5436 91.3763 15.9543 90.8162 14.5046L88.9506 15.2254ZM88.6634 19.26C88.6634 17.8502 88.4713 16.5567 88.0684 15.3929L86.1785 16.0471C86.4956 16.9633 86.6634 18.0298 86.6634 19.26H88.6634ZM88.0684 15.3929C87.6694 14.2401 87.094 13.2371 86.3306 12.4043L84.8563 13.7557C85.4129 14.3629 85.8575 15.1199 86.1785 16.0471L88.0684 15.3929ZM86.3306 12.4043C85.5662 11.5703 84.6408 10.9365 83.5682 10.5029L82.8186 12.3571C83.6261 12.6835 84.3007 13.1497 84.8563 13.7557L86.3306 12.4043ZM83.5682 10.5029C82.4932 10.0683 81.3135 9.86 80.0434 9.86V11.86C81.0933 11.86 82.0136 12.0317 82.8186 12.3571L83.5682 10.5029ZM80.0434 9.86H74.9284V11.86H80.0434V9.86ZM73.9284 10.86V27.645H75.9284V10.86H73.9284ZM74.9284 28.645H80.0434V26.645H74.9284V28.645ZM80.0434 28.645C81.3135 28.645 82.4932 28.4367 83.5682 28.0021L82.8186 26.1479C82.0136 26.4733 81.0933 26.645 80.0434 26.645V28.645ZM83.5682 28.0021C84.6376 27.5698 85.5615 26.9431 86.3259 26.1208L84.861 24.7592C84.3053 25.3569 83.6292 25.8202 82.8186 26.1479L83.5682 28.0021ZM86.3306 26.1157C87.094 25.2829 87.6694 24.2799 88.0684 23.1271L86.1785 22.4729C85.8575 23.4001 85.4129 24.1571 84.8563 24.7643L86.3306 26.1157ZM88.0684 23.1271C88.4713 21.9633 88.6634 20.6698 88.6634 19.26H86.6634C86.6634 20.4902 86.4956 21.5567 86.1785 22.4729L88.0684 23.1271ZM97.7507 30V31H98.7507V30H97.7507ZM94.8407 30H93.8407V31H94.8407V30ZM94.8407 8.505V7.505H93.8407V8.505H94.8407ZM97.7507 8.505H98.7507V7.505H97.7507V8.505ZM97.7507 29H94.8407V31H97.7507V29ZM95.8407 30V8.505H93.8407V30H95.8407ZM94.8407 9.505H97.7507V7.505H94.8407V9.505ZM96.7507 8.505V30H98.7507V8.505H96.7507ZM120.664 8.505H121.664V7.505H120.664V8.505ZM120.664 30V31H121.664V30H120.664ZM118.624 29.88L118.153 30.7624L118.165 30.7685L118.177 30.7744L118.624 29.88ZM118.174 29.475L117.381 30.084L117.389 30.0946L118.174 29.475ZM105.739 13.275L106.532 12.6661L104.472 9.9826L104.742 13.3547L105.739 13.275ZM105.784 14.01L106.783 13.9684L106.783 13.9684L105.784 14.01ZM105.799 30V31H106.799V30H105.799ZM103.249 30H102.249V31H103.249V30ZM103.249 8.505V7.505H102.249V8.505H103.249ZM105.079 8.535L104.862 9.51119L104.915 9.52291L104.968 9.52888L105.079 8.535ZM105.319 8.61L104.823 9.47824L104.872 9.50662L104.925 9.52914L105.319 8.61ZM105.529 8.76L104.822 9.4671L104.849 9.49426L104.878 9.51926L105.529 8.76ZM105.754 9L106.547 8.39075L106.541 8.38297L106.535 8.3753L105.754 9ZM118.189 25.185L117.396 25.7942L119.444 28.4596L119.186 25.1083L118.189 25.185ZM118.129 24.435L117.13 24.475L117.131 24.4965L117.132 24.518L118.129 24.435ZM118.114 8.505V7.505H117.114V8.505H118.114ZM119.664 8.505V30H121.664V8.505H119.664ZM120.664 29H119.209V31H120.664V29ZM119.209 29C119.091 29 119.058 28.9792 119.071 28.9856L118.177 30.7744C118.509 30.9408 118.867 31 119.209 31V29ZM119.094 28.9976C119.103 29.0021 119.093 28.9985 119.068 28.9755C119.042 28.9524 119.005 28.9144 118.959 28.8554L117.389 30.0946C117.591 30.3504 117.841 30.596 118.153 30.7624L119.094 28.9976ZM118.967 28.8661L106.532 12.6661L104.946 13.8839L117.381 30.0839L118.967 28.8661ZM104.742 13.3547C104.761 13.5926 104.775 13.8249 104.785 14.0516L106.783 13.9684C106.772 13.7151 106.757 13.4574 106.736 13.1953L104.742 13.3547ZM104.785 14.0516C104.794 14.2797 104.799 14.4907 104.799 14.685H106.799C106.799 14.4593 106.794 14.2203 106.783 13.9684L104.785 14.0516ZM104.799 14.685V30H106.799V14.685H104.799ZM105.799 29H103.249V31H105.799V29ZM104.249 30V8.505H102.249V30H104.249ZM103.249 9.505H104.749V7.505H103.249V9.505ZM104.749 9.505C104.789 9.505 104.818 9.50656 104.838 9.50839C104.859 9.51026 104.866 9.51204 104.862 9.51119L105.296 7.55881C105.112 7.51801 104.925 7.505 104.749 7.505V9.505ZM104.968 9.52888C104.939 9.52565 104.885 9.51392 104.823 9.47824L105.815 7.74175C105.613 7.62608 105.398 7.56435 105.189 7.54112L104.968 9.52888ZM104.925 9.52914C104.849 9.49648 104.816 9.46139 104.822 9.4671L106.236 8.0529C106.102 7.91861 105.929 7.78352 105.713 7.69085L104.925 9.52914ZM104.878 9.51926C104.886 9.52632 104.918 9.55621 104.973 9.62469L106.535 8.3753C106.43 8.24379 106.311 8.11368 106.18 8.00074L104.878 9.51926ZM104.961 9.60925L117.396 25.7942L118.982 24.5758L106.547 8.39075L104.961 9.60925ZM119.186 25.1083C119.166 24.8464 119.146 24.5942 119.125 24.352L117.132 24.518C117.152 24.7558 117.172 25.0036 117.192 25.2617L119.186 25.1083ZM119.128 24.395C119.119 24.1566 119.114 23.935 119.114 23.73H117.114C117.114 23.965 117.119 24.2134 117.13 24.475L119.128 24.395ZM119.114 23.73V8.505H117.114V23.73H119.114ZM118.114 9.505H120.664V7.505H118.114V9.505ZM143.619 19.665H144.619V18.665H143.619V19.665ZM143.619 27.915L144.205 28.7257L144.619 28.4263V27.915H143.619ZM140.154 29.67L140.451 30.6248L140.456 30.6232L140.154 29.67ZM131.454 29.445L131.092 30.3771L131.098 30.3794L131.454 29.445ZM127.884 27.195L127.181 27.9058L127.188 27.9129L127.884 27.195ZM125.619 23.715L126.55 23.3496L126.55 23.3496L125.619 23.715ZM125.589 14.775L124.656 14.4155L124.654 14.4216L125.589 14.775ZM127.794 11.31L128.505 12.0134L128.508 12.0097L127.794 11.31ZM131.259 9.06L131.622 9.99175L131.622 9.99175L131.259 9.06ZM138.189 8.46L138.014 9.4446L138.027 9.44676L138.189 8.46ZM140.214 9L139.853 9.93266L139.866 9.93756L140.214 9ZM141.939 9.855L141.399 10.6968L141.411 10.7039L141.939 9.855ZM143.424 10.98L144.272 11.51L144.714 10.8034L144.098 10.2415L143.424 10.98ZM142.599 12.3L143.438 12.845L143.442 12.8375L143.447 12.83L142.599 12.3ZM142.089 12.69L142.332 13.6601L142.348 13.6561L142.364 13.6515L142.089 12.69ZM141.414 12.54L141.929 11.6824L141.918 11.6762L141.414 12.54ZM140.589 12.03L141.131 11.1897L141.131 11.1897L140.589 12.03ZM139.449 11.46L139.053 12.3781L139.065 12.3834L139.078 12.3885L139.449 11.46ZM137.874 10.98L137.662 11.9573L137.666 11.958L137.874 10.98ZM132.444 11.385L132.814 12.3142L132.822 12.3108L132.444 11.385ZM129.939 13.08L130.666 13.7669L130.67 13.762L129.939 13.08ZM128.349 15.75L129.291 16.0852L129.292 16.0823L128.349 15.75ZM128.364 22.89L127.422 23.2247L127.426 23.2353L128.364 22.89ZM130.014 25.605L129.288 26.2925L129.297 26.3024L130.014 25.605ZM138.714 27.555L138.989 28.5166L138.997 28.5142L138.714 27.555ZM140.994 26.61L141.47 27.4897L141.994 27.2062V26.61H140.994ZM140.994 21.885H141.994V20.885H140.994V21.885ZM137.184 21.72L136.477 22.4271L136.492 22.4425L136.508 22.4572L137.184 21.72ZM137.019 19.665V18.665H136.019V19.665H137.019ZM142.619 19.665V27.915H144.619V19.665H142.619ZM143.034 27.1043C142.037 27.8241 140.977 28.36 139.852 28.7168L140.456 30.6232C141.791 30.2 143.041 29.5659 144.205 28.7257L143.034 27.1043ZM139.857 28.7152C138.746 29.0613 137.507 29.24 136.134 29.24V31.24C137.681 31.24 139.123 31.0387 140.451 30.6248L139.857 28.7152ZM136.134 29.24C134.506 29.24 133.07 28.9908 131.81 28.5106L131.098 30.3794C132.618 30.9592 134.302 31.24 136.134 31.24V29.24ZM131.816 28.5129C130.54 28.0173 129.467 27.3367 128.58 26.4771L127.188 27.9129C128.281 28.9733 129.588 29.7927 131.092 30.3771L131.816 28.5129ZM128.588 26.4843C127.712 25.6173 127.032 24.5767 126.55 23.3496L124.688 24.0804C125.266 25.5533 126.096 26.8327 127.181 27.9057L128.588 26.4843ZM126.55 23.3496C126.071 22.1288 125.824 20.7695 125.824 19.26H123.824C123.824 20.9905 124.107 22.6012 124.688 24.0804L126.55 23.3496ZM125.824 19.26C125.824 17.7244 126.063 16.3511 126.525 15.1284L124.654 14.4216C124.096 15.8988 123.824 17.5156 123.824 19.26H125.824ZM126.522 15.1344C126.996 13.9039 127.659 12.8685 128.505 12.0134L127.083 10.6066C126.029 11.6715 125.222 12.9461 124.656 14.4156L126.522 15.1344ZM128.508 12.0097C129.352 11.1486 130.384 10.4741 131.622 9.99175L130.896 8.12825C129.414 8.70586 128.136 9.53144 127.08 10.6103L128.508 12.0097ZM131.622 9.99175C132.85 9.51312 134.245 9.265 135.819 9.265V7.265C134.033 7.265 132.388 7.54687 130.896 8.12825L131.622 9.99175ZM135.819 9.265C136.619 9.265 137.349 9.32618 138.014 9.44451L138.364 7.47549C137.569 7.33382 136.72 7.265 135.819 7.265V9.265ZM138.027 9.44676C138.696 9.55682 139.304 9.72003 139.853 9.93257L140.575 8.06743C139.884 7.79997 139.142 7.60318 138.351 7.47324L138.027 9.44676ZM139.866 9.93756C140.422 10.1438 140.932 10.3973 141.399 10.6967L142.479 9.01331C141.886 8.63265 141.246 8.31615 140.562 8.06243L139.866 9.93756ZM141.411 10.7039C141.889 11.0017 142.335 11.3398 142.75 11.7185L144.098 10.2415C143.593 9.78024 143.049 9.3683 142.468 9.0061L141.411 10.7039ZM142.576 10.45L141.751 11.77L143.447 12.83L144.272 11.51L142.576 10.45ZM141.761 11.755C141.751 11.7702 141.751 11.7649 141.767 11.7531C141.774 11.7476 141.782 11.7421 141.792 11.7374C141.801 11.7328 141.809 11.73 141.814 11.7285L142.364 13.6515C142.828 13.5189 143.189 13.2272 143.438 12.845L141.761 11.755ZM141.847 11.7199C141.878 11.7119 141.908 11.7087 141.934 11.7087C141.96 11.7087 141.978 11.7118 141.987 11.7138C142.003 11.7174 141.985 11.7162 141.929 11.6825L140.9 13.3975C141.282 13.6268 141.784 13.7972 142.332 13.6601L141.847 11.7199ZM141.918 11.6762C141.694 11.5457 141.432 11.384 141.131 11.1897L140.047 12.8703C140.366 13.076 140.654 13.2543 140.91 13.4038L141.918 11.6762ZM141.131 11.1897C140.754 10.946 140.313 10.7284 139.82 10.5315L139.078 12.3885C139.485 12.5516 139.805 12.714 140.047 12.8703L141.131 11.1897ZM139.846 10.5419C139.33 10.3194 138.739 10.1418 138.082 10.002L137.666 11.958C138.229 12.0782 138.688 12.2206 139.053 12.3781L139.846 10.5419ZM138.086 10.0027C137.397 9.85339 136.607 9.785 135.729 9.785V11.785C136.511 11.785 137.151 11.8466 137.662 11.9573L138.086 10.0027ZM135.729 9.785C134.408 9.785 133.182 10.0037 132.066 10.4592L132.822 12.3108C133.666 11.9663 134.63 11.785 135.729 11.785V9.785ZM132.074 10.4559C130.963 10.8981 130.003 11.5453 129.208 12.398L130.67 13.762C131.255 13.1347 131.965 12.6519 132.814 12.3141L132.074 10.4559ZM129.212 12.3931C128.416 13.2353 127.817 14.25 127.406 15.4176L129.292 16.0823C129.621 15.15 130.082 14.3847 130.666 13.7669L129.212 12.3931ZM127.407 15.4148C126.993 16.5796 126.794 17.8656 126.794 19.26H128.794C128.794 18.0544 128.966 17.0004 129.291 16.0852L127.407 15.4148ZM126.794 19.26C126.794 20.703 126.997 22.0291 127.422 23.2247L129.306 22.5553C128.971 21.6109 128.794 20.517 128.794 19.26H126.794ZM127.426 23.2353C127.858 24.4106 128.476 25.4351 129.288 26.2925L130.74 24.9175C130.132 24.2749 129.65 23.4894 129.303 22.5447L127.426 23.2353ZM129.297 26.3024C130.124 27.1524 131.119 27.7952 132.267 28.2341L132.981 26.3659C132.089 26.0248 131.344 25.5376 130.731 24.9076L129.297 26.3024ZM132.267 28.2341C133.418 28.6741 134.687 28.885 136.059 28.885V26.885C134.892 26.885 133.87 26.7059 132.981 26.3659L132.267 28.2341ZM136.059 28.885C137.13 28.885 138.11 28.7675 138.989 28.5165L138.439 26.5935C137.778 26.7825 136.988 26.885 136.059 26.885V28.885ZM138.997 28.5142C139.846 28.2638 140.67 27.9217 141.47 27.4897L140.519 25.7303C139.838 26.0983 139.142 26.3862 138.431 26.5958L138.997 28.5142ZM141.994 26.61V21.885H139.994V26.61H141.994ZM140.994 20.885H137.649V22.885H140.994V20.885ZM137.649 20.885C137.651 20.885 137.68 20.8853 137.725 20.9013C137.772 20.9182 137.82 20.9463 137.86 20.9828L136.508 22.4572C136.843 22.7641 137.253 22.885 137.649 22.885V20.885ZM137.891 21.0129C137.924 21.0457 137.96 21.0949 137.986 21.159C138.012 21.2225 138.019 21.2783 138.019 21.315H136.019C136.019 21.7318 136.174 22.1237 136.477 22.4271L137.891 21.0129ZM138.019 21.315V19.665H136.019V21.315H138.019ZM137.019 20.665H143.619V18.665H137.019V20.665ZM169.376 10.95V11.95H170.376V10.95H169.376ZM162.416 10.95V9.95H161.416V10.95H162.416ZM162.416 30V31H163.416V30H162.416ZM159.521 30H158.521V31H159.521V30ZM159.521 10.95H160.521V9.95H159.521V10.95ZM152.546 10.95H151.546V11.95H152.546V10.95ZM152.546 8.505V7.505H151.546V8.505H152.546ZM169.376 8.505H170.376V7.505H169.376V8.505ZM169.376 9.95H162.416V11.95H169.376V9.95ZM161.416 10.95V30H163.416V10.95H161.416ZM162.416 29H159.521V31H162.416V29ZM160.521 30V10.95H158.521V30H160.521ZM159.521 9.95H152.546V11.95H159.521V9.95ZM153.546 10.95V8.505H151.546V10.95H153.546ZM152.546 9.505H169.376V7.505H152.546V9.505ZM168.376 8.505V10.95H170.376V8.505H168.376ZM189.98 8.505H190.98V7.505H189.98V8.505ZM189.98 30V31H190.98V30H189.98ZM187.07 30H186.07V31H187.07V30ZM187.07 20.22H188.07V19.22H187.07V20.22ZM175.475 20.22V19.22H174.475V20.22H175.475ZM175.475 30V31H176.475V30H175.475ZM172.565 30H171.565V31H172.565V30ZM172.565 8.505V7.505H171.565V8.505H172.565ZM175.475 8.505H176.475V7.505H175.475V8.505ZM175.475 18.09H174.475V19.09H175.475V18.09ZM187.07 18.09V19.09H188.07V18.09H187.07ZM187.07 8.505V7.505H186.07V8.505H187.07ZM188.98 8.505V30H190.98V8.505H188.98ZM189.98 29H187.07V31H189.98V29ZM188.07 30V20.22H186.07V30H188.07ZM187.07 19.22H175.475V21.22H187.07V19.22ZM174.475 20.22V30H176.475V20.22H174.475ZM175.475 29H172.565V31H175.475V29ZM173.565 30V8.505H171.565V30H173.565ZM172.565 9.505H175.475V7.505H172.565V9.505ZM174.475 8.505V18.09H176.475V8.505H174.475ZM175.475 19.09H187.07V17.09H175.475V19.09ZM188.07 18.09V8.505H186.07V18.09H188.07ZM187.07 9.505H189.98V7.505H187.07V9.505ZM208.735 27.63L209.735 27.6363L209.742 26.63H208.735V27.63ZM208.72 30V31H209.714L209.72 30.0063L208.72 30ZM195.475 30H194.475V31H195.475V30ZM195.475 8.505V7.505H194.475V8.505H195.475ZM208.72 8.505H209.72V7.505H208.72V8.505ZM208.72 10.875V11.875H209.72V10.875H208.72ZM198.385 10.875V9.875H197.385V10.875H198.385ZM198.385 18.015H197.385V19.015H198.385V18.015ZM206.755 18.015H207.755V17.015H206.755V18.015ZM206.755 20.295V21.295H207.755V20.295H206.755ZM198.385 20.295V19.295H197.385V20.295H198.385ZM198.385 27.63H197.385V28.63H198.385V27.63ZM207.735 27.6237L207.72 29.9937L209.72 30.0063L209.735 27.6363L207.735 27.6237ZM208.72 29H195.475V31H208.72V29ZM196.475 30V8.505H194.475V30H196.475ZM195.475 9.505H208.72V7.505H195.475V9.505ZM207.72 8.505V10.875H209.72V8.505H207.72ZM208.72 9.875H198.385V11.875H208.72V9.875ZM197.385 10.875V18.015H199.385V10.875H197.385ZM198.385 19.015H206.755V17.015H198.385V19.015ZM205.755 18.015V20.295H207.755V18.015H205.755ZM206.755 19.295H198.385V21.295H206.755V19.295ZM197.385 20.295V27.63H199.385V20.295H197.385ZM198.385 28.63H208.735V26.63H198.385V28.63ZM229.001 19.32L228.676 18.3743L228.671 18.3759L229.001 19.32ZM230.606 18.405L231.278 19.1457L231.278 19.1449L230.606 18.405ZM231.596 16.98L232.524 17.3514L232.524 17.3514L231.596 16.98ZM230.651 11.955L229.975 12.6922L229.979 12.6961L230.651 11.955ZM223.361 10.8V9.8H222.361V10.8H223.361ZM223.361 19.65H222.361V20.65H223.361V19.65ZM230.351 8.985L230.046 9.93749L230.057 9.94098L230.351 8.985ZM232.856 10.32L232.196 11.0712L232.196 11.0712L232.856 10.32ZM234.326 12.42L233.394 12.7836L233.398 12.7933L234.326 12.42ZM234.296 17.91L233.374 17.5214L233.374 17.5214L234.296 17.91ZM232.751 20.055L232.089 19.3051L232.084 19.31L232.751 20.055ZM230.246 21.465L230.562 22.4137L230.568 22.4118L230.246 21.465ZM223.361 21.96V20.96H222.361V21.96H223.361ZM223.361 30V31H224.361V30H223.361ZM220.466 30H219.466V31H220.466V30ZM220.466 8.505V7.505H219.466V8.505H220.466ZM226.811 20.65C227.727 20.65 228.572 20.5289 229.33 20.2641L228.671 18.3759C228.169 18.5511 227.555 18.65 226.811 18.65V20.65ZM229.326 20.2657C230.073 20.0088 230.732 19.6407 231.278 19.1457L229.934 17.6643C229.62 17.9493 229.208 18.1912 228.676 18.3743L229.326 20.2657ZM231.278 19.1449C231.83 18.6435 232.248 18.0426 232.524 17.3514L230.667 16.6086C230.504 17.0174 230.261 17.3665 229.933 17.6651L231.278 19.1449ZM232.524 17.3514C232.797 16.6705 232.926 15.9377 232.926 15.165H230.926C230.926 15.7123 230.835 16.1895 230.667 16.6086L232.524 17.3514ZM232.926 15.165C232.926 13.5725 232.422 12.2102 231.322 11.2139L229.979 12.6961C230.58 13.2398 230.926 14.0175 230.926 15.165H232.926ZM231.326 11.2178C230.227 10.2104 228.657 9.8 226.811 9.8V11.8C228.405 11.8 229.394 12.1596 229.975 12.6922L231.326 11.2178ZM226.811 9.8H223.361V11.8H226.811V9.8ZM222.361 10.8V19.65H224.361V10.8H222.361ZM223.361 20.65H226.811V18.65H223.361V20.65ZM226.811 9.505C228.096 9.505 229.169 9.65668 230.046 9.93742L230.655 8.03258C229.533 7.67332 228.245 7.505 226.811 7.505V9.505ZM230.057 9.94098C230.959 10.2177 231.661 10.6016 232.196 11.0712L233.516 9.56883C232.73 8.87842 231.763 8.3723 230.644 8.02902L230.057 9.94098ZM232.196 11.0712C232.735 11.5453 233.132 12.1123 233.394 12.7835L235.257 12.0565C234.879 11.0877 234.296 10.2547 233.516 9.56883L232.196 11.0712ZM233.398 12.7933C233.674 13.479 233.821 14.2648 233.821 15.165H235.821C235.821 14.0452 235.637 13.001 235.253 12.0467L233.398 12.7933ZM233.821 15.165C233.821 16.0463 233.667 16.8273 233.374 17.5214L235.217 18.2986C235.624 17.3327 235.821 16.2837 235.821 15.165H233.821ZM233.374 17.5214C233.083 18.2121 232.657 18.8039 232.089 19.3052L233.412 20.8048C234.204 20.1061 234.808 19.2679 235.217 18.2986L233.374 17.5214ZM232.084 19.31C231.53 19.806 230.818 20.2141 229.924 20.5182L230.568 22.4118C231.673 22.0359 232.632 21.504 233.418 20.7999L232.084 19.31ZM229.929 20.5163C229.063 20.8052 228.029 20.96 226.811 20.96V22.96C228.193 22.96 229.448 22.7848 230.562 22.4137L229.929 20.5163ZM226.811 20.96H223.361V22.96H226.811V20.96ZM222.361 21.96V30H224.361V21.96H222.361ZM223.361 29H220.466V31H223.361V29ZM221.466 30V8.505H219.466V30H221.466ZM220.466 9.505H226.811V7.505H220.466V9.505ZM246.658 18.615L246.957 19.5695L246.966 19.5666L246.658 18.615ZM248.278 17.745L248.931 18.503L248.932 18.5018L248.278 17.745ZM249.268 16.395L250.189 16.7846L250.189 16.7846L249.268 16.395ZM248.338 11.775L247.726 12.5659L247.726 12.5659L248.338 11.775ZM241.378 10.8V9.8H240.378V10.8H241.378ZM241.378 18.915H240.378V19.915H241.378V18.915ZM254.368 30V31H256.344L255.174 29.408L254.368 30ZM250.618 29.385L251.472 28.8644L251.451 28.8299L251.427 28.7972L250.618 29.385ZM245.038 21.705L244.222 22.2831L244.229 22.2928L245.038 21.705ZM244.483 21.195L243.982 22.0604L244.009 22.0757L244.036 22.0894L244.483 21.195ZM241.378 21.03V20.03H240.378V21.03H241.378ZM241.378 30V31H242.378V30H241.378ZM238.483 30H237.483V31H238.483V30ZM238.483 8.505V7.505H237.483V8.505H238.483ZM248.083 8.925L247.811 9.8873L247.82 9.88976L248.083 8.925ZM250.528 10.11L249.898 10.8861L249.904 10.8909L250.528 10.11ZM251.968 12L251.046 12.3864L251.048 12.3909L251.968 12ZM252.073 16.59L253.013 16.9317L253.013 16.9317L252.073 16.59ZM251.023 18.375L250.268 17.7195L250.267 17.7206L251.023 18.375ZM249.358 19.71L248.869 18.8377L248.864 18.8409L249.358 19.71ZM247.138 20.55L246.915 19.5752L244.407 20.1494L246.645 21.4197L247.138 20.55ZM248.098 21.465L247.269 22.0245L247.281 22.041L247.292 22.057L248.098 21.465ZM244.438 19.915C245.355 19.915 246.199 19.8062 246.957 19.5695L246.36 17.6605C245.837 17.8238 245.202 17.915 244.438 17.915V19.915ZM246.966 19.5666C247.717 19.3238 248.381 18.9756 248.931 18.503L247.626 16.987C247.315 17.2544 246.899 17.4862 246.351 17.6634L246.966 19.5666ZM248.932 18.5018C249.484 18.0246 249.908 17.4502 250.189 16.7846L248.347 16.0054C248.189 16.3798 247.952 16.7054 247.625 16.9882L248.932 18.5018ZM250.189 16.7846C250.467 16.1278 250.598 15.4183 250.598 14.67H248.598C248.598 15.1817 248.509 15.6222 248.347 16.0054L250.189 16.7846ZM250.598 14.67C250.598 13.1514 250.086 11.863 248.95 10.9841L247.726 12.5659C248.27 12.987 248.598 13.6286 248.598 14.67H250.598ZM248.95 10.9841C247.859 10.1398 246.339 9.8 244.558 9.8V11.8C246.137 11.8 247.137 12.1102 247.726 12.5659L248.95 10.9841ZM244.558 9.8H241.378V11.8H244.558V9.8ZM240.378 10.8V18.915H242.378V10.8H240.378ZM241.378 19.915H244.438V17.915H241.378V19.915ZM254.368 29H251.788V31H254.368V29ZM251.788 29C251.653 29 251.589 28.9743 251.564 28.9611C251.543 28.9502 251.512 28.9293 251.472 28.8644L249.764 29.9056C250.218 30.6486 250.953 31 251.788 31V29ZM251.427 28.7972L245.847 21.1172L244.229 22.2928L249.809 29.9728L251.427 28.7972ZM245.854 21.127C245.618 20.7936 245.317 20.4936 244.93 20.3006L244.036 22.0894C244.05 22.0964 244.118 22.1364 244.222 22.283L245.854 21.127ZM244.984 20.3296C244.56 20.0839 244.041 20.03 243.583 20.03V22.03C243.747 22.03 243.861 22.0412 243.935 22.0549C244.013 22.0691 244.017 22.0805 243.982 22.0604L244.984 20.3296ZM243.583 20.03H241.378V22.03H243.583V20.03ZM240.378 21.03V30H242.378V21.03H240.378ZM241.378 29H238.483V31H241.378V29ZM239.483 30V8.505H237.483V30H239.483ZM238.483 9.505H244.558V7.505H238.483V9.505ZM244.558 9.505C245.854 9.505 246.933 9.63885 247.811 9.88725L248.355 7.96274C247.254 7.65115 245.983 7.505 244.558 7.505V9.505ZM247.82 9.88976C248.708 10.1318 249.389 10.4726 249.898 10.8861L251.159 9.33388C250.388 8.70744 249.439 8.25817 248.346 7.96023L247.82 9.88976ZM249.904 10.8909C250.428 11.3104 250.803 11.8066 251.046 12.3864L252.891 11.6136C252.513 10.7134 251.929 9.94958 251.153 9.32913L249.904 10.8909ZM251.048 12.3909C251.298 12.9804 251.433 13.6647 251.433 14.46H253.433C253.433 13.4353 253.258 12.4796 252.889 11.6091L251.048 12.3909ZM251.433 14.46C251.433 15.113 251.331 15.7065 251.133 16.2483L253.013 16.9317C253.296 16.1535 253.433 15.327 253.433 14.46H251.433ZM251.133 16.2483C250.935 16.7934 250.648 17.282 250.268 17.7195L251.779 19.0305C252.319 18.408 252.731 17.7066 253.013 16.9317L251.133 16.2483ZM250.267 17.7206C249.9 18.1447 249.438 18.5187 248.869 18.8377L249.847 20.5823C250.598 20.1613 251.246 19.6453 251.779 19.0294L250.267 17.7206ZM248.864 18.8409C248.309 19.1565 247.663 19.404 246.915 19.5752L247.361 21.5248C248.274 21.316 249.107 21.0035 249.853 20.5791L248.864 18.8409ZM246.645 21.4197C246.863 21.5439 247.074 21.7351 247.269 22.0245L248.927 20.9055C248.582 20.3949 248.153 19.9761 247.632 19.6803L246.645 21.4197ZM247.292 22.057L253.562 30.592L255.174 29.408L248.904 20.873L247.292 22.057ZM276.182 23.7L277.116 24.0557L277.117 24.0534L276.182 23.7ZM274.022 27.165L273.3 26.4729L273.3 26.4729L274.022 27.165ZM270.662 29.43L271.039 30.356L271.043 30.3545L270.662 29.43ZM262.022 29.43L261.638 30.3535L261.644 30.356L262.022 29.43ZM258.677 27.165L257.955 27.8571L257.955 27.8571L258.677 27.165ZM256.517 23.7L255.581 24.0534L255.582 24.0557L256.517 23.7ZM256.517 14.835L257.451 15.1907L257.452 15.1884L256.517 14.835ZM258.677 11.355L259.399 12.0471L259.402 12.0434L258.677 11.355ZM270.662 9.075L270.278 9.9985L270.281 9.99953L270.662 9.075ZM274.022 11.355L273.296 12.0434L273.3 12.0471L274.022 11.355ZM276.182 14.835L275.246 15.1884L275.247 15.1907L276.182 14.835ZM271.892 13.05L271.15 13.7207L271.155 13.7257L271.892 13.05ZM269.492 11.37L269.875 10.4463L269.875 10.4463L269.492 11.37ZM263.207 11.37L262.824 10.4463L262.824 10.4463L263.207 11.37ZM260.792 13.05L260.055 12.3738L260.055 12.3743L260.792 13.05ZM259.262 15.705L258.316 15.3807L258.316 15.3807L259.262 15.705ZM259.262 22.815L258.316 23.1393L258.317 23.1421L259.262 22.815ZM260.792 25.47L260.05 26.1406L260.055 26.146L260.06 26.1512L260.792 25.47ZM263.207 27.135L262.824 28.0587L262.832 28.0621L263.207 27.135ZM269.492 27.135L269.867 28.0621L269.875 28.0587L269.492 27.135ZM271.892 25.47L272.629 26.1457L272.634 26.1406L271.892 25.47ZM273.422 22.815L274.367 23.1421L274.368 23.1393L273.422 22.815ZM275.947 19.26C275.947 20.7632 275.709 22.1218 275.246 23.3466L277.117 24.0534C277.675 22.5782 277.947 20.9768 277.947 19.26H275.947ZM275.247 23.3443C274.782 24.5675 274.131 25.606 273.3 26.4729L274.744 27.8571C275.772 26.784 276.562 25.5125 277.116 24.0557L275.247 23.3443ZM273.3 26.4729C272.471 27.3372 271.469 28.0155 270.281 28.5055L271.043 30.3545C272.474 29.7645 273.712 28.9328 274.744 27.8571L273.3 26.4729ZM270.284 28.504C269.118 28.9794 267.809 29.225 266.342 29.225V31.225C268.035 31.225 269.605 30.9406 271.039 30.356L270.284 28.504ZM266.342 29.225C264.875 29.225 263.565 28.9794 262.399 28.504L261.644 30.356C263.078 30.9406 264.649 31.225 266.342 31.225V29.225ZM262.405 28.5065C261.227 28.0169 260.229 27.3385 259.399 26.4729L257.955 27.8571C258.985 28.9315 260.217 29.7631 261.638 30.3535L262.405 28.5065ZM259.399 26.4729C258.567 25.606 257.917 24.5675 257.451 23.3443L255.582 24.0557C256.137 25.5125 256.926 26.784 257.955 27.8571L259.399 26.4729ZM257.452 23.3466C256.99 22.1218 256.752 20.7632 256.752 19.26H254.752C254.752 20.9768 255.024 22.5782 255.581 24.0534L257.452 23.3466ZM256.752 19.26C256.752 17.7567 256.99 16.404 257.451 15.1907L255.582 14.4793C255.024 15.946 254.752 17.5433 254.752 19.26H256.752ZM257.452 15.1884C257.918 13.9551 258.569 12.9127 259.399 12.0471L257.955 10.6629C256.925 11.7373 256.135 13.0149 255.581 14.4816L257.452 15.1884ZM259.402 12.0434C260.232 11.169 261.229 10.4872 262.405 9.9985L261.638 8.1515C260.215 8.74283 258.982 9.58097 257.951 10.6666L259.402 12.0434ZM262.405 9.9985C263.57 9.51483 264.877 9.265 266.342 9.265V7.265C264.646 7.265 263.074 7.55517 261.638 8.1515L262.405 9.9985ZM266.342 9.265C267.806 9.265 269.114 9.51483 270.278 9.9985L271.045 8.1515C269.61 7.55517 268.037 7.265 266.342 7.265V9.265ZM270.281 9.99953C271.467 10.4886 272.468 11.1704 273.296 12.0434L274.747 10.6666C273.716 9.57961 272.477 8.74142 271.043 8.15047L270.281 9.99953ZM273.3 12.0471C274.13 12.9127 274.78 13.9551 275.246 15.1884L277.117 14.4816C276.563 13.0149 275.774 11.7373 274.744 10.6629L273.3 12.0471ZM275.247 15.1907C275.709 16.404 275.947 17.7567 275.947 19.26H277.947C277.947 17.5433 277.675 15.946 277.116 14.4793L275.247 15.1907ZM274.962 19.26C274.962 17.85 274.77 16.5527 274.368 15.3807L272.476 16.0293C272.794 16.9573 272.962 18.03 272.962 19.26H274.962ZM274.368 15.3807C273.969 14.2181 273.394 13.2087 272.629 12.3743L271.155 13.7257C271.71 14.3313 272.154 15.0919 272.476 16.0293L274.368 15.3807ZM272.634 12.3794C271.871 11.5357 270.947 10.8911 269.875 10.4463L269.109 12.2937C269.917 12.6289 270.593 13.1043 271.15 13.7206L272.634 12.3794ZM269.875 10.4463C268.798 9.99938 267.615 9.785 266.342 9.785V11.785C267.389 11.785 268.306 11.9606 269.109 12.2937L269.875 10.4463ZM266.342 9.785C265.077 9.785 263.9 9.9998 262.824 10.4463L263.59 12.2937C264.394 11.9602 265.306 11.785 266.342 11.785V9.785ZM262.824 10.4463C261.753 10.8906 260.826 11.5336 260.055 12.3738L261.529 13.7262C262.097 13.1064 262.781 12.6294 263.59 12.2937L262.824 10.4463ZM260.055 12.3743C259.29 13.2087 258.714 14.2181 258.316 15.3807L260.208 16.0293C260.529 15.0919 260.974 14.3313 261.529 13.7257L260.055 12.3743ZM258.316 15.3807C257.914 16.5527 257.722 17.85 257.722 19.26H259.722C259.722 18.03 259.89 16.9573 260.208 16.0293L258.316 15.3807ZM257.722 19.26C257.722 20.67 257.914 21.9673 258.316 23.1393L260.208 22.4907C259.89 21.5627 259.722 20.49 259.722 19.26H257.722ZM258.317 23.1421C258.716 24.2941 259.29 25.2998 260.05 26.1406L261.534 24.7994C260.974 24.1802 260.528 23.4159 260.207 22.4879L258.317 23.1421ZM260.06 26.1512C260.831 26.9798 261.756 27.6157 262.824 28.0587L263.59 26.2113C262.778 25.8743 262.093 25.4002 261.524 24.7888L260.06 26.1512ZM262.832 28.0621C263.906 28.4963 265.08 28.705 266.342 28.705V26.705C265.303 26.705 264.388 26.5337 263.582 26.2079L262.832 28.0621ZM266.342 28.705C267.612 28.705 268.792 28.4967 269.867 28.0621L269.117 26.2079C268.312 26.5333 267.392 26.705 266.342 26.705V28.705ZM269.875 28.0587C270.944 27.6152 271.866 26.9777 272.629 26.1457L271.155 24.7943C270.597 25.4023 269.92 25.8748 269.109 26.2113L269.875 28.0587ZM272.634 26.1406C273.394 25.2998 273.968 24.2941 274.367 23.1421L272.477 22.4879C272.156 23.4159 271.71 24.1802 271.15 24.7994L272.634 26.1406ZM274.368 23.1393C274.77 21.9673 274.962 20.67 274.962 19.26H272.962C272.962 20.49 272.794 21.5627 272.476 22.4907L274.368 23.1393ZM286.986 25.8L286.033 25.4989L286.03 25.508L286.986 25.8ZM285.681 28.215L284.93 27.5549L284.929 27.5557L285.681 28.215ZM283.566 29.715L283.951 30.6381L283.951 30.6381L283.566 29.715ZM277.641 29.82L276.644 29.7512L276.587 30.5697L277.379 30.785L277.641 29.82ZM277.716 28.965L278.711 29.0715L278.711 29.0679L277.716 28.965ZM277.791 28.11L276.798 27.9932L276.795 28.0159L276.794 28.0388L277.791 28.11ZM277.971 27.705L277.264 26.9979L277.264 26.9979L277.971 27.705ZM279.171 27.675L278.875 28.6301L278.884 28.6328L279.171 27.675ZM282.141 27.51L281.782 26.5767L281.782 26.5767L282.141 27.51ZM283.446 26.58L282.678 25.9398L282.678 25.9398L283.446 26.58ZM284.241 24.975L283.28 24.6983L283.278 24.7081L284.241 24.975ZM284.526 8.505V7.505H283.526V8.505H284.526ZM287.436 8.505H288.436V7.505H287.436V8.505ZM286.436 22.575C286.436 23.693 286.296 24.6638 286.033 25.4989L287.94 26.1011C288.276 25.0362 288.436 23.857 288.436 22.575H286.436ZM286.03 25.508C285.776 26.3399 285.405 27.0147 284.93 27.5549L286.432 28.8751C287.118 28.0953 287.617 27.1601 287.943 26.092L286.03 25.508ZM284.929 27.5557C284.465 28.0848 283.888 28.4975 283.182 28.7919L283.951 30.6381C284.924 30.2325 285.757 29.6452 286.433 28.8743L284.929 27.5557ZM283.182 28.7919C282.485 29.0822 281.655 29.24 280.671 29.24V31.24C281.868 31.24 282.967 31.0478 283.951 30.6381L283.182 28.7919ZM280.671 29.24C279.776 29.24 278.855 29.1136 277.904 28.855L277.379 30.785C278.488 31.0864 279.586 31.24 280.671 31.24V29.24ZM278.639 29.8888C278.658 29.611 278.682 29.3386 278.711 29.0715L276.722 28.8585C276.691 29.1514 276.664 29.449 276.644 29.7512L278.639 29.8888ZM278.711 29.0679C278.742 28.7678 278.768 28.4722 278.789 28.1812L276.794 28.0388C276.775 28.3078 276.751 28.5822 276.722 28.8621L278.711 29.0679ZM278.784 28.2268C278.784 28.2262 278.782 28.2498 278.765 28.2874C278.747 28.327 278.719 28.3715 278.678 28.4121L277.264 26.9979C276.974 27.2883 276.839 27.6483 276.798 27.9932L278.784 28.2268ZM278.678 28.4121C278.611 28.4793 278.541 28.5142 278.494 28.5299C278.451 28.5441 278.437 28.54 278.466 28.54V26.54C278.092 26.54 277.628 26.6342 277.264 26.9979L278.678 28.4121ZM278.466 28.54C278.5 28.54 278.625 28.5524 278.875 28.6301L279.468 26.7199C279.138 26.6176 278.792 26.54 278.466 26.54V28.54ZM278.884 28.6328C279.316 28.7623 279.825 28.81 280.371 28.81V26.81C279.918 26.81 279.627 26.7677 279.459 26.7172L278.884 28.6328ZM280.371 28.81C281.132 28.81 281.847 28.6947 282.5 28.4433L281.782 26.5767C281.396 26.7253 280.931 26.81 280.371 26.81V28.81ZM282.5 28.4433C283.176 28.1833 283.753 27.7738 284.214 27.2202L282.678 25.9398C282.439 26.2262 282.146 26.4367 281.782 26.5767L282.5 28.4433ZM284.214 27.2202C284.674 26.6687 284.996 25.9976 285.205 25.2419L283.278 24.7081C283.127 25.2524 282.918 25.6513 282.678 25.9398L284.214 27.2202ZM285.202 25.2516C285.425 24.4788 285.526 23.6014 285.526 22.635H283.526C283.526 23.4686 283.438 24.1512 283.28 24.6984L285.202 25.2516ZM285.526 22.635V8.505H283.526V22.635H285.526ZM284.526 9.505H287.436V7.505H284.526V9.505ZM286.436 8.505V22.575H288.436V8.505H286.436ZM305.972 27.63L306.972 27.6363L306.978 26.63H305.972V27.63ZM305.957 30V31H306.95L306.957 30.0063L305.957 30ZM292.712 30H291.712V31H292.712V30ZM292.712 8.505V7.505H291.712V8.505H292.712ZM305.957 8.505H306.957V7.505H305.957V8.505ZM305.957 10.875V11.875H306.957V10.875H305.957ZM295.622 10.875V9.875H294.622V10.875H295.622ZM295.622 18.015H294.622V19.015H295.622V18.015ZM303.992 18.015H304.992V17.015H303.992V18.015ZM303.992 20.295V21.295H304.992V20.295H303.992ZM295.622 20.295V19.295H294.622V20.295H295.622ZM295.622 27.63H294.622V28.63H295.622V27.63ZM304.972 27.6237L304.957 29.9937L306.957 30.0063L306.972 27.6363L304.972 27.6237ZM305.957 29H292.712V31H305.957V29ZM293.712 30V8.505H291.712V30H293.712ZM292.712 9.505H305.957V7.505H292.712V9.505ZM304.957 8.505V10.875H306.957V8.505H304.957ZM305.957 9.875H295.622V11.875H305.957V9.875ZM294.622 10.875V18.015H296.622V10.875H294.622ZM295.622 19.015H303.992V17.015H295.622V19.015ZM302.992 18.015V20.295H304.992V18.015H302.992ZM303.992 19.295H295.622V21.295H303.992V19.295ZM294.622 20.295V27.63H296.622V20.295H294.622ZM295.622 28.63H305.972V26.63H295.622V28.63ZM325.068 25.755L324.333 26.4333L324.334 26.4351L325.068 25.755ZM326.223 27L326.98 27.6532L327.564 26.9758L326.956 26.3199L326.223 27ZM323.013 29.385L322.6 28.4739L322.598 28.4751L323.013 29.385ZM314.268 29.445L313.874 30.3642L313.88 30.3668L314.268 29.445ZM311.043 27.195L310.306 27.8711L310.309 27.8749L311.043 27.195ZM308.973 23.715L309.912 23.3738L309.912 23.3738L308.973 23.715ZM309.003 14.805L309.938 15.1584L309.938 15.1584L309.003 14.805ZM311.148 11.325L310.426 10.6329L310.422 10.6368L311.148 11.325ZM314.478 9.075L314.858 9.99999L314.864 9.99744L314.478 9.075ZM322.803 9L323.189 8.07762L323.189 8.07762L322.803 9ZM325.893 10.995L326.704 11.5788L327.215 10.8684L326.579 10.2678L325.893 10.995ZM324.933 12.33L324.121 11.7462L324.096 11.7799L324.075 11.8155L324.933 12.33ZM324.693 12.585L325.247 13.4171L325.257 13.4107L325.266 13.4042L324.693 12.585ZM323.658 12.39L323.048 13.1826L323.058 13.1901L323.067 13.1974L323.658 12.39ZM322.638 11.73L323.134 10.8618L323.134 10.8618L322.638 11.73ZM321.063 11.085L320.76 12.0381L320.767 12.0403L320.774 12.0424L321.063 11.085ZM315.693 11.37L316.074 12.2943L316.083 12.2907L315.693 11.37ZM313.308 13.035L312.571 12.3588L312.566 12.3644L313.308 13.035ZM311.763 15.705L310.819 15.3726L311.763 15.705ZM311.778 22.845L310.837 23.1853L310.84 23.1932L311.778 22.845ZM313.353 25.515L312.611 26.1856L312.616 26.191L312.62 26.1962L313.353 25.515ZM315.708 27.165L315.319 28.0863L315.322 28.0878L315.708 27.165ZM320.373 27.63L320.508 28.6207L320.517 28.6196L320.525 28.6184L320.373 27.63ZM321.798 27.27L321.456 26.3302L321.449 26.3328L321.798 27.27ZM323.013 26.67L323.557 27.509L323.562 27.5054L323.013 26.67ZM324.138 25.785L323.476 25.0352L323.468 25.0418L323.461 25.0487L324.138 25.785ZM324.648 26.56C324.588 26.56 324.518 26.5468 324.451 26.5158C324.387 26.4858 324.348 26.4504 324.333 26.4333L325.802 25.0767C325.515 24.7657 325.118 24.56 324.648 24.56V26.56ZM324.334 26.4351L325.489 27.6801L326.956 26.3199L325.801 25.0749L324.334 26.4351ZM325.465 26.3468C324.683 27.2538 323.732 27.9621 322.6 28.4739L323.425 30.2961C324.813 29.6679 326.002 28.7862 326.98 27.6532L325.465 26.3468ZM322.598 28.4751C321.51 28.9709 320.145 29.24 318.468 29.24V31.24C320.35 31.24 322.015 30.9391 323.427 30.2949L322.598 28.4751ZM318.468 29.24C317.044 29.24 315.778 28.9954 314.655 28.5232L313.88 30.3668C315.277 30.9546 316.811 31.24 318.468 31.24V29.24ZM314.661 28.5259C313.524 28.0383 312.566 27.3677 311.776 26.5151L310.309 27.8749C311.299 28.9423 312.491 29.7717 313.874 30.3641L314.661 28.5259ZM311.779 26.5189C310.986 25.6546 310.362 24.6112 309.912 23.3738L308.033 24.0562C308.563 25.5188 309.319 26.7954 310.306 27.8711L311.779 26.5189ZM309.912 23.3738C309.467 22.1462 309.238 20.7784 309.238 19.26H307.238C307.238 20.9816 307.498 22.5838 308.033 24.0562L309.912 23.3738ZM309.238 19.26C309.238 17.746 309.476 16.3825 309.938 15.1584L308.067 14.4516C307.509 15.9275 307.238 17.534 307.238 19.26H309.238ZM309.938 15.1584C310.405 13.9229 311.052 12.8792 311.873 12.0132L310.422 10.6368C309.403 11.7108 308.62 12.9871 308.067 14.4516L309.938 15.1584ZM311.869 12.0171C312.699 11.1515 313.691 10.4791 314.858 9.99997L314.097 8.15002C312.684 8.73094 311.456 9.5585 310.426 10.6329L311.869 12.0171ZM314.864 9.99744C316.018 9.51424 317.31 9.265 318.753 9.265V7.265C317.075 7.265 315.517 7.55576 314.091 8.15256L314.864 9.99744ZM318.753 9.265C320.177 9.265 321.391 9.49301 322.416 9.92237L323.189 8.07762C321.874 7.52698 320.388 7.265 318.753 7.265V9.265ZM322.416 9.92237C323.479 10.3676 324.407 10.9678 325.206 11.7222L326.579 10.2678C325.598 9.34219 324.466 8.61237 323.189 8.07762L322.416 9.92237ZM325.081 10.4112L324.121 11.7462L325.744 12.9138L326.704 11.5788L325.081 10.4112ZM324.075 11.8155C324.082 11.804 324.09 11.793 324.099 11.7834C324.108 11.7739 324.116 11.7682 324.119 11.7658L325.266 13.4042C325.475 13.2576 325.654 13.0705 325.79 12.8445L324.075 11.8155ZM324.138 11.7529C324.207 11.7066 324.267 11.6875 324.298 11.6801C324.328 11.6729 324.337 11.675 324.318 11.675V13.675C324.586 13.675 324.932 13.6273 325.247 13.4171L324.138 11.7529ZM324.318 11.675C324.401 11.675 324.438 11.6961 324.414 11.6857C324.391 11.6759 324.336 11.6476 324.248 11.5826L323.067 13.1974C323.38 13.4257 323.815 13.675 324.318 13.675V11.675ZM324.267 11.5974C323.959 11.36 323.576 11.1148 323.134 10.8618L322.141 12.5982C322.539 12.8252 322.836 13.02 323.048 13.1826L324.267 11.5974ZM323.134 10.8618C322.629 10.5736 322.03 10.3322 321.351 10.1276L320.774 12.0424C321.355 12.2178 321.806 12.4064 322.141 12.5982L323.134 10.8618ZM321.365 10.1319C320.607 9.8913 319.723 9.785 318.738 9.785V11.785C319.592 11.785 320.258 11.8787 320.76 12.0381L321.365 10.1319ZM318.738 9.785C317.508 9.785 316.359 10.0015 315.302 10.4493L316.083 12.2907C316.866 11.9585 317.747 11.785 318.738 11.785V9.785ZM315.311 10.4457C314.256 10.8812 313.34 11.5207 312.571 12.3588L314.044 13.7112C314.615 13.0893 315.289 12.6188 316.074 12.2943L315.311 10.4457ZM312.566 12.3644C311.806 13.2047 311.228 14.214 310.819 15.3726L312.706 16.0373C313.037 15.096 313.489 14.3253 314.049 13.7056L312.566 12.3644ZM310.819 15.3726C310.405 16.5472 310.208 17.8473 310.208 19.26H312.208C312.208 18.0327 312.38 16.9628 312.706 16.0373L310.819 15.3726ZM310.208 19.26C310.208 20.6935 310.411 22.0068 310.837 23.1853L312.718 22.5047C312.384 21.5832 312.208 20.5065 312.208 19.26H310.208ZM310.84 23.1932C311.268 24.3458 311.855 25.3495 312.611 26.1856L314.094 24.8444C313.53 24.2205 313.067 23.4442 312.715 22.4968L310.84 23.1932ZM312.62 26.1962C313.386 27.0188 314.288 27.651 315.319 28.0862L316.096 26.2438C315.327 25.919 314.659 25.4512 314.085 24.8338L312.62 26.1962ZM315.322 28.0878C316.362 28.522 317.474 28.735 318.648 28.735V26.735C317.721 26.735 316.873 26.568 316.093 26.2422L315.322 28.0878ZM318.648 28.735C319.323 28.735 319.944 28.6982 320.508 28.6207L320.237 26.6393C319.781 26.7018 319.252 26.735 318.648 26.735V28.735ZM320.525 28.6184C321.102 28.5295 321.644 28.3941 322.146 28.2072L321.449 26.3328C321.091 26.4659 320.683 26.5705 320.22 26.6416L320.525 28.6184ZM322.139 28.2098C322.646 28.0255 323.119 27.7926 323.557 27.509L322.468 25.831C322.166 26.0274 321.829 26.1945 321.456 26.3302L322.139 28.2098ZM323.562 27.5054C323.991 27.223 324.409 26.894 324.814 26.5213L323.461 25.0487C323.126 25.356 322.794 25.617 322.463 25.8346L323.562 27.5054ZM324.799 26.5348C324.823 26.5134 324.823 26.5193 324.796 26.5312C324.766 26.5445 324.714 26.56 324.648 26.56V24.56C324.162 24.56 323.767 24.7785 323.476 25.0352L324.799 26.5348ZM344.132 10.95V11.95H345.132V10.95H344.132ZM337.172 10.95V9.95H336.172V10.95H337.172ZM337.172 30V31H338.172V30H337.172ZM334.277 30H333.277V31H334.277V30ZM334.277 10.95H335.277V9.95H334.277V10.95ZM327.302 10.95H326.302V11.95H327.302V10.95ZM327.302 8.505V7.505H326.302V8.505H327.302ZM344.132 8.505H345.132V7.505H344.132V8.505ZM344.132 9.95H337.172V11.95H344.132V9.95ZM336.172 10.95V30H338.172V10.95H336.172ZM337.172 29H334.277V31H337.172V29ZM335.277 30V10.95H333.277V30H335.277ZM334.277 9.95H327.302V11.95H334.277V9.95ZM328.302 10.95V8.505H326.302V10.95H328.302ZM327.302 9.505H344.132V7.505H327.302V9.505ZM343.132 8.505V10.95H345.132V8.505H343.132Z" fill="#58A6FF"/>
</g>
<defs>
<filter id="filter0_d" x="0" y="36" width="349" height="18" filterUnits="userSpaceOnUse" color-interpolation-filters="sRGB">
<feFlood flood-opacity="0" result="BackgroundImageFix"/>
<feColorMatrix in="SourceAlpha" type="matrix" values="0 0 0 0 0 0 0 0 0 0 0 0 0 0 0 0 0 0 127 0"/>
<feOffset dy="4"/>
<feGaussianBlur stdDeviation="2"/>
<feColorMatrix type="matrix" values="0 0 0 0 0 0 0 0 0 0 0 0 0 0 0 0 0 0 0.25 0"/>
<feBlend mode="normal" in2="BackgroundImageFix" result="effect1_dropShadow"/>
<feBlend mode="normal" in="SourceGraphic" in2="effect1_dropShadow" result="shape"/>
</filter>
<filter id="filter1_d" x="1.745" y="7.26498" width="347.387" height="31.99" filterUnits="userSpaceOnUse" color-interpolation-filters="sRGB">
<feFlood flood-opacity="0" result="BackgroundImageFix"/>
<feColorMatrix in="SourceAlpha" type="matrix" values="0 0 0 0 0 0 0 0 0 0 0 0 0 0 0 0 0 0 127 0"/>
<feOffset dy="4"/>
<feGaussianBlur stdDeviation="2"/>
<feColorMatrix type="matrix" values="0 0 0 0 0 0 0 0 0 0 0 0 0 0 0 0 0 0 0.25 0"/>
<feBlend mode="normal" in2="BackgroundImageFix" result="effect1_dropShadow"/>
<feBlend mode="normal" in="SourceGraphic" in2="effect1_dropShadow" result="shape"/>
</filter>
</defs>
</svg>
