<svg width="125" height="56" viewBox="0 0 125 56" fill="none" xmlns="http://www.w3.org/2000/svg">
<g filter="url(#filter0_d)">
<path d="M18.94 27.555V30H6.745V8.505H9.64V27.555H18.94ZM33.5702 22.02L30.1952 13.275C30.0952 13.015 29.9902 12.715 29.8802 12.375C29.7702 12.025 29.6652 11.655 29.5652 11.265C29.3552 12.075 29.1402 12.75 28.9202 13.29L25.5452 22.02H33.5702ZM39.6302 30H37.3802C37.1202 30 36.9102 29.935 36.7502 29.805C36.5902 29.675 36.4702 29.51 36.3902 29.31L34.3802 24.12H24.7352L22.7252 29.31C22.6652 29.49 22.5502 29.65 22.3802 29.79C22.2102 29.93 22.0002 30 21.7502 30H19.5002L28.0952 8.505H31.0352L39.6302 30ZM48.4185 21.435V30H45.5085V21.435L37.6335 8.505H40.1835C40.4435 8.505 40.6485 8.57 40.7985 8.7C40.9485 8.82 41.0785 8.98 41.1885 9.18L46.1085 17.535C46.2885 17.885 46.4535 18.215 46.6035 18.525C46.7535 18.825 46.8835 19.13 46.9935 19.44C47.1035 19.13 47.2285 18.825 47.3685 18.525C47.5085 18.215 47.6635 17.885 47.8335 17.535L52.7385 9.18C52.8285 9.01 52.9535 8.855 53.1135 8.715C53.2735 8.575 53.4785 8.505 53.7285 8.505H56.2935L48.4185 21.435ZM77.7866 19.26C77.7866 20.87 77.5316 22.35 77.0216 23.7C76.5116 25.04 75.7916 26.195 74.8616 27.165C73.9316 28.135 72.8116 28.89 71.5016 29.43C70.2016 29.96 68.7616 30.225 67.1816 30.225C65.6016 30.225 64.1616 29.96 62.8616 29.43C61.5616 28.89 60.4466 28.135 59.5166 27.165C58.5866 26.195 57.8666 25.04 57.3566 23.7C56.8466 22.35 56.5916 20.87 56.5916 19.26C56.5916 17.65 56.8466 16.175 57.3566 14.835C57.8666 13.485 58.5866 12.325 59.5166 11.355C60.4466 10.375 61.5616 9.615 62.8616 9.075C64.1616 8.535 65.6016 8.265 67.1816 8.265C68.7616 8.265 70.2016 8.535 71.5016 9.075C72.8116 9.615 73.9316 10.375 74.8616 11.355C75.7916 12.325 76.5116 13.485 77.0216 14.835C77.5316 16.175 77.7866 17.65 77.7866 19.26ZM74.8016 19.26C74.8016 17.94 74.6216 16.755 74.2616 15.705C73.9016 14.655 73.3916 13.77 72.7316 13.05C72.0716 12.32 71.2716 11.76 70.3316 11.37C69.3916 10.98 68.3416 10.785 67.1816 10.785C66.0316 10.785 64.9866 10.98 64.0466 11.37C63.1066 11.76 62.3016 12.32 61.6316 13.05C60.9716 13.77 60.4616 14.655 60.1016 15.705C59.7416 16.755 59.5616 17.94 59.5616 19.26C59.5616 20.58 59.7416 21.765 60.1016 22.815C60.4616 23.855 60.9716 24.74 61.6316 25.47C62.3016 26.19 63.1066 26.745 64.0466 27.135C64.9866 27.515 66.0316 27.705 67.1816 27.705C68.3416 27.705 69.3916 27.515 70.3316 27.135C71.2716 26.745 72.0716 26.19 72.7316 25.47C73.3916 24.74 73.9016 23.855 74.2616 22.815C74.6216 21.765 74.8016 20.58 74.8016 19.26ZM90.2451 27.69C91.1351 27.69 91.9301 27.54 92.6301 27.24C93.3301 26.94 93.9201 26.52 94.4001 25.98C94.8901 25.44 95.2601 24.795 95.5101 24.045C95.7701 23.295 95.9001 22.47 95.9001 21.57V8.505H98.7951V21.57C98.7951 22.81 98.5951 23.96 98.1951 25.02C97.8051 26.08 97.2401 27 96.5001 27.78C95.7701 28.55 94.8751 29.155 93.8151 29.595C92.7551 30.035 91.5651 30.255 90.2451 30.255C88.9251 30.255 87.7351 30.035 86.6751 29.595C85.6151 29.155 84.7151 28.55 83.9751 27.78C83.2351 27 82.6651 26.08 82.2651 25.02C81.8751 23.96 81.6801 22.81 81.6801 21.57V8.505H84.5751V21.555C84.5751 22.455 84.7001 23.28 84.9501 24.03C85.2101 24.78 85.5801 25.425 86.0601 25.965C86.5501 26.505 87.1451 26.93 87.8451 27.24C88.5551 27.54 89.3551 27.69 90.2451 27.69ZM118.546 10.95H111.586V30H108.691V10.95H101.716V8.505H118.546V10.95Z" fill="#58A6FF"/>
<path d="M18.94 27.555H19.94V26.555H18.94V27.555ZM18.94 30V31H19.94V30H18.94ZM6.745 30H5.745V31H6.745V30ZM6.745 8.505V7.505H5.745V8.505H6.745ZM9.64 8.505H10.64V7.505H9.64V8.505ZM9.64 27.555H8.64V28.555H9.64V27.555ZM17.94 27.555V30H19.94V27.555H17.94ZM18.94 29H6.745V31H18.94V29ZM7.745 30V8.505H5.745V30H7.745ZM6.745 9.505H9.64V7.505H6.745V9.505ZM8.64 8.505V27.555H10.64V8.505H8.64ZM9.64 28.555H18.94V26.555H9.64V28.555ZM33.5702 22.02V23.02H35.028L34.5031 21.6599L33.5702 22.02ZM30.1952 13.275L29.2618 13.634L29.2622 13.6351L30.1952 13.275ZM29.8802 12.375L28.9261 12.6748L28.9287 12.6828L29.8802 12.375ZM29.5652 11.265L30.5338 11.0166L28.5972 11.014L29.5652 11.265ZM28.9202 13.29L27.9941 12.9127L27.9907 12.921L27.9874 12.9294L28.9202 13.29ZM25.5452 22.02L24.6124 21.6594L24.0864 23.02H25.5452V22.02ZM39.6302 30V31H41.107L40.5587 29.6287L39.6302 30ZM36.7502 29.805L36.1196 30.5811L36.1196 30.5811L36.7502 29.805ZM36.3902 29.31L35.4576 29.6712L35.4617 29.6814L36.3902 29.31ZM34.3802 24.12L35.3127 23.7589L35.0652 23.12H34.3802V24.12ZM24.7352 24.12V23.12H24.0501L23.8026 23.7589L24.7352 24.12ZM22.7252 29.31L21.7926 28.9489L21.784 28.9711L21.7765 28.9938L22.7252 29.31ZM22.3802 29.79L23.0159 30.5619L23.0159 30.5619L22.3802 29.79ZM19.5002 30L18.5716 29.6287L18.0233 31H19.5002V30ZM28.0952 8.505V7.505H27.418L27.1666 8.13372L28.0952 8.505ZM31.0352 8.505L31.9637 8.13372L31.7123 7.505H31.0352V8.505ZM34.5031 21.6599L31.1281 12.9149L29.2622 13.6351L32.6372 22.3801L34.5031 21.6599ZM31.1285 12.916C31.0365 12.6768 30.9375 12.3945 30.8316 12.0672L28.9287 12.6828C29.0428 13.0355 29.1538 13.3532 29.2618 13.634L31.1285 12.916ZM30.8342 12.0752C30.73 11.7437 30.6298 11.391 30.5338 11.0166L28.5965 11.5134C28.7005 11.919 28.8103 12.3063 28.9262 12.6748L30.8342 12.0752ZM28.5972 11.014C28.394 11.7978 28.1918 12.4273 27.9941 12.9127L29.8462 13.6673C30.0885 13.0727 30.3164 12.3522 30.5332 11.516L28.5972 11.014ZM27.9874 12.9294L24.6124 21.6594L26.4779 22.3806L29.8529 13.6506L27.9874 12.9294ZM25.5452 23.02H33.5702V21.02H25.5452V23.02ZM39.6302 29H37.3802V31H39.6302V29ZM37.3802 29C37.3326 29 37.317 28.994 37.3233 28.996C37.3268 28.997 37.3348 28.9999 37.3458 29.0057C37.3569 29.0115 37.3689 29.0193 37.3807 29.0289L36.1196 30.5811C36.5002 30.8904 36.9518 31 37.3802 31V29ZM37.3808 29.0289C37.3589 29.0111 37.3384 28.9879 37.3186 28.9386L35.4617 29.6814C35.602 30.0321 35.8214 30.3389 36.1196 30.5811L37.3808 29.0289ZM37.3227 28.9489L35.3127 23.7589L33.4476 24.4811L35.4576 29.6711L37.3227 28.9489ZM34.3802 23.12H24.7352V25.12H34.3802V23.12ZM23.8026 23.7589L21.7926 28.9489L23.6577 29.6711L25.6677 24.4811L23.8026 23.7589ZM21.7765 28.9938C21.7778 28.9898 21.7793 28.9863 21.7807 28.9836C21.7821 28.9809 21.7827 28.9802 21.7819 28.9814C21.7803 28.9836 21.7705 28.9966 21.7444 29.0181L23.0159 30.5619C23.3072 30.322 23.5454 30.0116 23.6738 29.6262L21.7765 28.9938ZM21.7444 29.0181C21.7487 29.0146 21.7545 29.0105 21.7615 29.0066C21.7685 29.0028 21.7746 29.0003 21.7789 28.9988C21.7831 28.9974 21.7838 28.9976 21.7797 28.9983C21.7755 28.9989 21.766 29 21.7502 29V31C22.1989 31 22.6428 30.8692 23.0159 30.5619L21.7444 29.0181ZM21.7502 29H19.5002V31H21.7502V29ZM20.4287 30.3713L29.0237 8.87628L27.1666 8.13372L18.5716 29.6287L20.4287 30.3713ZM28.0952 9.505H31.0352V7.505H28.0952V9.505ZM30.1066 8.87628L38.7016 30.3713L40.5587 29.6287L31.9637 8.13372L30.1066 8.87628ZM48.4185 21.435L47.5645 20.9148L47.4185 21.1544V21.435H48.4185ZM48.4185 30V31H49.4185V30H48.4185ZM45.5085 30H44.5085V31H45.5085V30ZM45.5085 21.435H46.5085V21.1544L46.3626 20.9148L45.5085 21.435ZM37.6335 8.505V7.505H35.8536L36.7795 9.02517L37.6335 8.505ZM40.7985 8.7L40.1436 9.45569L40.1585 9.46858L40.1738 9.48087L40.7985 8.7ZM41.1885 9.18L40.3123 9.66192L40.3194 9.67478L40.3268 9.68743L41.1885 9.18ZM46.1085 17.535L46.9978 17.0777L46.9847 17.0522L46.9702 17.0276L46.1085 17.535ZM46.6035 18.525L45.7033 18.9606L45.7091 18.9722L46.6035 18.525ZM46.9935 19.44L46.0511 19.7744L46.9935 22.4303L47.9359 19.7744L46.9935 19.44ZM47.3685 18.525L48.2748 18.9479L48.2799 18.9366L47.3685 18.525ZM47.8335 17.535L46.9711 17.0287L46.9512 17.0627L46.934 17.0981L47.8335 17.535ZM52.7385 9.18L53.6009 9.68628L53.612 9.66732L53.6223 9.64788L52.7385 9.18ZM53.1135 8.715L53.772 9.46758L53.772 9.46758L53.1135 8.715ZM56.2935 8.505L57.1476 9.02517L58.0734 7.505H56.2935V8.505ZM47.4185 21.435V30H49.4185V21.435H47.4185ZM48.4185 29H45.5085V31H48.4185V29ZM46.5085 30V21.435H44.5085V30H46.5085ZM46.3626 20.9148L38.4876 7.98483L36.7795 9.02517L44.6545 21.9552L46.3626 20.9148ZM37.6335 9.505H40.1835V7.505H37.6335V9.505ZM40.1835 9.505C40.2316 9.505 40.2432 9.51116 40.23 9.50698C40.223 9.50475 40.2104 9.50002 40.1943 9.49116C40.178 9.48221 40.1606 9.4704 40.1436 9.45569L41.4534 7.94431C41.0715 7.61328 40.6082 7.505 40.1835 7.505V9.505ZM40.1738 9.48087C40.2037 9.5048 40.254 9.55585 40.3123 9.66192L42.0647 8.69808C41.9031 8.40415 41.6933 8.1352 41.4232 7.91913L40.1738 9.48087ZM40.3268 9.68743L45.2468 18.0424L46.9702 17.0276L42.0502 8.67257L40.3268 9.68743ZM45.2192 17.9923C45.396 18.3361 45.5573 18.6588 45.7034 18.9606L47.5037 18.0894C47.3497 17.7712 47.181 17.4339 46.9978 17.0777L45.2192 17.9923ZM45.7091 18.9722C45.8412 19.2363 45.955 19.5037 46.0511 19.7744L47.9359 19.1056C47.812 18.7563 47.6659 18.4137 47.4979 18.0778L45.7091 18.9722ZM47.9359 19.7744C48.0352 19.4947 48.1481 19.2192 48.2747 18.9479L46.4623 18.1021C46.3089 18.4308 46.1718 18.7653 46.0511 19.1056L47.9359 19.7744ZM48.2799 18.9366C48.4156 18.6362 48.5665 18.3147 48.733 17.9719L46.934 17.0981C46.7605 17.4553 46.6015 17.7938 46.4571 18.1134L48.2799 18.9366ZM48.6959 18.0413L53.6009 9.68628L51.8761 8.67372L46.9711 17.0287L48.6959 18.0413ZM53.6223 9.64788C53.6495 9.59652 53.6942 9.53567 53.772 9.46758L52.455 7.96242C52.2128 8.17433 52.0075 8.42348 51.8547 8.71212L53.6223 9.64788ZM53.772 9.46758C53.7631 9.47537 53.7525 9.4831 53.7406 9.4899C53.7289 9.49668 53.7183 9.50114 53.7104 9.50385C53.6942 9.50937 53.6968 9.505 53.7285 9.505V7.505C53.2813 7.505 52.8285 7.63559 52.455 7.96242L53.772 9.46758ZM53.7285 9.505H56.2935V7.505H53.7285V9.505ZM55.4395 7.98483L47.5645 20.9148L49.2726 21.9552L57.1476 9.02517L55.4395 7.98483ZM77.0216 23.7L77.9562 24.0557L77.9571 24.0534L77.0216 23.7ZM74.8616 27.165L74.1398 26.4729L74.1398 26.4729L74.8616 27.165ZM71.5016 29.43L71.8792 30.356L71.8827 30.3545L71.5016 29.43ZM62.8616 29.43L62.478 30.3535L62.4841 30.356L62.8616 29.43ZM59.5166 27.165L58.7948 27.8571L58.7948 27.8571L59.5166 27.165ZM57.3566 23.7L56.4212 24.0534L56.422 24.0557L57.3566 23.7ZM57.3566 14.835L58.2912 15.1907L58.2921 15.1884L57.3566 14.835ZM59.5166 11.355L60.2385 12.0471L60.242 12.0434L59.5166 11.355ZM71.5016 9.075L71.118 9.9985L71.1205 9.99953L71.5016 9.075ZM74.8616 11.355L74.1363 12.0434L74.1398 12.0471L74.8616 11.355ZM77.0216 14.835L76.0862 15.1884L76.087 15.1907L77.0216 14.835ZM72.7316 13.05L71.9898 13.7207L71.9945 13.7257L72.7316 13.05ZM70.3316 11.37L70.7149 10.4463L70.7149 10.4463L70.3316 11.37ZM64.0466 11.37L63.6634 10.4463L63.6634 10.4463L64.0466 11.37ZM61.6316 13.05L60.8949 12.3738L60.8945 12.3743L61.6316 13.05ZM60.1016 15.705L59.1557 15.3807L59.1557 15.3807L60.1016 15.705ZM60.1016 22.815L59.1557 23.1393L59.1567 23.1421L60.1016 22.815ZM61.6316 25.47L60.8899 26.1406L60.8947 26.146L60.8996 26.1512L61.6316 25.47ZM64.0466 27.135L63.6634 28.0587L63.6719 28.0621L64.0466 27.135ZM70.3316 27.135L70.7064 28.0621L70.7149 28.0587L70.3316 27.135ZM72.7316 25.47L73.4688 26.1457L73.4734 26.1406L72.7316 25.47ZM74.2616 22.815L75.2066 23.1421L75.2076 23.1393L74.2616 22.815ZM76.7866 19.26C76.7866 20.7632 76.5489 22.1218 76.0862 23.3466L77.9571 24.0534C78.5144 22.5782 78.7866 20.9768 78.7866 19.26H76.7866ZM76.087 23.3443C75.6215 24.5675 74.971 25.606 74.1398 26.4729L75.5835 27.8571C76.6123 26.784 77.4018 25.5125 77.9562 24.0557L76.087 23.3443ZM74.1398 26.4729C73.3112 27.3372 72.3092 28.0155 71.1205 28.5055L71.8827 30.3545C73.3141 29.7645 74.5521 28.9328 75.5835 27.8571L74.1398 26.4729ZM71.1241 28.504C69.9581 28.9794 68.6484 29.225 67.1816 29.225V31.225C68.8749 31.225 70.4452 30.9406 71.8792 30.356L71.1241 28.504ZM67.1816 29.225C65.7149 29.225 64.4052 28.9794 63.2392 28.504L62.4841 30.356C63.9181 30.9406 65.4884 31.225 67.1816 31.225V29.225ZM63.2452 28.5065C62.0666 28.0169 61.0684 27.3385 60.2385 26.4729L58.7948 27.8571C59.8249 28.9315 61.0567 29.7631 62.478 30.3535L63.2452 28.5065ZM60.2385 26.4729C59.4073 25.606 58.7568 24.5675 58.2912 23.3443L56.422 24.0557C56.9765 25.5125 57.766 26.784 58.7948 27.8571L60.2385 26.4729ZM58.2921 23.3466C57.8294 22.1218 57.5916 20.7632 57.5916 19.26H55.5916C55.5916 20.9768 55.8639 22.5782 56.4212 24.0534L58.2921 23.3466ZM57.5916 19.26C57.5916 17.7567 57.8295 16.404 58.2912 15.1907L56.422 14.4793C55.8638 15.946 55.5916 17.5433 55.5916 19.26H57.5916ZM58.2921 15.1884C58.758 13.9551 59.4085 12.9127 60.2385 12.0471L58.7948 10.6629C57.7648 11.7373 56.9753 13.0149 56.4212 14.4816L58.2921 15.1884ZM60.242 12.0434C61.0717 11.169 62.0688 10.4872 63.2452 9.9985L62.478 8.1515C61.0545 8.74283 59.8215 9.58097 58.7913 10.6666L60.242 12.0434ZM63.2452 9.9985C64.4096 9.51483 65.7172 9.265 67.1816 9.265V7.265C65.4861 7.265 63.9136 7.55517 62.478 8.1515L63.2452 9.9985ZM67.1816 9.265C68.6461 9.265 69.9536 9.51483 71.118 9.9985L71.8852 8.1515C70.4496 7.55517 68.8772 7.265 67.1816 7.265V9.265ZM71.1205 9.99953C72.3069 10.4886 73.3078 11.1704 74.1363 12.0434L75.587 10.6666C74.5554 9.57961 73.3164 8.74142 71.8827 8.15047L71.1205 9.99953ZM74.1398 12.0471C74.9698 12.9127 75.6203 13.9551 76.0862 15.1884L77.9571 14.4816C77.403 13.0149 76.6135 11.7373 75.5835 10.6629L74.1398 12.0471ZM76.087 15.1907C76.5488 16.404 76.7866 17.7567 76.7866 19.26H78.7866C78.7866 17.5433 78.5145 15.946 77.9562 14.4793L76.087 15.1907ZM75.8016 19.26C75.8016 17.85 75.6094 16.5527 75.2076 15.3807L73.3157 16.0293C73.6339 16.9573 73.8016 18.03 73.8016 19.26H75.8016ZM75.2076 15.3807C74.809 14.2181 74.2337 13.2087 73.4688 12.3743L71.9945 13.7257C72.5496 14.3313 72.9943 15.0919 73.3157 16.0293L75.2076 15.3807ZM73.4734 12.3794C72.7107 11.5357 71.7868 10.8911 70.7149 10.4463L69.9484 12.2937C70.7564 12.6289 71.4326 13.1043 71.9899 13.7206L73.4734 12.3794ZM70.7149 10.4463C69.6376 9.99938 68.4549 9.785 67.1816 9.785V11.785C68.2284 11.785 69.1457 11.9606 69.9484 12.2937L70.7149 10.4463ZM67.1816 9.785C65.9172 9.785 64.7397 9.9998 63.6634 10.4463L64.4299 12.2937C65.2336 11.9602 66.1461 11.785 67.1816 11.785V9.785ZM63.6634 10.4463C62.5927 10.8906 61.666 11.5336 60.8949 12.3738L62.3684 13.7262C62.9372 13.1064 63.6206 12.6294 64.4299 12.2937L63.6634 10.4463ZM60.8945 12.3743C60.1296 13.2087 59.5543 14.2181 59.1557 15.3807L61.0476 16.0293C61.369 15.0919 61.8137 14.3313 62.3688 13.7257L60.8945 12.3743ZM59.1557 15.3807C58.7539 16.5527 58.5616 17.85 58.5616 19.26H60.5616C60.5616 18.03 60.7294 16.9573 61.0476 16.0293L59.1557 15.3807ZM58.5616 19.26C58.5616 20.67 58.7539 21.9673 59.1557 23.1393L61.0476 22.4907C60.7294 21.5627 60.5616 20.49 60.5616 19.26H58.5616ZM59.1567 23.1421C59.5554 24.2941 60.1296 25.2998 60.8899 26.1406L62.3734 24.7994C61.8136 24.1802 61.3679 23.4159 61.0466 22.4879L59.1567 23.1421ZM60.8996 26.1512C61.6706 26.9798 62.5958 27.6157 63.6634 28.0587L64.4299 26.2113C63.6174 25.8743 62.9327 25.4002 62.3637 24.7888L60.8996 26.1512ZM63.6719 28.0621C64.7459 28.4963 65.9203 28.705 67.1816 28.705V26.705C66.143 26.705 65.2274 26.5337 64.4214 26.2079L63.6719 28.0621ZM67.1816 28.705C68.4517 28.705 69.6314 28.4967 70.7064 28.0621L69.9569 26.2079C69.1518 26.5333 68.2315 26.705 67.1816 26.705V28.705ZM70.7149 28.0587C71.7837 27.6152 72.7061 26.9777 73.4688 26.1457L71.9945 24.7943C71.4371 25.4023 70.7596 25.8748 69.9484 26.2113L70.7149 28.0587ZM73.4734 26.1406C74.2336 25.2998 74.8079 24.2941 75.2066 23.1421L73.3167 22.4879C72.9954 23.4159 72.5496 24.1802 71.9899 24.7994L73.4734 26.1406ZM75.2076 23.1393C75.6094 21.9673 75.8016 20.67 75.8016 19.26H73.8016C73.8016 20.49 73.6339 21.5627 73.3157 22.4907L75.2076 23.1393ZM94.4001 25.98L93.6595 25.308L93.6527 25.3156L94.4001 25.98ZM95.5101 24.045L94.5652 23.7174L94.5614 23.7288L95.5101 24.045ZM95.9001 8.505V7.505H94.9001V8.505H95.9001ZM98.7951 8.505H99.7951V7.505H98.7951V8.505ZM98.1951 25.02L97.2594 24.6669L97.2566 24.6747L98.1951 25.02ZM96.5001 27.78L95.7746 27.0917L95.7744 27.092L96.5001 27.78ZM83.9751 27.78L83.2496 28.4683L83.2541 28.4729L83.9751 27.78ZM82.2651 25.02L81.3266 25.3653L81.3295 25.3731L82.2651 25.02ZM81.6801 8.505V7.505H80.6801V8.505H81.6801ZM84.5751 8.505H85.5751V7.505H84.5751V8.505ZM84.9501 24.03L84.0013 24.3462L84.0052 24.3575L84.9501 24.03ZM86.0601 25.965L85.3126 26.6294L85.3195 26.637L86.0601 25.965ZM87.8451 27.24L87.4402 28.1543L87.448 28.1578L87.4559 28.1611L87.8451 27.24ZM90.2451 28.69C91.2479 28.69 92.1803 28.5207 93.024 28.1591L92.2362 26.3209C91.6798 26.5593 91.0222 26.69 90.2451 26.69V28.69ZM93.024 28.1591C93.8516 27.8044 94.5646 27.3002 95.1475 26.6444L93.6527 25.3156C93.2756 25.7398 92.8085 26.0756 92.2362 26.3209L93.024 28.1591ZM95.1406 26.652C95.7316 26.0007 96.1686 25.2318 96.4588 24.3612L94.5614 23.7288C94.3516 24.3582 94.0486 24.8793 93.6595 25.308L95.1406 26.652ZM96.4549 24.3725C96.756 23.5041 96.9001 22.5668 96.9001 21.57H94.9001C94.9001 22.3732 94.7842 23.0859 94.5652 23.7175L96.4549 24.3725ZM96.9001 21.57V8.505H94.9001V21.57H96.9001ZM95.9001 9.505H98.7951V7.505H95.9001V9.505ZM97.7951 8.505V21.57H99.7951V8.505H97.7951ZM97.7951 21.57C97.7951 22.7008 97.613 23.73 97.2595 24.6669L99.1307 25.3731C99.5771 24.19 99.7951 22.9192 99.7951 21.57H97.7951ZM97.2566 24.6747C96.9111 25.6137 96.4163 26.4153 95.7746 27.0917L97.2255 28.4683C98.0638 27.5847 98.699 26.5463 99.1336 25.3653L97.2566 24.6747ZM95.7744 27.092C95.1484 27.7523 94.3731 28.2807 93.4317 28.6714L94.1985 30.5186C95.3771 30.0293 96.3918 29.3477 97.2258 28.468L95.7744 27.092ZM93.4317 28.6714C92.5101 29.054 91.4531 29.255 90.2451 29.255V31.255C91.6771 31.255 93.0001 31.016 94.1985 30.5186L93.4317 28.6714ZM90.2451 29.255C89.0371 29.255 87.9801 29.054 87.0585 28.6714L86.2917 30.5186C87.4901 31.016 88.8131 31.255 90.2451 31.255V29.255ZM87.0585 28.6714C86.1161 28.2802 85.3337 27.7505 84.6961 27.0871L83.2541 28.4729C84.0965 29.3495 85.1141 30.0298 86.2917 30.5186L87.0585 28.6714ZM84.7005 27.0917C84.0571 26.4135 83.5562 25.6091 83.2007 24.6669L81.3295 25.3731C81.7739 26.5509 82.4131 27.5865 83.2496 28.4683L84.7005 27.0917ZM83.2036 24.6747C82.8581 23.7356 82.6801 22.7037 82.6801 21.57H80.6801C80.6801 22.9163 80.8921 24.1844 81.3266 25.3653L83.2036 24.6747ZM82.6801 21.57V8.505H80.6801V21.57H82.6801ZM81.6801 9.505H84.5751V7.505H81.6801V9.505ZM83.5751 8.505V21.555H85.5751V8.505H83.5751ZM83.5751 21.555C83.5751 22.5478 83.7131 23.4812 84.0014 24.3462L85.8988 23.7138C85.6871 23.0788 85.5751 22.3622 85.5751 21.555H83.5751ZM84.0052 24.3575C84.304 25.2194 84.7371 25.9819 85.3127 26.6294L86.8075 25.3006C86.423 24.8681 86.1161 24.3406 85.8949 23.7025L84.0052 24.3575ZM85.3195 26.637C85.9079 27.2854 86.6191 27.7907 87.4402 28.1543L88.25 26.3257C87.6711 26.0693 87.1922 25.7246 86.8006 25.293L85.3195 26.637ZM87.4559 28.1611C88.3066 28.5206 89.2419 28.69 90.2451 28.69V26.69C89.4683 26.69 88.8036 26.5594 88.2343 26.3189L87.4559 28.1611ZM118.546 10.95V11.95H119.546V10.95H118.546ZM111.586 10.95V9.95H110.586V10.95H111.586ZM111.586 30V31H112.586V30H111.586ZM108.691 30H107.691V31H108.691V30ZM108.691 10.95H109.691V9.95H108.691V10.95ZM101.716 10.95H100.716V11.95H101.716V10.95ZM101.716 8.505V7.505H100.716V8.505H101.716ZM118.546 8.505H119.546V7.505H118.546V8.505ZM118.546 9.95H111.586V11.95H118.546V9.95ZM110.586 10.95V30H112.586V10.95H110.586ZM111.586 29H108.691V31H111.586V29ZM109.691 30V10.95H107.691V30H109.691ZM108.691 9.95H101.716V11.95H108.691V9.95ZM102.716 10.95V8.505H100.716V10.95H102.716ZM101.716 9.505H118.546V7.505H101.716V9.505ZM117.546 8.505V10.95H119.546V8.505H117.546Z" fill="#58A6FF"/>
</g>
<g filter="url(#filter1_d)">
<rect x="4" y="38" width="117" height="10" rx="2" fill="#5965E0"/>
<rect x="4.5" y="38.5" width="116" height="9" rx="1.5" stroke="#5965E0"/>
</g>
<defs>
<filter id="filter0_d" x="1.745" y="7.265" width="121.801" height="31.99" filterUnits="userSpaceOnUse" color-interpolation-filters="sRGB">
<feFlood flood-opacity="0" result="BackgroundImageFix"/>
<feColorMatrix in="SourceAlpha" type="matrix" values="0 0 0 0 0 0 0 0 0 0 0 0 0 0 0 0 0 0 127 0"/>
<feOffset dy="4"/>
<feGaussianBlur stdDeviation="2"/>
<feColorMatrix type="matrix" values="0 0 0 0 0 0 0 0 0 0 0 0 0 0 0 0 0 0 0.25 0"/>
<feBlend mode="normal" in2="BackgroundImageFix" result="effect1_dropShadow"/>
<feBlend mode="normal" in="SourceGraphic" in2="effect1_dropShadow" result="shape"/>
</filter>
<filter id="filter1_d" x="0" y="38" width="125" height="18" filterUnits="userSpaceOnUse" color-interpolation-filters="sRGB">
<feFlood flood-opacity="0" result="BackgroundImageFix"/>
<feColorMatrix in="SourceAlpha" type="matrix" values="0 0 0 0 0 0 0 0 0 0 0 0 0 0 0 0 0 0 127 0"/>
<feOffset dy="4"/>
<feGaussianBlur stdDeviation="2"/>
<feColorMatrix type="matrix" values="0 0 0 0 0 0 0 0 0 0 0 0 0 0 0 0 0 0 0.25 0"/>
<feBlend mode="normal" in2="BackgroundImageFix" result="effect1_dropShadow"/>
<feBlend mode="normal" in="SourceGraphic" in2="effect1_dropShadow" result="shape"/>
</filter>
</defs>
</svg>
