<svg width="168" height="54" viewBox="0 0 168 54" fill="none" xmlns="http://www.w3.org/2000/svg">
<g filter="url(#filter0_d)">
<rect x="4" y="36" width="159" height="10" rx="2" fill="#5965E0"/>
<rect x="4.5" y="36.5" width="158" height="9" rx="1.5" stroke="#5965E0"/>
</g>
<g filter="url(#filter1_d)">
<path d="M12.7 18.915C13.54 18.915 14.28 18.815 14.92 18.615C15.57 18.405 16.11 18.115 16.54 17.745C16.98 17.365 17.31 16.915 17.53 16.395C17.75 15.875 17.86 15.3 17.86 14.67C17.86 13.39 17.44 12.425 16.6 11.775C15.76 11.125 14.5 10.8 12.82 10.8H9.64V18.915H12.7ZM22.63 30H20.05C19.52 30 19.13 29.795 18.88 29.385L13.3 21.705C13.13 21.465 12.945 21.295 12.745 21.195C12.555 21.085 12.255 21.03 11.845 21.03H9.64V30H6.745V8.505H12.82C14.18 8.505 15.355 8.645 16.345 8.925C17.335 9.195 18.15 9.59 18.79 10.11C19.44 10.63 19.92 11.26 20.23 12C20.54 12.73 20.695 13.55 20.695 14.46C20.695 15.22 20.575 15.93 20.335 16.59C20.095 17.25 19.745 17.845 19.285 18.375C18.835 18.895 18.28 19.34 17.62 19.71C16.97 20.08 16.23 20.36 15.4 20.55C15.77 20.76 16.09 21.065 16.36 21.465L22.63 30ZM45.2085 19.26C45.2085 20.87 44.9535 22.35 44.4435 23.7C43.9335 25.04 43.2135 26.195 42.2835 27.165C41.3535 28.135 40.2335 28.89 38.9235 29.43C37.6235 29.96 36.1835 30.225 34.6035 30.225C33.0235 30.225 31.5835 29.96 30.2835 29.43C28.9835 28.89 27.8685 28.135 26.9385 27.165C26.0085 26.195 25.2885 25.04 24.7785 23.7C24.2685 22.35 24.0135 20.87 24.0135 19.26C24.0135 17.65 24.2685 16.175 24.7785 14.835C25.2885 13.485 26.0085 12.325 26.9385 11.355C27.8685 10.375 28.9835 9.615 30.2835 9.075C31.5835 8.535 33.0235 8.265 34.6035 8.265C36.1835 8.265 37.6235 8.535 38.9235 9.075C40.2335 9.615 41.3535 10.375 42.2835 11.355C43.2135 12.325 43.9335 13.485 44.4435 14.835C44.9535 16.175 45.2085 17.65 45.2085 19.26ZM42.2235 19.26C42.2235 17.94 42.0435 16.755 41.6835 15.705C41.3235 14.655 40.8135 13.77 40.1535 13.05C39.4935 12.32 38.6935 11.76 37.7535 11.37C36.8135 10.98 35.7635 10.785 34.6035 10.785C33.4535 10.785 32.4085 10.98 31.4685 11.37C30.5285 11.76 29.7235 12.32 29.0535 13.05C28.3935 13.77 27.8835 14.655 27.5235 15.705C27.1635 16.755 26.9835 17.94 26.9835 19.26C26.9835 20.58 27.1635 21.765 27.5235 22.815C27.8835 23.855 28.3935 24.74 29.0535 25.47C29.7235 26.19 30.5285 26.745 31.4685 27.135C32.4085 27.515 33.4535 27.705 34.6035 27.705C35.7635 27.705 36.8135 27.515 37.7535 27.135C38.6935 26.745 39.4935 26.19 40.1535 25.47C40.8135 24.74 41.3235 23.855 41.6835 22.815C42.0435 21.765 42.2235 20.58 42.2235 19.26ZM60.2303 22.02L56.8553 13.275C56.7553 13.015 56.6503 12.715 56.5403 12.375C56.4303 12.025 56.3253 11.655 56.2253 11.265C56.0153 12.075 55.8003 12.75 55.5803 13.29L52.2053 22.02H60.2303ZM66.2903 30H64.0403C63.7803 30 63.5703 29.935 63.4103 29.805C63.2503 29.675 63.1303 29.51 63.0503 29.31L61.0403 24.12H51.3953L49.3853 29.31C49.3253 29.49 49.2103 29.65 49.0403 29.79C48.8703 29.93 48.6603 30 48.4103 30H46.1603L54.7553 8.505H57.6953L66.2903 30ZM87.748 19.26C87.748 20.87 87.493 22.335 86.983 23.655C86.473 24.975 85.753 26.105 84.823 27.045C83.893 27.985 82.773 28.715 81.463 29.235C80.163 29.745 78.723 30 77.143 30H69.118V8.505H77.143C78.723 8.505 80.163 8.765 81.463 9.285C82.773 9.795 83.893 10.525 84.823 11.475C85.753 12.415 86.473 13.545 86.983 14.865C87.493 16.185 87.748 17.65 87.748 19.26ZM84.763 19.26C84.763 17.94 84.583 16.76 84.223 15.72C83.863 14.68 83.353 13.8 82.693 13.08C82.033 12.36 81.233 11.81 80.293 11.43C79.353 11.05 78.303 10.86 77.143 10.86H72.028V27.645H77.143C78.303 27.645 79.353 27.455 80.293 27.075C81.233 26.695 82.033 26.15 82.693 25.44C83.353 24.72 83.863 23.84 84.223 22.8C84.583 21.76 84.763 20.58 84.763 19.26ZM121.981 8.505V30H119.431V14.205C119.431 13.995 119.436 13.77 119.446 13.53C119.466 13.29 119.486 13.045 119.506 12.795L112.126 26.235C111.896 26.685 111.546 26.91 111.076 26.91H110.656C110.186 26.91 109.836 26.685 109.606 26.235L102.076 12.735C102.136 13.265 102.166 13.755 102.166 14.205V30H99.6161V8.505H101.761C102.021 8.505 102.221 8.53 102.361 8.58C102.501 8.63 102.636 8.77 102.766 9L110.191 22.23C110.311 22.47 110.426 22.72 110.536 22.98C110.656 23.24 110.766 23.505 110.866 23.775C110.966 23.505 111.071 23.24 111.181 22.98C111.291 22.71 111.411 22.455 111.541 22.215L118.831 9C118.951 8.77 119.081 8.63 119.221 8.58C119.371 8.53 119.576 8.505 119.836 8.505H121.981ZM138.892 22.02L135.517 13.275C135.417 13.015 135.312 12.715 135.202 12.375C135.092 12.025 134.987 11.655 134.887 11.265C134.677 12.075 134.462 12.75 134.242 13.29L130.867 22.02H138.892ZM144.952 30H142.702C142.442 30 142.232 29.935 142.072 29.805C141.912 29.675 141.792 29.51 141.712 29.31L139.702 24.12H130.057L128.047 29.31C127.987 29.49 127.872 29.65 127.702 29.79C127.532 29.93 127.322 30 127.072 30H124.822L133.417 8.505H136.357L144.952 30ZM154.125 19.65C154.955 19.65 155.685 19.54 156.315 19.32C156.955 19.1 157.49 18.795 157.92 18.405C158.36 18.005 158.69 17.53 158.91 16.98C159.13 16.43 159.24 15.825 159.24 15.165C159.24 13.795 158.815 12.725 157.965 11.955C157.125 11.185 155.845 10.8 154.125 10.8H150.675V19.65H154.125ZM154.125 8.505C155.485 8.505 156.665 8.665 157.665 8.985C158.675 9.295 159.51 9.74 160.17 10.32C160.83 10.9 161.32 11.6 161.64 12.42C161.97 13.24 162.135 14.155 162.135 15.165C162.135 16.165 161.96 17.08 161.61 17.91C161.26 18.74 160.745 19.455 160.065 20.055C159.395 20.655 158.56 21.125 157.56 21.465C156.57 21.795 155.425 21.96 154.125 21.96H150.675V30H147.78V8.505H154.125Z" fill="#58A6FF"/>
<path d="M14.92 18.615L15.2183 19.5695L15.2274 19.5666L14.92 18.615ZM16.54 17.745L17.1922 18.503L17.1936 18.5018L16.54 17.745ZM17.53 16.395L18.451 16.7846L18.451 16.7846L17.53 16.395ZM16.6 11.775L15.988 12.5659L15.988 12.5659L16.6 11.775ZM9.64 10.8V9.8H8.64V10.8H9.64ZM9.64 18.915H8.64V19.915H9.64V18.915ZM22.63 30V31H24.6055L23.4359 29.408L22.63 30ZM18.88 29.385L19.7338 28.8644L19.7128 28.8299L19.689 28.7972L18.88 29.385ZM13.3 21.705L12.4839 22.2831L12.491 22.2928L13.3 21.705ZM12.745 21.195L12.244 22.0604L12.2704 22.0757L12.2978 22.0894L12.745 21.195ZM9.64 21.03V20.03H8.64V21.03H9.64ZM9.64 30V31H10.64V30H9.64ZM6.745 30H5.745V31H6.745V30ZM6.745 8.505V7.505H5.745V8.505H6.745ZM16.345 8.925L16.0728 9.8873L16.0819 9.88976L16.345 8.925ZM18.79 10.11L18.1594 10.8861L18.1653 10.8909L18.79 10.11ZM20.23 12L19.3077 12.3864L19.3096 12.3909L20.23 12ZM20.335 16.59L21.2748 16.9317L21.2748 16.9317L20.335 16.59ZM19.285 18.375L18.5298 17.7195L18.5288 17.7206L19.285 18.375ZM17.62 19.71L17.131 18.8377L17.1253 18.8409L17.62 19.71ZM15.4 20.55L15.1769 19.5752L12.6684 20.1494L14.9064 21.4197L15.4 20.55ZM16.36 21.465L15.5312 22.0245L15.5423 22.041L15.5541 22.057L16.36 21.465ZM12.7 19.915C13.6168 19.915 14.4609 19.8062 15.2183 19.5695L14.6217 17.6605C14.0991 17.8238 13.4632 17.915 12.7 17.915V19.915ZM15.2274 19.5666C15.9788 19.3238 16.643 18.9756 17.1922 18.503L15.8878 16.987C15.577 17.2544 15.1612 17.4862 14.6126 17.6634L15.2274 19.5666ZM17.1936 18.5018C17.7462 18.0246 18.1694 17.4502 18.451 16.7846L16.609 16.0054C16.4506 16.3798 16.2138 16.7054 15.8864 16.9882L17.1936 18.5018ZM18.451 16.7846C18.7288 16.1278 18.86 15.4183 18.86 14.67H16.86C16.86 15.1817 16.7712 15.6222 16.609 16.0054L18.451 16.7846ZM18.86 14.67C18.86 13.1514 18.3478 11.863 17.212 10.9841L15.988 12.5659C16.5322 12.987 16.86 13.6286 16.86 14.67H18.86ZM17.212 10.9841C16.1209 10.1398 14.6012 9.8 12.82 9.8V11.8C14.3988 11.8 15.3991 12.1102 15.988 12.5659L17.212 10.9841ZM12.82 9.8H9.64V11.8H12.82V9.8ZM8.64 10.8V18.915H10.64V10.8H8.64ZM9.64 19.915H12.7V17.915H9.64V19.915ZM22.63 29H20.05V31H22.63V29ZM20.05 29C19.9145 29 19.8504 28.9743 19.8253 28.9611C19.8046 28.9502 19.7734 28.9293 19.7338 28.8644L18.0262 29.9056C18.4792 30.6486 19.2146 31 20.05 31V29ZM19.689 28.7972L14.109 21.1172L12.491 22.2928L18.071 29.9728L19.689 28.7972ZM14.116 21.127C13.8799 20.7936 13.5784 20.4936 13.1922 20.3006L12.2978 22.0894C12.3116 22.0964 12.3801 22.1364 12.484 22.283L14.116 21.127ZM13.246 20.3296C12.8216 20.0839 12.3022 20.03 11.845 20.03V22.03C12.0087 22.03 12.123 22.0412 12.1972 22.0549C12.2749 22.0691 12.2787 22.0805 12.244 22.0604L13.246 20.3296ZM11.845 20.03H9.64V22.03H11.845V20.03ZM8.64 21.03V30H10.64V21.03H8.64ZM9.64 29H6.745V31H9.64V29ZM7.745 30V8.505H5.745V30H7.745ZM6.745 9.505H12.82V7.505H6.745V9.505ZM12.82 9.505C14.1156 9.505 15.1946 9.63885 16.0728 9.88725L16.6172 7.96274C15.5154 7.65115 14.2444 7.505 12.82 7.505V9.505ZM16.0819 9.88976C16.9695 10.1318 17.6504 10.4726 18.1594 10.8861L19.4206 9.33388C18.6496 8.70744 17.7005 8.25817 16.6081 7.96023L16.0819 9.88976ZM18.1653 10.8909C18.6897 11.3104 19.0648 11.8066 19.3077 12.3864L21.1523 11.6136C20.7752 10.7134 20.1903 9.94958 19.4147 9.32913L18.1653 10.8909ZM19.3096 12.3909C19.5599 12.9804 19.695 13.6647 19.695 14.46H21.695C21.695 13.4353 21.5201 12.4796 21.1504 11.6091L19.3096 12.3909ZM19.695 14.46C19.695 15.113 19.5922 15.7065 19.3952 16.2483L21.2748 16.9317C21.5578 16.1535 21.695 15.327 21.695 14.46H19.695ZM19.3952 16.2483C19.197 16.7934 18.9095 17.282 18.5298 17.7195L20.0402 19.0305C20.5805 18.408 20.993 17.7066 21.2748 16.9317L19.3952 16.2483ZM18.5288 17.7206C18.1618 18.1447 17.7001 18.5187 17.131 18.8377L18.109 20.5823C18.8599 20.1613 19.5082 19.6453 20.0412 19.0294L18.5288 17.7206ZM17.1253 18.8409C16.571 19.1565 15.9246 19.404 15.1769 19.5752L15.6231 21.5248C16.5354 21.316 17.369 21.0035 18.1147 20.5791L17.1253 18.8409ZM14.9064 21.4197C15.1252 21.5439 15.3358 21.7351 15.5312 22.0245L17.1888 20.9055C16.8442 20.3949 16.4148 19.9761 15.8936 19.6803L14.9064 21.4197ZM15.5541 22.057L21.8241 30.592L23.4359 29.408L17.1659 20.873L15.5541 22.057ZM44.4435 23.7L45.3781 24.0557L45.379 24.0534L44.4435 23.7ZM42.2835 27.165L41.5617 26.4729L41.5617 26.4729L42.2835 27.165ZM38.9235 29.43L39.301 30.356L39.3046 30.3545L38.9235 29.43ZM30.2835 29.43L29.8999 30.3535L29.906 30.356L30.2835 29.43ZM26.9385 27.165L26.2167 27.8571L26.2167 27.8571L26.9385 27.165ZM24.7785 23.7L23.843 24.0534L23.8439 24.0557L24.7785 23.7ZM24.7785 14.835L25.7131 15.1907L25.714 15.1884L24.7785 14.835ZM26.9385 11.355L27.6604 12.0471L27.6639 12.0434L26.9385 11.355ZM38.9235 9.075L38.5399 9.9985L38.5424 9.99953L38.9235 9.075ZM42.2835 11.355L41.5581 12.0434L41.5617 12.0471L42.2835 11.355ZM44.4435 14.835L43.508 15.1884L43.5089 15.1907L44.4435 14.835ZM40.1535 13.05L39.4117 13.7207L39.4164 13.7257L40.1535 13.05ZM37.7535 11.37L38.1367 10.4463L38.1367 10.4463L37.7535 11.37ZM31.4685 11.37L31.0853 10.4463L31.0853 10.4463L31.4685 11.37ZM29.0535 13.05L28.3168 12.3738L28.3164 12.3743L29.0535 13.05ZM27.5235 15.705L26.5776 15.3807L26.5776 15.3807L27.5235 15.705ZM27.5235 22.815L26.5776 23.1393L26.5785 23.1421L27.5235 22.815ZM29.0535 25.47L28.3117 26.1406L28.3166 26.146L28.3214 26.1512L29.0535 25.47ZM31.4685 27.135L31.0853 28.0587L31.0937 28.0621L31.4685 27.135ZM37.7535 27.135L38.1283 28.0621L38.1367 28.0587L37.7535 27.135ZM40.1535 25.47L40.8907 26.1457L40.8953 26.1406L40.1535 25.47ZM41.6835 22.815L42.6285 23.1421L42.6295 23.1393L41.6835 22.815ZM44.2085 19.26C44.2085 20.7632 43.9707 22.1218 43.508 23.3466L45.379 24.0534C45.9363 22.5782 46.2085 20.9768 46.2085 19.26H44.2085ZM43.5089 23.3443C43.0434 24.5675 42.3928 25.606 41.5617 26.4729L43.0053 27.8571C44.0342 26.784 44.8237 25.5125 45.3781 24.0557L43.5089 23.3443ZM41.5617 26.4729C40.7331 27.3372 39.731 28.0155 38.5424 28.5055L39.3046 30.3545C40.736 29.7645 41.974 28.9328 43.0053 27.8571L41.5617 26.4729ZM38.546 28.504C37.38 28.9794 36.0703 29.225 34.6035 29.225V31.225C36.2968 31.225 37.867 30.9406 39.301 30.356L38.546 28.504ZM34.6035 29.225C33.1368 29.225 31.827 28.9794 30.661 28.504L29.906 30.356C31.34 30.9406 32.9103 31.225 34.6035 31.225V29.225ZM30.6671 28.5065C29.4884 28.0169 28.4903 27.3385 27.6603 26.4729L26.2167 27.8571C27.2468 28.9315 28.4786 29.7631 29.8999 30.3535L30.6671 28.5065ZM27.6603 26.4729C26.8292 25.606 26.1787 24.5675 25.7131 23.3443L23.8439 24.0557C24.3984 25.5125 25.1878 26.784 26.2167 27.8571L27.6603 26.4729ZM25.714 23.3466C25.2513 22.1218 25.0135 20.7632 25.0135 19.26H23.0135C23.0135 20.9768 23.2857 22.5782 23.843 24.0534L25.714 23.3466ZM25.0135 19.26C25.0135 17.7567 25.2513 16.404 25.7131 15.1907L23.8439 14.4793C23.2857 15.946 23.0135 17.5433 23.0135 19.26H25.0135ZM25.714 15.1884C26.1799 13.9551 26.8304 12.9127 27.6603 12.0471L26.2167 10.6629C25.1866 11.7373 24.3971 13.0149 23.843 14.4816L25.714 15.1884ZM27.6639 12.0434C28.4936 11.169 29.4907 10.4872 30.6671 9.9985L29.8999 8.1515C28.4763 8.74283 27.2434 9.58097 26.2131 10.6666L27.6639 12.0434ZM30.6671 9.9985C31.8315 9.51483 33.1391 9.265 34.6035 9.265V7.265C32.9079 7.265 31.3355 7.55517 29.8999 8.1515L30.6671 9.9985ZM34.6035 9.265C36.0679 9.265 37.3755 9.51483 38.5399 9.9985L39.3071 8.1515C37.8715 7.55517 36.2991 7.265 34.6035 7.265V9.265ZM38.5424 9.99953C39.7288 10.4886 40.7297 11.1704 41.5581 12.0434L43.0089 10.6666C41.9773 9.57961 40.7382 8.74142 39.3046 8.15047L38.5424 9.99953ZM41.5617 12.0471C42.3916 12.9127 43.0421 13.9551 43.508 15.1884L45.379 14.4816C44.8249 13.0149 44.0354 11.7373 43.0053 10.6629L41.5617 12.0471ZM43.5089 15.1907C43.9707 16.404 44.2085 17.7567 44.2085 19.26H46.2085C46.2085 17.5433 45.9363 15.946 45.3781 14.4793L43.5089 15.1907ZM43.2235 19.26C43.2235 17.85 43.0313 16.5527 42.6295 15.3807L40.7376 16.0293C41.0557 16.9573 41.2235 18.03 41.2235 19.26H43.2235ZM42.6295 15.3807C42.2309 14.2181 41.6556 13.2087 40.8907 12.3743L39.4164 13.7257C39.9714 14.3313 40.4162 15.0919 40.7376 16.0293L42.6295 15.3807ZM40.8953 12.3794C40.1326 11.5357 39.2087 10.8911 38.1367 10.4463L37.3703 12.2937C38.1783 12.6289 38.8545 13.1043 39.4117 13.7206L40.8953 12.3794ZM38.1367 10.4463C37.0594 9.99938 35.8768 9.785 34.6035 9.785V11.785C35.6503 11.785 36.5676 11.9606 37.3703 12.2937L38.1367 10.4463ZM34.6035 9.785C33.339 9.785 32.1616 9.9998 31.0853 10.4463L31.8517 12.2937C32.6555 11.9602 33.568 11.785 34.6035 11.785V9.785ZM31.0853 10.4463C30.0146 10.8906 29.0879 11.5336 28.3168 12.3738L29.7903 13.7262C30.3591 13.1064 31.0424 12.6294 31.8517 12.2937L31.0853 10.4463ZM28.3164 12.3743C27.5514 13.2087 26.9762 14.2181 26.5776 15.3807L28.4695 16.0293C28.7909 15.0919 29.2356 14.3313 29.7907 13.7257L28.3164 12.3743ZM26.5776 15.3807C26.1757 16.5527 25.9835 17.85 25.9835 19.26H27.9835C27.9835 18.03 28.1513 16.9573 28.4695 16.0293L26.5776 15.3807ZM25.9835 19.26C25.9835 20.67 26.1757 21.9673 26.5776 23.1393L28.4695 22.4907C28.1513 21.5627 27.9835 20.49 27.9835 19.26H25.9835ZM26.5785 23.1421C26.9773 24.2941 27.5515 25.2998 28.3117 26.1406L29.7953 24.7994C29.2355 24.1802 28.7897 23.4159 28.4685 22.4879L26.5785 23.1421ZM28.3214 26.1512C29.0924 26.9798 30.0177 27.6157 31.0853 28.0587L31.8517 26.2113C31.0393 25.8743 30.3546 25.4002 29.7856 24.7888L28.3214 26.1512ZM31.0937 28.0621C32.1677 28.4963 33.3422 28.705 34.6035 28.705V26.705C33.5648 26.705 32.6493 26.5337 31.8433 26.2079L31.0937 28.0621ZM34.6035 28.705C35.8736 28.705 37.0533 28.4967 38.1283 28.0621L37.3787 26.2079C36.5737 26.5333 35.6534 26.705 34.6035 26.705V28.705ZM38.1367 28.0587C39.2056 27.6152 40.128 26.9777 40.8907 26.1457L39.4164 24.7943C38.859 25.4023 38.1815 25.8748 37.3703 26.2113L38.1367 28.0587ZM40.8953 26.1406C41.6555 25.2998 42.2297 24.2941 42.6285 23.1421L40.7385 22.4879C40.4173 23.4159 39.9715 24.1802 39.4117 24.7994L40.8953 26.1406ZM42.6295 23.1393C43.0313 21.9673 43.2235 20.67 43.2235 19.26H41.2235C41.2235 20.49 41.0557 21.5627 40.7376 22.4907L42.6295 23.1393ZM60.2303 22.02V23.02H61.6881L61.1632 21.6599L60.2303 22.02ZM56.8553 13.275L55.922 13.634L55.9224 13.6351L56.8553 13.275ZM56.5403 12.375L55.5863 12.6748L55.5889 12.6828L56.5403 12.375ZM56.2253 11.265L57.194 11.0166L55.2573 11.014L56.2253 11.265ZM55.5803 13.29L54.6542 12.9127L54.6508 12.921L54.6476 12.9294L55.5803 13.29ZM52.2053 22.02L51.2726 21.6594L50.7466 23.02H52.2053V22.02ZM66.2903 30V31H67.7672L67.2188 29.6287L66.2903 30ZM63.4103 29.805L62.7797 30.5811L62.7797 30.5811L63.4103 29.805ZM63.0503 29.31L62.1177 29.6712L62.1218 29.6814L63.0503 29.31ZM61.0403 24.12L61.9728 23.7589L61.7254 23.12H61.0403V24.12ZM51.3953 24.12V23.12H50.7102L50.4628 23.7589L51.3953 24.12ZM49.3853 29.31L48.4528 28.9489L48.4442 28.9711L48.4366 28.9938L49.3853 29.31ZM49.0403 29.79L49.676 30.5619L49.676 30.5619L49.0403 29.79ZM46.1603 30L45.2318 29.6287L44.6835 31H46.1603V30ZM54.7553 8.505V7.505H54.0782L53.8268 8.13372L54.7553 8.505ZM57.6953 8.505L58.6238 8.13372L58.3724 7.505H57.6953V8.505ZM61.1632 21.6599L57.7882 12.9149L55.9224 13.6351L59.2974 22.3801L61.1632 21.6599ZM57.7887 12.916C57.6967 12.6768 57.5977 12.3945 57.4918 12.0672L55.5889 12.6828C55.703 13.0355 55.814 13.3532 55.922 13.634L57.7887 12.916ZM57.4943 12.0752C57.3901 11.7437 57.29 11.391 57.194 11.0166L55.2566 11.5134C55.3607 11.919 55.4705 12.3063 55.5863 12.6748L57.4943 12.0752ZM55.2573 11.014C55.0541 11.7978 54.852 12.4273 54.6542 12.9127L56.5064 13.6673C56.7486 13.0727 56.9765 12.3522 57.1933 11.516L55.2573 11.014ZM54.6476 12.9294L51.2726 21.6594L53.138 22.3806L56.513 13.6506L54.6476 12.9294ZM52.2053 23.02H60.2303V21.02H52.2053V23.02ZM66.2903 29H64.0403V31H66.2903V29ZM64.0403 29C63.9928 29 63.9771 28.994 63.9835 28.996C63.9869 28.997 63.9949 28.9999 64.0059 29.0057C64.0171 29.0115 64.0291 29.0193 64.0409 29.0289L62.7797 30.5811C63.1604 30.8904 63.612 31 64.0403 31V29ZM64.0409 29.0289C64.0191 29.0111 63.9985 28.9879 63.9788 28.9386L62.1218 29.6814C62.2621 30.0321 62.4816 30.3389 62.7797 30.5811L64.0409 29.0289ZM63.9828 28.9489L61.9728 23.7589L60.1078 24.4811L62.1178 29.6711L63.9828 28.9489ZM61.0403 23.12H51.3953V25.12H61.0403V23.12ZM50.4628 23.7589L48.4528 28.9489L50.3178 29.6711L52.3278 24.4811L50.4628 23.7589ZM48.4366 28.9938C48.438 28.9898 48.4395 28.9863 48.4409 28.9836C48.4422 28.9809 48.4429 28.9802 48.442 28.9814C48.4405 28.9836 48.4307 28.9966 48.4046 29.0181L49.676 30.5619C49.9673 30.322 50.2055 30.0116 50.334 29.6262L48.4366 28.9938ZM48.4046 29.0181C48.4088 29.0146 48.4146 29.0105 48.4216 29.0066C48.4286 29.0028 48.4348 29.0003 48.4391 28.9988C48.4433 28.9974 48.4439 28.9976 48.4399 28.9983C48.4357 28.9989 48.4262 29 48.4103 29V31C48.8591 31 49.3029 30.8692 49.676 30.5619L48.4046 29.0181ZM48.4103 29H46.1603V31H48.4103V29ZM47.0888 30.3713L55.6838 8.87628L53.8268 8.13372L45.2318 29.6287L47.0888 30.3713ZM54.7553 9.505H57.6953V7.505H54.7553V9.505ZM56.7668 8.87628L65.3618 30.3713L67.2188 29.6287L58.6238 8.13372L56.7668 8.87628ZM84.823 27.045L84.1122 26.3417L84.1122 26.3417L84.823 27.045ZM81.463 29.235L81.8283 30.1659L81.832 30.1645L81.463 29.235ZM69.118 30H68.118V31H69.118V30ZM69.118 8.505V7.505H68.118V8.505H69.118ZM81.463 9.285L81.0916 10.2135L81.1003 10.2169L81.463 9.285ZM84.823 11.475L84.1084 12.1746L84.1122 12.1783L84.823 11.475ZM86.983 14.865L87.9158 14.5046L87.9158 14.5046L86.983 14.865ZM82.693 13.08L81.9559 13.7557L82.693 13.08ZM80.293 11.43L79.9183 12.3571L79.9183 12.3571L80.293 11.43ZM72.028 10.86V9.86H71.028V10.86H72.028ZM72.028 27.645H71.028V28.645H72.028V27.645ZM80.293 27.075L79.9183 26.1479L79.9183 26.1479L80.293 27.075ZM82.693 25.44L83.4255 26.1209L83.4302 26.1157L82.693 25.44ZM84.223 22.8L85.168 23.1271L85.168 23.1271L84.223 22.8ZM86.748 19.26C86.748 20.7636 86.5101 22.1043 86.0502 23.2946L87.9158 24.0154C88.4759 22.5657 88.748 20.9764 88.748 19.26H86.748ZM86.0502 23.2946C85.5863 24.4954 84.9387 25.5062 84.1122 26.3417L85.5339 27.7483C86.5674 26.7038 87.3598 25.4546 87.9158 24.0154L86.0502 23.2946ZM84.1122 26.3417C83.2856 27.1771 82.2843 27.8331 81.0941 28.3055L81.832 30.1645C83.2618 29.5969 84.5005 28.7929 85.5339 27.7483L84.1122 26.3417ZM81.0978 28.3041C79.9285 28.7628 78.6144 29 77.143 29V31C78.8317 31 80.3976 30.7272 81.8283 30.1659L81.0978 28.3041ZM77.143 29H69.118V31H77.143V29ZM70.118 30V8.505H68.118V30H70.118ZM69.118 9.505H77.143V7.505H69.118V9.505ZM77.143 9.505C78.6121 9.505 79.924 9.74641 81.0917 10.2135L81.8344 8.35652C80.4021 7.78359 78.834 7.505 77.143 7.505V9.505ZM81.1003 10.2169C82.2856 10.6783 83.2835 11.3319 84.1085 12.1745L85.5376 10.7755C84.5026 9.71811 83.2605 8.91167 81.8258 8.35313L81.1003 10.2169ZM84.1122 12.1783C84.9387 13.0138 85.5863 14.0246 86.0502 15.2254L87.9158 14.5046C87.3598 13.0654 86.5674 11.8162 85.5339 10.7717L84.1122 12.1783ZM86.0502 15.2254C86.5101 16.4157 86.748 17.7564 86.748 19.26H88.748C88.748 17.5436 88.4759 15.9543 87.9158 14.5046L86.0502 15.2254ZM85.763 19.26C85.763 17.8502 85.5709 16.5567 85.168 15.3929L83.2781 16.0471C83.5952 16.9633 83.763 18.0298 83.763 19.26H85.763ZM85.168 15.3929C84.769 14.2401 84.1936 13.2371 83.4302 12.4043L81.9559 13.7557C82.5125 14.3629 82.9571 15.1199 83.2781 16.0471L85.168 15.3929ZM83.4302 12.4043C82.6658 11.5703 81.7404 10.9365 80.6678 10.5029L79.9183 12.3571C80.7257 12.6835 81.4003 13.1497 81.9559 13.7557L83.4302 12.4043ZM80.6678 10.5029C79.5928 10.0683 78.4132 9.86 77.143 9.86V11.86C78.1929 11.86 79.1133 12.0317 79.9183 12.3571L80.6678 10.5029ZM77.143 9.86H72.028V11.86H77.143V9.86ZM71.028 10.86V27.645H73.028V10.86H71.028ZM72.028 28.645H77.143V26.645H72.028V28.645ZM77.143 28.645C78.4132 28.645 79.5928 28.4367 80.6678 28.0021L79.9183 26.1479C79.1133 26.4733 78.1929 26.645 77.143 26.645V28.645ZM80.6678 28.0021C81.7373 27.5698 82.6611 26.9431 83.4255 26.1208L81.9606 24.7592C81.4049 25.3569 80.7288 25.8202 79.9183 26.1479L80.6678 28.0021ZM83.4302 26.1157C84.1936 25.2829 84.769 24.2799 85.168 23.1271L83.2781 22.4729C82.9571 23.4001 82.5125 24.1571 81.9559 24.7643L83.4302 26.1157ZM85.168 23.1271C85.5709 21.9633 85.763 20.6698 85.763 19.26H83.763C83.763 20.4902 83.5952 21.5567 83.2781 22.4729L85.168 23.1271ZM121.981 8.505H122.981V7.505H121.981V8.505ZM121.981 30V31H122.981V30H121.981ZM119.431 30H118.431V31H119.431V30ZM119.446 13.53L118.45 13.447L118.448 13.4676L118.447 13.4884L119.446 13.53ZM119.506 12.795L120.503 12.8747L118.63 12.3137L119.506 12.795ZM112.126 26.235L111.25 25.7537L111.242 25.7667L111.236 25.7799L112.126 26.235ZM109.606 26.235L110.497 25.7799L110.488 25.7637L110.479 25.7479L109.606 26.235ZM102.076 12.735L102.949 12.2479L101.082 12.8475L102.076 12.735ZM102.166 30V31H103.166V30H102.166ZM99.6161 30H98.6161V31H99.6161V30ZM99.6161 8.505V7.505H98.6161V8.505H99.6161ZM102.766 9L103.638 8.51058L103.637 8.50794L102.766 9ZM110.191 22.23L111.086 21.7828L111.075 21.7614L111.063 21.7406L110.191 22.23ZM110.536 22.98L109.615 23.3696L109.621 23.3845L109.628 23.3991L110.536 22.98ZM110.866 23.775L109.928 24.1223L110.866 26.6542L111.804 24.1223L110.866 23.775ZM111.181 22.98L112.102 23.3697L112.107 23.3573L111.181 22.98ZM111.541 22.215L110.665 21.732L110.662 21.7387L111.541 22.215ZM118.831 9L119.707 9.48302L119.712 9.47286L119.718 9.46256L118.831 9ZM119.221 8.58L118.905 7.63132L118.895 7.63468L118.885 7.63826L119.221 8.58ZM120.981 8.505V30H122.981V8.505H120.981ZM121.981 29H119.431V31H121.981V29ZM120.431 30V14.205H118.431V30H120.431ZM120.431 14.205C120.431 14.0107 120.436 13.7997 120.445 13.5716L118.447 13.4884C118.436 13.7403 118.431 13.9793 118.431 14.205H120.431ZM120.443 13.613C120.463 13.3719 120.483 13.1258 120.503 12.8747L118.509 12.7153C118.489 12.9642 118.469 13.2081 118.45 13.447L120.443 13.613ZM118.63 12.3137L111.25 25.7537L113.003 26.7163L120.383 13.2763L118.63 12.3137ZM111.236 25.7799C111.209 25.8312 111.187 25.8618 111.173 25.8786C111.159 25.8947 111.151 25.8996 111.15 25.9001C111.15 25.9003 111.148 25.9016 111.141 25.9035C111.134 25.9056 111.114 25.91 111.076 25.91V27.91C111.477 27.91 111.875 27.8116 112.232 27.5824C112.584 27.3558 112.838 27.0387 113.017 26.6901L111.236 25.7799ZM111.076 25.91H110.656V27.91H111.076V25.91ZM110.656 25.91C110.619 25.91 110.598 25.9056 110.591 25.9035C110.584 25.9016 110.582 25.9003 110.582 25.9001C110.581 25.8996 110.573 25.8947 110.56 25.8786C110.545 25.8618 110.523 25.8312 110.497 25.7799L108.716 26.6901C108.894 27.0387 109.148 27.3558 109.5 27.5824C109.857 27.8116 110.255 27.91 110.656 27.91V25.91ZM110.479 25.7479L102.949 12.2479L101.203 13.2221L108.733 26.7221L110.479 25.7479ZM101.082 12.8475C101.139 13.3468 101.166 13.7987 101.166 14.205H103.166C103.166 13.7113 103.133 13.1832 103.07 12.6225L101.082 12.8475ZM101.166 14.205V30H103.166V14.205H101.166ZM102.166 29H99.6161V31H102.166V29ZM100.616 30V8.505H98.6161V30H100.616ZM99.6161 9.505H101.761V7.505H99.6161V9.505ZM101.761 9.505C101.861 9.505 101.933 9.50989 101.982 9.51603C102.033 9.52244 102.043 9.52819 102.025 9.52174L102.697 7.63826C102.398 7.53117 102.063 7.505 101.761 7.505V9.505ZM102.025 9.52174C101.912 9.48143 101.855 9.42473 101.847 9.41663C101.84 9.40864 101.858 9.4262 101.896 9.49206L103.637 8.50794C103.471 8.21511 103.183 7.81179 102.697 7.63826L102.025 9.52174ZM101.894 9.48941L109.319 22.7194L111.063 21.7406L103.638 8.51058L101.894 9.48941ZM109.297 22.6772C109.407 22.8974 109.513 23.1281 109.615 23.3696L111.457 22.5904C111.339 22.3119 111.215 22.0426 111.086 21.7828L109.297 22.6772ZM109.628 23.3991C109.737 23.6354 109.837 23.8765 109.928 24.1223L111.804 23.4277C111.695 23.1335 111.575 22.8446 111.444 22.5609L109.628 23.3991ZM111.804 24.1223C111.899 23.8663 111.998 23.6154 112.102 23.3696L110.26 22.5904C110.144 22.8646 110.034 23.1437 109.928 23.4277L111.804 24.1223ZM112.107 23.3573C112.204 23.1189 112.309 22.8971 112.42 22.6913L110.662 21.7387C110.513 22.0129 110.378 22.3011 110.255 22.6027L112.107 23.3573ZM112.417 22.698L119.707 9.48302L117.955 8.51697L110.665 21.732L112.417 22.698ZM119.718 9.46256C119.75 9.40053 119.764 9.38891 119.751 9.40295C119.737 9.41804 119.676 9.47954 119.557 9.52174L118.885 7.63826C118.384 7.81702 118.101 8.23654 117.945 8.53743L119.718 9.46256ZM119.537 9.52868C119.533 9.5301 119.553 9.52311 119.608 9.51639C119.662 9.50985 119.737 9.505 119.836 9.505V7.505C119.528 7.505 119.201 7.5325 118.905 7.63132L119.537 9.52868ZM119.836 9.505H121.981V7.505H119.836V9.505ZM138.892 22.02V23.02H140.35L139.825 21.6599L138.892 22.02ZM135.517 13.275L134.584 13.634L134.584 13.6351L135.517 13.275ZM135.202 12.375L134.248 12.6748L134.251 12.6828L135.202 12.375ZM134.887 11.265L135.856 11.0166L133.919 11.014L134.887 11.265ZM134.242 13.29L133.316 12.9127L133.313 12.921L133.31 12.9294L134.242 13.29ZM130.867 22.02L129.935 21.6594L129.409 23.02H130.867V22.02ZM144.952 30V31H146.429L145.881 29.6287L144.952 30ZM142.072 29.805L141.442 30.5811L141.442 30.5811L142.072 29.805ZM141.712 29.31L140.78 29.6712L140.784 29.6814L141.712 29.31ZM139.702 24.12L140.635 23.7589L140.388 23.12H139.702V24.12ZM130.057 24.12V23.12H129.372L129.125 23.7589L130.057 24.12ZM128.047 29.31L127.115 28.9489L127.106 28.9711L127.099 28.9938L128.047 29.31ZM127.702 29.79L128.338 30.5619L128.338 30.5619L127.702 29.79ZM124.822 30L123.894 29.6287L123.346 31H124.822V30ZM133.417 8.505V7.505H132.74L132.489 8.13372L133.417 8.505ZM136.357 8.505L137.286 8.13372L137.035 7.505H136.357V8.505ZM139.825 21.6599L136.45 12.9149L134.584 13.6351L137.959 22.3801L139.825 21.6599ZM136.451 12.916C136.359 12.6768 136.26 12.3945 136.154 12.0672L134.251 12.6828C134.365 13.0355 134.476 13.3532 134.584 13.634L136.451 12.916ZM136.156 12.0752C136.052 11.7437 135.952 11.391 135.856 11.0166L133.919 11.5134C134.023 11.919 134.133 12.3063 134.248 12.6748L136.156 12.0752ZM133.919 11.014C133.716 11.7978 133.514 12.4273 133.316 12.9127L135.169 13.6673C135.411 13.0727 135.639 12.3522 135.855 11.516L133.919 11.014ZM133.31 12.9294L129.935 21.6594L131.8 22.3806L135.175 13.6506L133.31 12.9294ZM130.867 23.02H138.892V21.02H130.867V23.02ZM144.952 29H142.702V31H144.952V29ZM142.702 29C142.655 29 142.639 28.994 142.646 28.996C142.649 28.997 142.657 28.9999 142.668 29.0057C142.679 29.0115 142.691 29.0193 142.703 29.0289L141.442 30.5811C141.822 30.8904 142.274 31 142.702 31V29ZM142.703 29.0289C142.681 29.0111 142.661 28.9879 142.641 28.9386L140.784 29.6814C140.924 30.0321 141.144 30.3389 141.442 30.5811L142.703 29.0289ZM142.645 28.9489L140.635 23.7589L138.77 24.4811L140.78 29.6711L142.645 28.9489ZM139.702 23.12H130.057V25.12H139.702V23.12ZM129.125 23.7589L127.115 28.9489L128.98 29.6711L130.99 24.4811L129.125 23.7589ZM127.099 28.9938C127.1 28.9898 127.102 28.9863 127.103 28.9836C127.104 28.9809 127.105 28.9802 127.104 28.9814C127.103 28.9836 127.093 28.9966 127.067 29.0181L128.338 30.5619C128.629 30.322 128.868 30.0116 128.996 29.6262L127.099 28.9938ZM127.067 29.0181C127.071 29.0146 127.077 29.0105 127.084 29.0066C127.091 29.0028 127.097 29.0003 127.101 28.9988C127.105 28.9974 127.106 28.9976 127.102 28.9983C127.098 28.9989 127.088 29 127.072 29V31C127.521 31 127.965 30.8692 128.338 30.5619L127.067 29.0181ZM127.072 29H124.822V31H127.072V29ZM125.751 30.3713L134.346 8.87628L132.489 8.13372L123.894 29.6287L125.751 30.3713ZM133.417 9.505H136.357V7.505H133.417V9.505ZM135.429 8.87628L144.024 30.3713L145.881 29.6287L137.286 8.13372L135.429 8.87628ZM156.315 19.32L155.99 18.3743L155.985 18.3759L156.315 19.32ZM157.92 18.405L158.592 19.1457L158.593 19.1449L157.92 18.405ZM158.91 16.98L159.839 17.3514L159.839 17.3514L158.91 16.98ZM157.965 11.955L157.289 12.6922L157.294 12.6961L157.965 11.955ZM150.675 10.8V9.8H149.675V10.8H150.675ZM150.675 19.65H149.675V20.65H150.675V19.65ZM157.665 8.985L157.36 9.93749L157.372 9.94098L157.665 8.985ZM160.17 10.32L159.51 11.0712L159.51 11.0712L160.17 10.32ZM161.64 12.42L160.709 12.7836L160.712 12.7933L161.64 12.42ZM161.61 17.91L160.689 17.5214L160.689 17.5214L161.61 17.91ZM160.065 20.055L159.404 19.3051L159.398 19.31L160.065 20.055ZM157.56 21.465L157.876 22.4137L157.882 22.4118L157.56 21.465ZM150.675 21.96V20.96H149.675V21.96H150.675ZM150.675 30V31H151.675V30H150.675ZM147.78 30H146.78V31H147.78V30ZM147.78 8.505V7.505H146.78V8.505H147.78ZM154.125 20.65C155.041 20.65 155.887 20.5289 156.645 20.2641L155.985 18.3759C155.484 18.5511 154.869 18.65 154.125 18.65V20.65ZM156.64 20.2657C157.387 20.0088 158.046 19.6407 158.592 19.1457L157.248 17.6643C156.934 17.9493 156.523 18.1912 155.99 18.3743L156.64 20.2657ZM158.593 19.1449C159.144 18.6435 159.562 18.0426 159.839 17.3514L157.982 16.6086C157.818 17.0174 157.576 17.3665 157.247 17.6651L158.593 19.1449ZM159.839 17.3514C160.111 16.6705 160.24 15.9377 160.24 15.165H158.24C158.24 15.7123 158.149 16.1895 157.982 16.6086L159.839 17.3514ZM160.24 15.165C160.24 13.5725 159.736 12.2102 158.637 11.2139L157.294 12.6961C157.894 13.2398 158.24 14.0175 158.24 15.165H160.24ZM158.641 11.2178C157.542 10.2104 155.971 9.8 154.125 9.8V11.8C155.719 11.8 156.708 12.1596 157.289 12.6922L158.641 11.2178ZM154.125 9.8H150.675V11.8H154.125V9.8ZM149.675 10.8V19.65H151.675V10.8H149.675ZM150.675 20.65H154.125V18.65H150.675V20.65ZM154.125 9.505C155.411 9.505 156.483 9.65668 157.36 9.93742L157.97 8.03258C156.847 7.67332 155.56 7.505 154.125 7.505V9.505ZM157.372 9.94098C158.273 10.2177 158.976 10.6016 159.51 11.0712L160.83 9.56883C160.045 8.87842 159.077 8.3723 157.959 8.02902L157.372 9.94098ZM159.51 11.0712C160.05 11.5453 160.447 12.1123 160.709 12.7835L162.572 12.0565C162.194 11.0877 161.611 10.2547 160.83 9.56883L159.51 11.0712ZM160.712 12.7933C160.988 13.479 161.135 14.2648 161.135 15.165H163.135C163.135 14.0452 162.952 13.001 162.568 12.0467L160.712 12.7933ZM161.135 15.165C161.135 16.0463 160.981 16.8273 160.689 17.5214L162.532 18.2986C162.939 17.3327 163.135 16.2837 163.135 15.165H161.135ZM160.689 17.5214C160.398 18.2121 159.972 18.8039 159.404 19.3052L160.727 20.8048C161.519 20.1061 162.123 19.2679 162.532 18.2986L160.689 17.5214ZM159.398 19.31C158.844 19.806 158.133 20.2141 157.238 20.5182L157.882 22.4118C158.988 22.0359 159.946 21.504 160.732 20.7999L159.398 19.31ZM157.244 20.5163C156.377 20.8052 155.343 20.96 154.125 20.96V22.96C155.507 22.96 156.763 22.7848 157.876 22.4137L157.244 20.5163ZM154.125 20.96H150.675V22.96H154.125V20.96ZM149.675 21.96V30H151.675V21.96H149.675ZM150.675 29H147.78V31H150.675V29ZM148.78 30V8.505H146.78V30H148.78ZM147.78 9.505H154.125V7.505H147.78V9.505Z" fill="#58A6FF"/>
</g>
<defs>
<filter id="filter0_d" x="0" y="36" width="167" height="18" filterUnits="userSpaceOnUse" color-interpolation-filters="sRGB">
<feFlood flood-opacity="0" result="BackgroundImageFix"/>
<feColorMatrix in="SourceAlpha" type="matrix" values="0 0 0 0 0 0 0 0 0 0 0 0 0 0 0 0 0 0 127 0"/>
<feOffset dy="4"/>
<feGaussianBlur stdDeviation="2"/>
<feColorMatrix type="matrix" values="0 0 0 0 0 0 0 0 0 0 0 0 0 0 0 0 0 0 0.25 0"/>
<feBlend mode="normal" in2="BackgroundImageFix" result="effect1_dropShadow"/>
<feBlend mode="normal" in="SourceGraphic" in2="effect1_dropShadow" result="shape"/>
</filter>
<filter id="filter1_d" x="1.745" y="7.265" width="165.39" height="31.96" filterUnits="userSpaceOnUse" color-interpolation-filters="sRGB">
<feFlood flood-opacity="0" result="BackgroundImageFix"/>
<feColorMatrix in="SourceAlpha" type="matrix" values="0 0 0 0 0 0 0 0 0 0 0 0 0 0 0 0 0 0 127 0"/>
<feOffset dy="4"/>
<feGaussianBlur stdDeviation="2"/>
<feColorMatrix type="matrix" values="0 0 0 0 0 0 0 0 0 0 0 0 0 0 0 0 0 0 0.25 0"/>
<feBlend mode="normal" in2="BackgroundImageFix" result="effect1_dropShadow"/>
<feBlend mode="normal" in="SourceGraphic" in2="effect1_dropShadow" result="shape"/>
</filter>
</defs>
</svg>
