<svg width="138" height="54" viewBox="0 0 138 54" fill="none" xmlns="http://www.w3.org/2000/svg">
<g filter="url(#filter0_d)">
<path d="M18.74 11.865C18.65 12.015 18.55 12.13 18.44 12.21C18.34 12.28 18.215 12.315 18.065 12.315C17.895 12.315 17.695 12.23 17.465 12.06C17.235 11.89 16.945 11.705 16.595 11.505C16.255 11.295 15.84 11.105 15.35 10.935C14.87 10.765 14.285 10.68 13.595 10.68C12.945 10.68 12.37 10.77 11.87 10.95C11.38 11.12 10.965 11.355 10.625 11.655C10.295 11.955 10.045 12.31 9.875 12.72C9.705 13.12 9.62 13.555 9.62 14.025C9.62 14.625 9.765 15.125 10.055 15.525C10.355 15.915 10.745 16.25 11.225 16.53C11.715 16.81 12.265 17.055 12.875 17.265C13.495 17.465 14.125 17.675 14.765 17.895C15.415 18.115 16.045 18.365 16.655 18.645C17.275 18.915 17.825 19.26 18.305 19.68C18.795 20.1 19.185 20.615 19.475 21.225C19.775 21.835 19.925 22.585 19.925 23.475C19.925 24.415 19.765 25.3 19.445 26.13C19.125 26.95 18.655 27.665 18.035 28.275C17.425 28.885 16.67 29.365 15.77 29.715C14.88 30.065 13.865 30.24 12.725 30.24C11.325 30.24 10.055 29.99 8.915 29.49C7.775 28.98 6.8 28.295 5.99 27.435L6.83 26.055C6.91 25.945 7.005 25.855 7.115 25.785C7.235 25.705 7.365 25.665 7.505 25.665C7.635 25.665 7.78 25.72 7.94 25.83C8.11 25.93 8.3 26.06 8.51 26.22C8.72 26.38 8.96 26.555 9.23 26.745C9.5 26.935 9.805 27.11 10.145 27.27C10.495 27.43 10.89 27.565 11.33 27.675C11.77 27.775 12.265 27.825 12.815 27.825C13.505 27.825 14.12 27.73 14.66 27.54C15.2 27.35 15.655 27.085 16.025 26.745C16.405 26.395 16.695 25.98 16.895 25.5C17.095 25.02 17.195 24.485 17.195 23.895C17.195 23.245 17.045 22.715 16.745 22.305C16.455 21.885 16.07 21.535 15.59 21.255C15.11 20.975 14.56 20.74 13.94 20.55C13.32 20.35 12.69 20.15 12.05 19.95C11.41 19.74 10.78 19.5 10.16 19.23C9.54 18.96 8.99 18.61 8.51 18.18C8.03 17.75 7.64 17.215 7.34 16.575C7.05 15.925 6.905 15.125 6.905 14.175C6.905 13.415 7.05 12.68 7.34 11.97C7.64 11.26 8.07 10.63 8.63 10.08C9.2 9.53 9.895 9.09 10.715 8.76C11.545 8.43 12.495 8.265 13.565 8.265C14.765 8.265 15.855 8.455 16.835 8.835C17.825 9.215 18.695 9.765 19.445 10.485L18.74 11.865ZM39.1241 25.56C39.2841 25.56 39.4241 25.625 39.5441 25.755L40.6991 27C39.8191 28.02 38.7491 28.815 37.4891 29.385C36.2391 29.955 34.7241 30.24 32.9441 30.24C31.4041 30.24 30.0041 29.975 28.7441 29.445C27.4841 28.905 26.4091 28.155 25.5191 27.195C24.6291 26.225 23.9391 25.065 23.4491 23.715C22.9591 22.365 22.7141 20.88 22.7141 19.26C22.7141 17.64 22.9691 16.155 23.4791 14.805C23.9891 13.455 24.7041 12.295 25.6241 11.325C26.5541 10.355 27.6641 9.605 28.9541 9.075C30.2441 8.535 31.6691 8.265 33.2291 8.265C34.7591 8.265 36.1091 8.51 37.2791 9C38.4491 9.49 39.4791 10.155 40.3691 10.995L39.4091 12.33C39.3491 12.43 39.2691 12.515 39.1691 12.585C39.0791 12.645 38.9541 12.675 38.7941 12.675C38.6141 12.675 38.3941 12.58 38.1341 12.39C37.8741 12.19 37.5341 11.97 37.1141 11.73C36.6941 11.49 36.1691 11.275 35.5391 11.085C34.9091 10.885 34.1341 10.785 33.2141 10.785C32.1041 10.785 31.0891 10.98 30.1691 11.37C29.2491 11.75 28.4541 12.305 27.7841 13.035C27.1241 13.765 26.6091 14.655 26.2391 15.705C25.8691 16.755 25.6841 17.94 25.6841 19.26C25.6841 20.6 25.8741 21.795 26.2541 22.845C26.6441 23.895 27.1691 24.785 27.8291 25.515C28.4991 26.235 29.2841 26.785 30.1841 27.165C31.0941 27.545 32.0741 27.735 33.1241 27.735C33.7641 27.735 34.3391 27.7 34.8491 27.63C35.3691 27.55 35.8441 27.43 36.2741 27.27C36.7141 27.11 37.1191 26.91 37.4891 26.67C37.8691 26.42 38.2441 26.125 38.6141 25.785C38.7841 25.635 38.9541 25.56 39.1241 25.56ZM50.0281 18.915C50.8681 18.915 51.6081 18.815 52.2481 18.615C52.8981 18.405 53.4381 18.115 53.8681 17.745C54.3081 17.365 54.6381 16.915 54.8581 16.395C55.0781 15.875 55.1881 15.3 55.1881 14.67C55.1881 13.39 54.7681 12.425 53.9281 11.775C53.0881 11.125 51.8281 10.8 50.1481 10.8H46.9681V18.915H50.0281ZM59.9581 30H57.3781C56.8481 30 56.4581 29.795 56.2081 29.385L50.6281 21.705C50.4581 21.465 50.2731 21.295 50.0731 21.195C49.8831 21.085 49.5831 21.03 49.1731 21.03H46.9681V30H44.0731V8.505H50.1481C51.5081 8.505 52.6831 8.645 53.6731 8.925C54.6631 9.195 55.4781 9.59 56.1181 10.11C56.7681 10.63 57.2481 11.26 57.5581 12C57.8681 12.73 58.0231 13.55 58.0231 14.46C58.0231 15.22 57.9031 15.93 57.6631 16.59C57.4231 17.25 57.0731 17.845 56.6131 18.375C56.1631 18.895 55.6081 19.34 54.9481 19.71C54.2981 20.08 53.5581 20.36 52.7281 20.55C53.0981 20.76 53.4181 21.065 53.6881 21.465L59.9581 30ZM76.1417 27.63L76.1267 30H62.8817V8.505H76.1267V10.875H65.7917V18.015H74.1617V20.295H65.7917V27.63H76.1417ZM93.4562 27.63L93.4412 30H80.1962V8.505H93.4412V10.875H83.1062V18.015H91.4762V20.295H83.1062V27.63H93.4562ZM114.926 8.505V30H113.471C113.241 30 113.046 29.96 112.886 29.88C112.736 29.8 112.586 29.665 112.436 29.475L100.001 13.275C100.021 13.525 100.036 13.77 100.046 14.01C100.056 14.25 100.061 14.475 100.061 14.685V30H97.5106V8.505H99.0106C99.1406 8.505 99.2506 8.515 99.3406 8.535C99.4306 8.545 99.5106 8.57 99.5806 8.61C99.6506 8.64 99.7206 8.69 99.7906 8.76C99.8606 8.82 99.9356 8.9 100.016 9L112.451 25.185C112.431 24.925 112.411 24.675 112.391 24.435C112.381 24.185 112.376 23.95 112.376 23.73V8.505H114.926ZM131.416 11.865C131.326 12.015 131.226 12.13 131.116 12.21C131.016 12.28 130.891 12.315 130.741 12.315C130.571 12.315 130.371 12.23 130.141 12.06C129.911 11.89 129.621 11.705 129.271 11.505C128.931 11.295 128.516 11.105 128.026 10.935C127.546 10.765 126.961 10.68 126.271 10.68C125.621 10.68 125.046 10.77 124.546 10.95C124.056 11.12 123.641 11.355 123.301 11.655C122.971 11.955 122.721 12.31 122.551 12.72C122.381 13.12 122.296 13.555 122.296 14.025C122.296 14.625 122.441 15.125 122.731 15.525C123.031 15.915 123.421 16.25 123.901 16.53C124.391 16.81 124.941 17.055 125.551 17.265C126.171 17.465 126.801 17.675 127.441 17.895C128.091 18.115 128.721 18.365 129.331 18.645C129.951 18.915 130.501 19.26 130.981 19.68C131.471 20.1 131.861 20.615 132.151 21.225C132.451 21.835 132.601 22.585 132.601 23.475C132.601 24.415 132.441 25.3 132.121 26.13C131.801 26.95 131.331 27.665 130.711 28.275C130.101 28.885 129.346 29.365 128.446 29.715C127.556 30.065 126.541 30.24 125.401 30.24C124.001 30.24 122.731 29.99 121.591 29.49C120.451 28.98 119.476 28.295 118.666 27.435L119.506 26.055C119.586 25.945 119.681 25.855 119.791 25.785C119.911 25.705 120.041 25.665 120.181 25.665C120.311 25.665 120.456 25.72 120.616 25.83C120.786 25.93 120.976 26.06 121.186 26.22C121.396 26.38 121.636 26.555 121.906 26.745C122.176 26.935 122.481 27.11 122.821 27.27C123.171 27.43 123.566 27.565 124.006 27.675C124.446 27.775 124.941 27.825 125.491 27.825C126.181 27.825 126.796 27.73 127.336 27.54C127.876 27.35 128.331 27.085 128.701 26.745C129.081 26.395 129.371 25.98 129.571 25.5C129.771 25.02 129.871 24.485 129.871 23.895C129.871 23.245 129.721 22.715 129.421 22.305C129.131 21.885 128.746 21.535 128.266 21.255C127.786 20.975 127.236 20.74 126.616 20.55C125.996 20.35 125.366 20.15 124.726 19.95C124.086 19.74 123.456 19.5 122.836 19.23C122.216 18.96 121.666 18.61 121.186 18.18C120.706 17.75 120.316 17.215 120.016 16.575C119.726 15.925 119.581 15.125 119.581 14.175C119.581 13.415 119.726 12.68 120.016 11.97C120.316 11.26 120.746 10.63 121.306 10.08C121.876 9.53 122.571 9.09 123.391 8.76C124.221 8.43 125.171 8.265 126.241 8.265C127.441 8.265 128.531 8.455 129.511 8.835C130.501 9.215 131.371 9.765 132.121 10.485L131.416 11.865Z" fill="#58A6FF"/>
<path d="M18.74 11.865L19.5975 12.3795L19.615 12.3503L19.6305 12.3199L18.74 11.865ZM18.44 12.21L19.0135 13.0292L19.0209 13.024L19.0282 13.0187L18.44 12.21ZM17.465 12.06L18.0594 11.2558L18.0594 11.2558L17.465 12.06ZM16.595 11.505L16.0695 12.3558L16.084 12.3648L16.0989 12.3732L16.595 11.505ZM15.35 10.935L15.0161 11.8776L15.0222 11.8798L15.35 10.935ZM11.87 10.95L12.1978 11.8948L12.2087 11.8909L11.87 10.95ZM10.625 11.655L9.96338 10.9052L9.95782 10.9101L9.95233 10.9151L10.625 11.655ZM9.875 12.72L10.7954 13.1112L10.7987 13.103L9.875 12.72ZM10.055 15.525L9.24539 16.112L9.25372 16.1235L9.26238 16.1347L10.055 15.525ZM11.225 16.53L10.7211 17.3938L10.7289 17.3982L11.225 16.53ZM12.875 17.265L12.5495 18.2105L12.5587 18.2137L12.568 18.2167L12.875 17.265ZM14.765 17.895L14.4399 18.8407L14.4444 18.8422L14.765 17.895ZM16.655 18.645L16.2378 19.5538L16.2467 19.5579L16.2557 19.5618L16.655 18.645ZM18.305 19.68L17.6465 20.4326L17.6542 20.4393L18.305 19.68ZM19.475 21.225L18.5718 21.6544L18.5777 21.6663L19.475 21.225ZM19.445 26.13L20.3766 26.4935L20.3781 26.4897L19.445 26.13ZM18.035 28.275L17.3336 27.5621L17.3279 27.5679L18.035 28.275ZM15.77 29.715L15.4076 28.783L15.404 28.7844L15.77 29.715ZM8.915 29.49L8.50662 30.4028L8.51334 30.4058L8.915 29.49ZM5.99 27.435L5.1358 26.9151L4.73961 27.5659L5.26205 28.1206L5.99 27.435ZM6.83 26.055L6.02126 25.4668L5.99713 25.5L5.9758 25.5351L6.83 26.055ZM7.115 25.785L7.65188 26.6287L7.66085 26.623L7.6697 26.6171L7.115 25.785ZM7.94 25.83L7.37347 26.654L7.40256 26.674L7.43298 26.6919L7.94 25.83ZM8.51 26.22L7.90396 27.0154L7.90396 27.0154L8.51 26.22ZM9.23 26.745L8.65451 27.5628L8.65451 27.5628L9.23 26.745ZM10.145 27.27L9.71918 28.1749L9.72924 28.1795L10.145 27.27ZM11.33 27.675L11.0875 28.6451L11.0979 28.6478L11.1084 28.6501L11.33 27.675ZM14.66 27.54L14.9919 28.4833L14.9919 28.4833L14.66 27.54ZM16.025 26.745L16.7016 27.4813L16.7025 27.4805L16.025 26.745ZM16.745 22.305L15.9221 22.8732L15.9299 22.8845L15.938 22.8955L16.745 22.305ZM13.94 20.55L13.633 21.5017L13.64 21.504L13.647 21.5061L13.94 20.55ZM12.05 19.95L11.7382 20.9002L11.745 20.9024L11.7517 20.9045L12.05 19.95ZM8.51 18.18L9.17725 17.4352L9.17725 17.4352L8.51 18.18ZM7.34 16.575L6.42677 16.9824L6.43058 16.991L6.43454 16.9994L7.34 16.575ZM7.34 11.97L6.41879 11.5808L6.41425 11.5919L7.34 11.97ZM8.63 10.08L7.9356 9.36035L7.92929 9.36655L8.63 10.08ZM10.715 8.76L10.3455 7.83075L10.3417 7.83231L10.715 8.76ZM16.835 8.835L16.4735 9.76737L16.4767 9.76859L16.835 8.835ZM19.445 10.485L20.3355 10.9399L20.6736 10.2782L20.1375 9.76361L19.445 10.485ZM17.8825 11.3505C17.8633 11.3825 17.8494 11.4001 17.8429 11.4076C17.8366 11.4148 17.839 11.4106 17.8518 11.4013L19.0282 13.0187C19.2731 12.8406 19.4573 12.6131 19.5975 12.3795L17.8825 11.3505ZM17.8665 11.3908C17.9698 11.3185 18.0574 11.315 18.065 11.315V13.315C18.3726 13.315 18.7102 13.2415 19.0135 13.0292L17.8665 11.3908ZM18.065 11.315C18.1462 11.315 18.188 11.3349 18.1786 11.3309C18.1751 11.3294 18.163 11.3239 18.142 11.3114C18.121 11.299 18.0935 11.2811 18.0594 11.2558L16.8706 12.8642C17.1664 13.0828 17.5787 13.315 18.065 13.315V11.315ZM18.0594 11.2558C17.7881 11.0553 17.4626 10.849 17.0911 10.6368L16.0989 12.3732C16.4274 12.561 16.6819 12.7247 16.8706 12.8642L18.0594 11.2558ZM17.1205 10.6542C16.703 10.3963 16.2177 10.1776 15.6778 9.99024L15.0222 11.8798C15.4623 12.0324 15.807 12.1937 16.0695 12.3558L17.1205 10.6542ZM15.6838 9.99237C15.0661 9.77359 14.3611 9.68 13.595 9.68V11.68C14.2089 11.68 14.6739 11.7564 15.0162 11.8776L15.6838 9.99237ZM13.595 9.68C12.8544 9.68 12.1611 9.78237 11.5313 10.0091L12.2087 11.8909C12.5789 11.7576 13.0356 11.68 13.595 11.68V9.68ZM11.5422 10.0052C10.9469 10.2118 10.4139 10.5076 9.96338 10.9052L11.2866 12.4048C11.5161 12.2024 11.8131 12.0282 12.1978 11.8948L11.5422 10.0052ZM9.95233 10.9151C9.51393 11.3136 9.17793 11.7903 8.95126 12.337L10.7987 13.103C10.9121 12.8297 11.0761 12.5964 11.2977 12.3949L9.95233 10.9151ZM8.95467 12.3289C8.72794 12.8623 8.62 13.4316 8.62 14.025H10.62C10.62 13.6784 10.6821 13.3777 10.7953 13.1111L8.95467 12.3289ZM8.62 14.025C8.62 14.7897 8.80706 15.5074 9.24539 16.112L10.8646 14.938C10.7229 14.7426 10.62 14.4603 10.62 14.025H8.62ZM9.26238 16.1347C9.65084 16.6397 10.1437 17.057 10.7211 17.3938L11.7289 15.6662C11.3463 15.443 11.0592 15.1903 10.8476 14.9153L9.26238 16.1347ZM10.7289 17.3982C11.2803 17.7133 11.8885 17.983 12.5495 18.2105L13.2005 16.3195C12.6415 16.127 12.1497 15.9067 11.7211 15.6618L10.7289 17.3982ZM12.568 18.2167C13.1817 18.4147 13.8057 18.6227 14.4399 18.8407L15.0901 16.9493C14.4443 16.7273 13.8083 16.5153 13.182 16.3133L12.568 18.2167ZM14.4444 18.8422C15.0623 19.0514 15.66 19.2886 16.2378 19.5538L17.0722 17.7362C16.43 17.4414 15.7677 17.1786 15.0856 16.9478L14.4444 18.8422ZM16.2557 19.5618C16.7871 19.7932 17.2485 20.0843 17.6465 20.4326L18.9635 18.9274C18.4015 18.4357 17.7629 18.0368 17.0543 17.7282L16.2557 19.5618ZM17.6542 20.4393C18.033 20.7639 18.3391 21.1648 18.5719 21.6544L20.3781 20.7956C20.0309 20.0652 19.557 19.4361 18.9558 18.9207L17.6542 20.4393ZM18.5777 21.6663C18.7926 22.1033 18.925 22.6925 18.925 23.475H20.925C20.925 22.4774 20.7574 21.5667 20.3724 20.7837L18.5777 21.6663ZM18.925 23.475C18.925 24.299 18.7852 25.0614 18.5119 25.7703L20.3781 26.4897C20.7448 25.5386 20.925 24.531 20.925 23.475H18.925ZM18.5134 25.7665C18.2441 26.4567 17.8519 27.0523 17.3337 27.5622L18.7363 28.9878C19.4581 28.2777 20.006 27.4433 20.3766 26.4935L18.5134 25.7665ZM17.3279 27.5679C16.827 28.0688 16.1938 28.4772 15.4076 28.783L16.1324 30.647C17.1462 30.2528 18.023 29.7012 18.7421 28.9821L17.3279 27.5679ZM15.404 28.7844C14.6506 29.0806 13.7633 29.24 12.725 29.24V31.24C13.9667 31.24 15.1094 31.0494 16.136 30.6456L15.404 28.7844ZM12.725 29.24C11.446 29.24 10.3151 29.0121 9.31666 28.5742L8.51334 30.4058C9.79486 30.9679 11.204 31.24 12.725 31.24V29.24ZM9.32337 28.5772C8.29686 28.118 7.43236 27.5079 6.71795 26.7494L5.26205 28.1206C6.16764 29.0821 7.25314 29.842 8.50663 30.4028L9.32337 28.5772ZM6.8442 27.9549L7.6842 26.5749L5.9758 25.5351L5.1358 26.9151L6.8442 27.9549ZM7.63874 26.6432C7.64412 26.6358 7.64767 26.6322 7.649 26.631C7.65025 26.6298 7.65101 26.6292 7.65188 26.6287L6.57812 24.9413C6.35773 25.0816 6.17182 25.2598 6.02126 25.4668L7.63874 26.6432ZM7.6697 26.6171C7.65412 26.6274 7.6294 26.6407 7.59659 26.6508C7.56353 26.6609 7.53174 26.665 7.505 26.665V24.665C7.16136 24.665 6.83932 24.7669 6.5603 24.9529L7.6697 26.6171ZM7.505 26.665C7.42793 26.665 7.37607 26.6486 7.3566 26.6412C7.33831 26.6343 7.34365 26.6335 7.37347 26.654L8.50653 25.006C8.25741 24.8347 7.91449 24.665 7.505 24.665V26.665ZM7.43298 26.6919C7.55944 26.7663 7.71576 26.872 7.90396 27.0154L9.11604 25.4246C8.88424 25.248 8.66056 25.0937 8.44702 24.9681L7.43298 26.6919ZM7.90396 27.0154C8.12611 27.1847 8.37661 27.3672 8.65451 27.5628L9.80549 25.9272C9.54339 25.7428 9.31389 25.5753 9.11604 25.4246L7.90396 27.0154ZM8.65451 27.5628C8.97774 27.7903 9.3339 27.9935 9.7192 28.1748L10.5708 26.3652C10.2761 26.2265 10.0223 26.0797 9.80549 25.9272L8.65451 27.5628ZM9.72924 28.1795C10.1438 28.369 10.5982 28.5228 11.0875 28.6451L11.5725 26.7049C11.1818 26.6072 10.8462 26.491 10.5608 26.3605L9.72924 28.1795ZM11.1084 28.6501C11.6349 28.7698 12.206 28.825 12.815 28.825V26.825C12.324 26.825 11.9051 26.7802 11.5516 26.6999L11.1084 28.6501ZM12.815 28.825C13.5955 28.825 14.3259 28.7176 14.9919 28.4833L14.3281 26.5967C13.9141 26.7424 13.4145 26.825 12.815 26.825V28.825ZM14.9919 28.4833C15.6419 28.2546 16.219 27.9248 16.7016 27.4813L15.3484 26.0087C15.091 26.2451 14.7581 26.4454 14.3281 26.5967L14.9919 28.4833ZM16.7025 27.4805C17.1894 27.032 17.5629 26.4971 17.8181 25.8846L15.9719 25.1154C15.8271 25.4629 15.6206 25.758 15.3475 26.0095L16.7025 27.4805ZM17.8181 25.8846C18.0752 25.2674 18.195 24.5993 18.195 23.895H16.195C16.195 24.3707 16.1148 24.7726 15.9719 25.1154L17.8181 25.8846ZM18.195 23.895C18.195 23.0923 18.0085 22.3384 17.552 21.7145L15.938 22.8955C16.0815 23.0916 16.195 23.3977 16.195 23.895H18.195ZM17.5679 21.7368C17.1873 21.1857 16.6892 20.7385 16.0939 20.3912L15.0861 22.1188C15.4508 22.3315 15.7227 22.5843 15.9221 22.8732L17.5679 21.7368ZM16.0939 20.3912C15.5374 20.0666 14.9147 19.8028 14.233 19.5939L13.647 21.5061C14.2053 21.6772 14.6826 21.8834 15.0861 22.1188L16.0939 20.3912ZM14.247 19.5983C13.624 19.3973 12.9911 19.1964 12.3483 18.9955L11.7517 20.9045C12.3889 21.1036 13.016 21.3027 13.633 21.5017L14.247 19.5983ZM12.3618 18.9998C11.7516 18.7996 11.1508 18.5707 10.5593 18.3132L9.76073 20.1468C10.4092 20.4293 11.0684 20.6804 11.7382 20.9002L12.3618 18.9998ZM10.5593 18.3132C10.0323 18.0837 9.57382 17.7904 9.17725 17.4352L7.84275 18.9248C8.40618 19.4296 9.04766 19.8363 9.76073 20.1468L10.5593 18.3132ZM9.17725 17.4352C8.80669 17.1032 8.49396 16.6807 8.24546 16.1506L6.43454 16.9994C6.78604 17.7493 7.25331 18.3968 7.84275 18.9248L9.17725 17.4352ZM8.25323 16.1676C8.03617 15.681 7.905 15.0292 7.905 14.175H5.905C5.905 15.2208 6.06383 16.169 6.42677 16.9824L8.25323 16.1676ZM7.905 14.175C7.905 13.5459 8.02432 12.9392 8.26575 12.3481L6.41425 11.5919C6.07568 12.4208 5.905 13.2841 5.905 14.175H7.905ZM8.26115 12.3592C8.50882 11.773 8.86309 11.2527 9.33071 10.7934L7.92929 9.36655C7.27691 10.0073 6.77118 10.747 6.41885 11.5808L8.26115 12.3592ZM9.32437 10.7996C9.7916 10.3488 10.3739 9.9752 11.0883 9.68769L10.3417 7.83231C9.41608 8.20479 8.6084 8.71121 7.93563 9.36038L9.32437 10.7996ZM11.0845 9.68925C11.7761 9.41425 12.5971 9.265 13.565 9.265V7.265C12.3929 7.265 11.3139 7.44575 10.3455 7.83075L11.0845 9.68925ZM13.565 9.265C14.6587 9.265 15.6239 9.43793 16.4735 9.76736L17.1965 7.90264C16.0861 7.47207 14.8713 7.265 13.565 7.265V9.265ZM16.4767 9.76859C17.3448 10.1018 18.1006 10.5806 18.7525 11.2064L20.1375 9.76361C19.2894 8.94944 18.3052 8.32819 17.1933 7.90141L16.4767 9.76859ZM18.5545 10.0301L17.8495 11.4101L19.6305 12.3199L20.3355 10.9399L18.5545 10.0301ZM39.5441 25.755L38.8093 26.4333L38.811 26.4351L39.5441 25.755ZM40.6991 27L41.4562 27.6532L42.0407 26.9758L41.4322 26.3199L40.6991 27ZM37.4891 29.385L37.0769 28.4739L37.0742 28.4751L37.4891 29.385ZM28.7441 29.445L28.3501 30.3642L28.3563 30.3668L28.7441 29.445ZM25.5191 27.195L24.7822 27.8711L24.7857 27.8749L25.5191 27.195ZM23.4491 23.715L24.3891 23.3738L24.3891 23.3738L23.4491 23.715ZM23.4791 14.805L24.4145 15.1584L24.4145 15.1584L23.4791 14.805ZM25.6241 11.325L24.9022 10.6329L24.8985 10.6368L25.6241 11.325ZM28.9541 9.075L29.3341 9.99999L29.3402 9.99744L28.9541 9.075ZM37.2791 9L37.6654 8.07762L37.6654 8.07762L37.2791 9ZM40.3691 10.995L41.1809 11.5788L41.6918 10.8684L41.0554 10.2678L40.3691 10.995ZM39.4091 12.33L38.5972 11.7462L38.5729 11.7799L38.5516 11.8155L39.4091 12.33ZM39.1691 12.585L39.7238 13.4171L39.7332 13.4107L39.7425 13.4042L39.1691 12.585ZM38.1341 12.39L37.5244 13.1826L37.5341 13.1901L37.544 13.1974L38.1341 12.39ZM37.1141 11.73L37.6102 10.8618L37.6102 10.8618L37.1141 11.73ZM35.5391 11.085L35.2365 12.0381L35.2434 12.0403L35.2503 12.0424L35.5391 11.085ZM30.1691 11.37L30.5508 12.2943L30.5594 12.2907L30.1691 11.37ZM27.7841 13.035L27.0473 12.3588L27.0423 12.3644L27.7841 13.035ZM26.2391 15.705L25.2959 15.3726L26.2391 15.705ZM26.2541 22.845L25.3137 23.1853L25.3166 23.1932L26.2541 22.845ZM27.8291 25.515L27.0873 26.1856L27.0921 26.191L27.097 26.1962L27.8291 25.515ZM30.1841 27.165L29.7951 28.0863L29.7987 28.0878L30.1841 27.165ZM34.8491 27.63L34.985 28.6207L34.9931 28.6196L35.0011 28.6184L34.8491 27.63ZM36.2741 27.27L35.9323 26.3302L35.9253 26.3328L36.2741 27.27ZM37.4891 26.67L38.0333 27.509L38.0387 27.5054L37.4891 26.67ZM38.6141 25.785L37.9524 25.0352L37.9449 25.0418L37.9374 25.0487L38.6141 25.785ZM39.1241 26.56C39.0641 26.56 38.9948 26.5468 38.928 26.5158C38.8634 26.4858 38.825 26.4504 38.8093 26.4333L40.2789 25.0767C39.9918 24.7657 39.5943 24.56 39.1241 24.56V26.56ZM38.811 26.4351L39.966 27.6801L41.4322 26.3199L40.2772 25.0749L38.811 26.4351ZM39.9419 26.3468C39.1594 27.2538 38.2082 27.9621 37.0769 28.4739L37.9012 30.2961C39.29 29.6679 40.4788 28.7862 41.4562 27.6532L39.9419 26.3468ZM37.0742 28.4751C35.9869 28.9709 34.6215 29.24 32.9441 29.24V31.24C34.8266 31.24 36.4912 30.9391 37.904 30.2949L37.0742 28.4751ZM32.9441 29.24C31.5204 29.24 30.2544 28.9954 29.1318 28.5232L28.3563 30.3668C29.7537 30.9546 31.2877 31.24 32.9441 31.24V29.24ZM29.138 28.5259C28.0004 28.0383 27.0428 27.3677 26.2524 26.5151L24.7857 27.8749C25.7754 28.9423 26.9677 29.7717 28.3501 30.3641L29.138 28.5259ZM26.2559 26.5189C25.4628 25.6546 24.8382 24.6112 24.3891 23.3738L22.5091 24.0562C23.0399 25.5188 23.7953 26.7954 24.7822 27.8711L26.2559 26.5189ZM24.3891 23.3738C23.9435 22.1462 23.7141 20.7784 23.7141 19.26H21.7141C21.7141 20.9816 21.9746 22.5838 22.5091 24.0562L24.3891 23.3738ZM23.7141 19.26C23.7141 17.746 23.9521 16.3825 24.4145 15.1584L22.5436 14.4516C21.986 15.9275 21.7141 17.534 21.7141 19.26H23.7141ZM24.4145 15.1584C24.8813 13.9229 25.5282 12.8792 26.3496 12.0132L24.8985 10.6368C23.8799 11.7108 23.0968 12.9871 22.5436 14.4516L24.4145 15.1584ZM26.3459 12.0171C27.1758 11.1515 28.168 10.4791 29.3341 9.99997L28.574 8.15002C27.1601 8.73094 25.9324 9.5585 24.9022 10.6329L26.3459 12.0171ZM29.3402 9.99744C30.4945 9.51424 31.7863 9.265 33.2291 9.265V7.265C31.5518 7.265 29.9936 7.55576 28.5679 8.15256L29.3402 9.99744ZM33.2291 9.265C34.6532 9.265 35.8676 9.49301 36.8928 9.92237L37.6654 8.07762C36.3506 7.52698 34.865 7.265 33.2291 7.265V9.265ZM36.8928 9.92237C37.9559 10.3676 38.8833 10.9678 39.6827 11.7222L41.0554 10.2678C40.0748 9.34219 38.9422 8.61237 37.6654 8.07762L36.8928 9.92237ZM39.5572 10.4112L38.5972 11.7462L40.2209 12.9138L41.1809 11.5788L39.5572 10.4112ZM38.5516 11.8155C38.5585 11.804 38.5668 11.793 38.5759 11.7834C38.5848 11.7739 38.5921 11.7682 38.5956 11.7658L39.7425 13.4042C39.9521 13.2576 40.131 13.0705 40.2666 12.8445L38.5516 11.8155ZM38.6144 11.7529C38.6839 11.7066 38.7435 11.6875 38.7744 11.6801C38.8043 11.6729 38.8137 11.675 38.7941 11.675V13.675C39.0622 13.675 39.4083 13.6273 39.7238 13.4171L38.6144 11.7529ZM38.7941 11.675C38.8775 11.675 38.9146 11.6961 38.8905 11.6857C38.8677 11.6759 38.813 11.6476 38.7241 11.5826L37.544 13.1974C37.8565 13.4257 38.2912 13.675 38.7941 13.675V11.675ZM38.7438 11.5974C38.4351 11.36 38.0531 11.1148 37.6102 10.8618L36.6179 12.5982C37.0151 12.8252 37.313 13.02 37.5244 13.1826L38.7438 11.5974ZM37.6102 10.8618C37.106 10.5736 36.5061 10.3322 35.8278 10.1276L35.2503 12.0424C35.832 12.2178 36.2821 12.4064 36.6179 12.5982L37.6102 10.8618ZM35.8416 10.1319C35.0838 9.8913 34.1997 9.785 33.2141 9.785V11.785C34.0684 11.785 34.7343 11.8787 35.2365 12.0381L35.8416 10.1319ZM33.2141 9.785C31.9849 9.785 30.8352 10.0015 29.7788 10.4493L30.5594 12.2907C31.3429 11.9585 32.2233 11.785 33.2141 11.785V9.785ZM29.7873 10.4457C28.7329 10.8812 27.8166 11.5207 27.0473 12.3588L28.5208 13.7112C29.0915 13.0893 29.7652 12.6188 30.5508 12.2943L29.7873 10.4457ZM27.0423 12.3644C26.2825 13.2047 25.7042 14.214 25.2959 15.3726L27.1822 16.0373C27.5139 15.096 27.9656 14.3253 28.5258 13.7056L27.0423 12.3644ZM25.2959 15.3726C24.882 16.5472 24.6841 17.8473 24.6841 19.26H26.6841C26.6841 18.0327 26.8561 16.9628 27.1822 16.0373L25.2959 15.3726ZM24.6841 19.26C24.6841 20.6935 24.8872 22.0068 25.3137 23.1853L27.1944 22.5047C26.8609 21.5832 26.6841 20.5065 26.6841 19.26H24.6841ZM25.3166 23.1932C25.7448 24.3458 26.3313 25.3495 27.0873 26.1856L28.5708 24.8444C28.0069 24.2205 27.5434 23.4442 27.1915 22.4968L25.3166 23.1932ZM27.097 26.1962C27.8625 27.0188 28.7642 27.651 29.7951 28.0862L30.573 26.2438C29.804 25.919 29.1357 25.4512 28.5611 24.8338L27.097 26.1962ZM29.7987 28.0878C30.8386 28.522 31.9505 28.735 33.1241 28.735V26.735C32.1977 26.735 31.3496 26.568 30.5694 26.2422L29.7987 28.0878ZM33.1241 28.735C33.7991 28.735 34.4207 28.6982 34.985 28.6207L34.7131 26.6393C34.2574 26.7018 33.729 26.735 33.1241 26.735V28.735ZM35.0011 28.6184C35.5787 28.5295 36.1207 28.3941 36.6228 28.2072L35.9253 26.3328C35.5675 26.4659 35.1594 26.5705 34.697 26.6416L35.0011 28.6184ZM36.6158 28.2098C37.1225 28.0255 37.596 27.7926 38.0333 27.509L36.9449 25.831C36.6421 26.0274 36.3056 26.1945 35.9323 26.3302L36.6158 28.2098ZM38.0387 27.5054C38.468 27.223 38.8851 26.894 39.2907 26.5213L37.9374 25.0487C37.603 25.356 37.2701 25.617 36.9394 25.8346L38.0387 27.5054ZM39.2757 26.5348C39.3 26.5134 39.2997 26.5193 39.2727 26.5312C39.2425 26.5445 39.1905 26.56 39.1241 26.56V24.56C38.639 24.56 38.2433 24.7785 37.9524 25.0352L39.2757 26.5348ZM52.2481 18.615L52.5464 19.5695L52.5556 19.5666L52.2481 18.615ZM53.8681 17.745L54.5204 18.503L54.5217 18.5018L53.8681 17.745ZM54.8581 16.395L55.7791 16.7846L55.7791 16.7846L54.8581 16.395ZM53.9281 11.775L53.3161 12.5659L53.3161 12.5659L53.9281 11.775ZM46.9681 10.8V9.8H45.9681V10.8H46.9681ZM46.9681 18.915H45.9681V19.915H46.9681V18.915ZM59.9581 30V31H61.9336L60.764 29.408L59.9581 30ZM56.2081 29.385L57.0619 28.8644L57.0409 28.8299L57.0171 28.7972L56.2081 29.385ZM50.6281 21.705L49.812 22.2831L49.8191 22.2928L50.6281 21.705ZM50.0731 21.195L49.5721 22.0604L49.5986 22.0757L49.6259 22.0894L50.0731 21.195ZM46.9681 21.03V20.03H45.9681V21.03H46.9681ZM46.9681 30V31H47.9681V30H46.9681ZM44.0731 30H43.0731V31H44.0731V30ZM44.0731 8.505V7.505H43.0731V8.505H44.0731ZM53.6731 8.925L53.401 9.8873L53.41 9.88976L53.6731 8.925ZM56.1181 10.11L55.4875 10.8861L55.4934 10.8909L56.1181 10.11ZM57.5581 12L56.6358 12.3864L56.6377 12.3909L57.5581 12ZM57.6631 16.59L58.6029 16.9317L58.6029 16.9317L57.6631 16.59ZM56.6131 18.375L55.8579 17.7195L55.857 17.7206L56.6131 18.375ZM54.9481 19.71L54.4591 18.8377L54.4534 18.8409L54.9481 19.71ZM52.7281 20.55L52.505 19.5752L49.9965 20.1494L52.2345 21.4197L52.7281 20.55ZM53.6881 21.465L52.8593 22.0245L52.8704 22.041L52.8822 22.057L53.6881 21.465ZM50.0281 19.915C50.9449 19.915 51.789 19.8062 52.5464 19.5695L51.9499 17.6605C51.4272 17.8238 50.7914 17.915 50.0281 17.915V19.915ZM52.5556 19.5666C53.3069 19.3238 53.9711 18.9756 54.5204 18.503L53.2159 16.987C52.9052 17.2544 52.4893 17.4862 51.9407 17.6634L52.5556 19.5666ZM54.5217 18.5018C55.0743 18.0246 55.4975 17.4502 55.7791 16.7846L53.9372 16.0054C53.7787 16.3798 53.542 16.7054 53.2145 16.9882L54.5217 18.5018ZM55.7791 16.7846C56.057 16.1278 56.1881 15.4183 56.1881 14.67H54.1881C54.1881 15.1817 54.0993 15.6222 53.9372 16.0054L55.7791 16.7846ZM56.1881 14.67C56.1881 13.1514 55.6759 11.863 54.5401 10.9841L53.3161 12.5659C53.8603 12.987 54.1881 13.6286 54.1881 14.67H56.1881ZM54.5401 10.9841C53.449 10.1398 51.9293 9.8 50.1481 9.8V11.8C51.7269 11.8 52.7273 12.1102 53.3161 12.5659L54.5401 10.9841ZM50.1481 9.8H46.9681V11.8H50.1481V9.8ZM45.9681 10.8V18.915H47.9681V10.8H45.9681ZM46.9681 19.915H50.0281V17.915H46.9681V19.915ZM59.9581 29H57.3781V31H59.9581V29ZM57.3781 29C57.2426 29 57.1786 28.9743 57.1534 28.9611C57.1327 28.9502 57.1015 28.9293 57.0619 28.8644L55.3543 29.9056C55.8074 30.6486 56.5428 31 57.3781 31V29ZM57.0171 28.7972L51.4371 21.1172L49.8191 22.2928L55.3991 29.9728L57.0171 28.7972ZM51.4442 21.127C51.208 20.7936 50.9065 20.4936 50.5203 20.3006L49.6259 22.0894C49.6398 22.0964 49.7082 22.1364 49.8121 22.283L51.4442 21.127ZM50.5742 20.3296C50.1497 20.0839 49.6304 20.03 49.1731 20.03V22.03C49.3368 22.03 49.4511 22.0412 49.5253 22.0549C49.6031 22.0691 49.6068 22.0805 49.5721 22.0604L50.5742 20.3296ZM49.1731 20.03H46.9681V22.03H49.1731V20.03ZM45.9681 21.03V30H47.9681V21.03H45.9681ZM46.9681 29H44.0731V31H46.9681V29ZM45.0731 30V8.505H43.0731V30H45.0731ZM44.0731 9.505H50.1481V7.505H44.0731V9.505ZM50.1481 9.505C51.4438 9.505 52.5227 9.63885 53.401 9.88725L53.9453 7.96274C52.8436 7.65115 51.5725 7.505 50.1481 7.505V9.505ZM53.41 9.88976C54.2976 10.1318 54.9785 10.4726 55.4875 10.8861L56.7487 9.33388C55.9777 8.70744 55.0287 8.25817 53.9362 7.96023L53.41 9.88976ZM55.4934 10.8909C56.0179 11.3104 56.3929 11.8066 56.6358 12.3864L58.4805 11.6136C58.1033 10.7134 57.5184 9.94958 56.7428 9.32913L55.4934 10.8909ZM56.6377 12.3909C56.888 12.9804 57.0231 13.6647 57.0231 14.46H59.0231C59.0231 13.4353 58.8482 12.4796 58.4786 11.6091L56.6377 12.3909ZM57.0231 14.46C57.0231 15.113 56.9203 15.7065 56.7233 16.2483L58.6029 16.9317C58.8859 16.1535 59.0231 15.327 59.0231 14.46H57.0231ZM56.7233 16.2483C56.5251 16.7934 56.2376 17.282 55.8579 17.7195L57.3683 19.0305C57.9086 18.408 58.3211 17.7066 58.6029 16.9317L56.7233 16.2483ZM55.857 17.7206C55.4899 18.1447 55.0282 18.5187 54.4591 18.8377L55.4371 20.5823C56.188 20.1613 56.8363 19.6453 57.3693 19.0294L55.857 17.7206ZM54.4534 18.8409C53.8991 19.1565 53.2527 19.404 52.505 19.5752L52.9513 21.5248C53.8635 21.316 54.6971 21.0035 55.4428 20.5791L54.4534 18.8409ZM52.2345 21.4197C52.4533 21.5439 52.6639 21.7351 52.8593 22.0245L54.517 20.9055C54.1723 20.3949 53.7429 19.9761 53.2217 19.6803L52.2345 21.4197ZM52.8822 22.057L59.1522 30.592L60.764 29.408L54.494 20.873L52.8822 22.057ZM76.1417 27.63L77.1417 27.6363L77.1481 26.63H76.1417V27.63ZM76.1267 30V31H77.1204L77.1267 30.0063L76.1267 30ZM62.8817 30H61.8817V31H62.8817V30ZM62.8817 8.505V7.505H61.8817V8.505H62.8817ZM76.1267 8.505H77.1267V7.505H76.1267V8.505ZM76.1267 10.875V11.875H77.1267V10.875H76.1267ZM65.7917 10.875V9.875H64.7917V10.875H65.7917ZM65.7917 18.015H64.7917V19.015H65.7917V18.015ZM74.1617 18.015H75.1617V17.015H74.1617V18.015ZM74.1617 20.295V21.295H75.1617V20.295H74.1617ZM65.7917 20.295V19.295H64.7917V20.295H65.7917ZM65.7917 27.63H64.7917V28.63H65.7917V27.63ZM75.1417 27.6237L75.1267 29.9937L77.1267 30.0063L77.1417 27.6363L75.1417 27.6237ZM76.1267 29H62.8817V31H76.1267V29ZM63.8817 30V8.505H61.8817V30H63.8817ZM62.8817 9.505H76.1267V7.505H62.8817V9.505ZM75.1267 8.505V10.875H77.1267V8.505H75.1267ZM76.1267 9.875H65.7917V11.875H76.1267V9.875ZM64.7917 10.875V18.015H66.7917V10.875H64.7917ZM65.7917 19.015H74.1617V17.015H65.7917V19.015ZM73.1617 18.015V20.295H75.1617V18.015H73.1617ZM74.1617 19.295H65.7917V21.295H74.1617V19.295ZM64.7917 20.295V27.63H66.7917V20.295H64.7917ZM65.7917 28.63H76.1417V26.63H65.7917V28.63ZM93.4562 27.63L94.4562 27.6363L94.4625 26.63H93.4562V27.63ZM93.4412 30V31H94.4349L94.4412 30.0063L93.4412 30ZM80.1962 30H79.1962V31H80.1962V30ZM80.1962 8.505V7.505H79.1962V8.505H80.1962ZM93.4412 8.505H94.4412V7.505H93.4412V8.505ZM93.4412 10.875V11.875H94.4412V10.875H93.4412ZM83.1062 10.875V9.875H82.1062V10.875H83.1062ZM83.1062 18.015H82.1062V19.015H83.1062V18.015ZM91.4762 18.015H92.4762V17.015H91.4762V18.015ZM91.4762 20.295V21.295H92.4762V20.295H91.4762ZM83.1062 20.295V19.295H82.1062V20.295H83.1062ZM83.1062 27.63H82.1062V28.63H83.1062V27.63ZM92.4562 27.6237L92.4412 29.9937L94.4412 30.0063L94.4562 27.6363L92.4562 27.6237ZM93.4412 29H80.1962V31H93.4412V29ZM81.1962 30V8.505H79.1962V30H81.1962ZM80.1962 9.505H93.4412V7.505H80.1962V9.505ZM92.4412 8.505V10.875H94.4412V8.505H92.4412ZM93.4412 9.875H83.1062V11.875H93.4412V9.875ZM82.1062 10.875V18.015H84.1062V10.875H82.1062ZM83.1062 19.015H91.4762V17.015H83.1062V19.015ZM90.4762 18.015V20.295H92.4762V18.015H90.4762ZM91.4762 19.295H83.1062V21.295H91.4762V19.295ZM82.1062 20.295V27.63H84.1062V20.295H82.1062ZM83.1062 28.63H93.4562V26.63H83.1062V28.63ZM114.926 8.505H115.926V7.505H114.926V8.505ZM114.926 30V31H115.926V30H114.926ZM112.886 29.88L112.415 30.7624L112.427 30.7685L112.438 30.7744L112.886 29.88ZM112.436 29.475L111.642 30.084L111.651 30.0946L112.436 29.475ZM100.001 13.275L100.794 12.6661L98.734 9.9826L99.0038 13.3547L100.001 13.275ZM100.046 14.01L101.045 13.9684L101.045 13.9684L100.046 14.01ZM100.061 30V31H101.061V30H100.061ZM97.5106 30H96.5106V31H97.5106V30ZM97.5106 8.505V7.505H96.5106V8.505H97.5106ZM99.3406 8.535L99.1237 9.51119L99.1765 9.52291L99.2302 9.52888L99.3406 8.535ZM99.5806 8.61L99.0845 9.47824L99.1341 9.50662L99.1867 9.52914L99.5806 8.61ZM99.7906 8.76L99.0835 9.4671L99.1107 9.49426L99.1398 9.51926L99.7906 8.76ZM100.016 9L100.809 8.39075L100.803 8.38297L100.796 8.3753L100.016 9ZM112.451 25.185L111.658 25.7942L113.705 28.4596L113.448 25.1083L112.451 25.185ZM112.391 24.435L111.391 24.475L111.392 24.4965L111.394 24.518L112.391 24.435ZM112.376 8.505V7.505H111.376V8.505H112.376ZM113.926 8.505V30H115.926V8.505H113.926ZM114.926 29H113.471V31H114.926V29ZM113.471 29C113.353 29 113.32 28.9792 113.333 28.9856L112.438 30.7744C112.771 30.9408 113.128 31 113.471 31V29ZM113.356 28.9976C113.365 29.0021 113.355 28.9985 113.33 28.9755C113.304 28.9524 113.267 28.9144 113.221 28.8554L111.651 30.0946C111.853 30.3504 112.103 30.596 112.415 30.7624L113.356 28.9976ZM113.229 28.8661L100.794 12.6661L99.2074 13.8839L111.642 30.0839L113.229 28.8661ZM99.0038 13.3547C99.0228 13.5926 99.037 13.8249 99.0465 14.0516L101.045 13.9684C101.034 13.7151 101.018 13.4574 100.997 13.1953L99.0038 13.3547ZM99.0465 14.0516C99.056 14.2797 99.0606 14.4907 99.0606 14.685H101.061C101.061 14.4593 101.055 14.2203 101.045 13.9684L99.0465 14.0516ZM99.0606 14.685V30H101.061V14.685H99.0606ZM100.061 29H97.5106V31H100.061V29ZM98.5106 30V8.505H96.5106V30H98.5106ZM97.5106 9.505H99.0106V7.505H97.5106V9.505ZM99.0106 9.505C99.0505 9.505 99.0799 9.50656 99.1001 9.50839C99.1206 9.51026 99.1276 9.51204 99.1237 9.51119L99.5576 7.55881C99.374 7.51801 99.1864 7.505 99.0106 7.505V9.505ZM99.2302 9.52888C99.2011 9.52565 99.1469 9.51392 99.0845 9.47824L100.077 7.74175C99.8743 7.62608 99.6601 7.56435 99.4511 7.54112L99.2302 9.52888ZM99.1867 9.52914C99.1105 9.49648 99.0778 9.46139 99.0835 9.4671L100.498 8.0529C100.363 7.91861 100.191 7.78352 99.9745 7.69085L99.1867 9.52914ZM99.1398 9.51926C99.1481 9.52632 99.18 9.55621 99.2348 9.62469L100.796 8.3753C100.691 8.24379 100.573 8.11368 100.441 8.00074L99.1398 9.51926ZM99.2226 9.60925L111.658 25.7942L113.244 24.5758L100.809 8.39075L99.2226 9.60925ZM113.448 25.1083C113.428 24.8464 113.407 24.5942 113.387 24.352L111.394 24.518C111.414 24.7558 111.434 25.0036 111.454 25.2617L113.448 25.1083ZM113.39 24.395C113.38 24.1566 113.376 23.935 113.376 23.73H111.376C111.376 23.965 111.381 24.2134 111.391 24.475L113.39 24.395ZM113.376 23.73V8.505H111.376V23.73H113.376ZM112.376 9.505H114.926V7.505H112.376V9.505ZM131.416 11.865L132.273 12.3795L132.291 12.3503L132.306 12.3199L131.416 11.865ZM131.116 12.21L131.689 13.0292L131.697 13.024L131.704 13.0187L131.116 12.21ZM130.141 12.06L130.735 11.2558L130.735 11.2558L130.141 12.06ZM129.271 11.505L128.745 12.3558L128.76 12.3648L128.775 12.3732L129.271 11.505ZM128.026 10.935L127.692 11.8776L127.698 11.8798L128.026 10.935ZM124.546 10.95L124.874 11.8948L124.885 11.8909L124.546 10.95ZM123.301 11.655L122.639 10.9052L122.634 10.9101L122.628 10.9151L123.301 11.655ZM122.551 12.72L123.471 13.1112L123.475 13.103L122.551 12.72ZM122.731 15.525L121.921 16.112L121.93 16.1235L121.938 16.1347L122.731 15.525ZM123.901 16.53L123.397 17.3938L123.405 17.3982L123.901 16.53ZM125.551 17.265L125.225 18.2105L125.234 18.2137L125.244 18.2167L125.551 17.265ZM127.441 17.895L127.116 18.8407L127.12 18.8422L127.441 17.895ZM129.331 18.645L128.914 19.5538L128.923 19.5579L128.932 19.5618L129.331 18.645ZM130.981 19.68L130.322 20.4326L130.33 20.4393L130.981 19.68ZM132.151 21.225L131.248 21.6544L131.253 21.6663L132.151 21.225ZM132.121 26.13L133.052 26.4935L133.054 26.4897L132.121 26.13ZM130.711 28.275L130.009 27.5621L130.004 27.5679L130.711 28.275ZM128.446 29.715L128.083 28.783L128.08 28.7844L128.446 29.715ZM121.591 29.49L121.182 30.4028L121.189 30.4058L121.591 29.49ZM118.666 27.435L117.812 26.9151L117.415 27.5659L117.938 28.1206L118.666 27.435ZM119.506 26.055L118.697 25.4668L118.673 25.5L118.652 25.5351L119.506 26.055ZM119.791 25.785L120.328 26.6287L120.337 26.623L120.345 26.6171L119.791 25.785ZM120.616 25.83L120.049 26.654L120.078 26.674L120.109 26.6919L120.616 25.83ZM121.186 26.22L120.58 27.0154L120.58 27.0154L121.186 26.22ZM121.906 26.745L121.33 27.5628L121.33 27.5628L121.906 26.745ZM122.821 27.27L122.395 28.1749L122.405 28.1795L122.821 27.27ZM124.006 27.675L123.763 28.6451L123.774 28.6478L123.784 28.6501L124.006 27.675ZM127.336 27.54L127.668 28.4833L127.668 28.4833L127.336 27.54ZM128.701 26.745L129.377 27.4813L129.378 27.4805L128.701 26.745ZM129.421 22.305L128.598 22.8732L128.606 22.8845L128.614 22.8955L129.421 22.305ZM126.616 20.55L126.309 21.5017L126.316 21.504L126.323 21.5061L126.616 20.55ZM124.726 19.95L124.414 20.9002L124.421 20.9024L124.428 20.9045L124.726 19.95ZM121.186 18.18L121.853 17.4352L121.853 17.4352L121.186 18.18ZM120.016 16.575L119.103 16.9824L119.106 16.991L119.11 16.9994L120.016 16.575ZM120.016 11.97L119.095 11.5808L119.09 11.5919L120.016 11.97ZM121.306 10.08L120.611 9.36035L120.605 9.36655L121.306 10.08ZM123.391 8.76L123.021 7.83075L123.017 7.83231L123.391 8.76ZM129.511 8.835L129.149 9.76737L129.152 9.76859L129.511 8.835ZM132.121 10.485L133.011 10.9399L133.349 10.2782L132.813 9.76361L132.121 10.485ZM130.558 11.3505C130.539 11.3825 130.525 11.4001 130.519 11.4076C130.512 11.4148 130.515 11.4106 130.528 11.4013L131.704 13.0187C131.949 12.8406 132.133 12.6131 132.273 12.3795L130.558 11.3505ZM130.542 11.3908C130.646 11.3185 130.733 11.315 130.741 11.315V13.315C131.048 13.315 131.386 13.2415 131.689 13.0292L130.542 11.3908ZM130.741 11.315C130.822 11.315 130.864 11.3349 130.854 11.3309C130.851 11.3294 130.839 11.3239 130.818 11.3114C130.797 11.299 130.769 11.2811 130.735 11.2558L129.546 12.8642C129.842 13.0828 130.254 13.315 130.741 13.315V11.315ZM130.735 11.2558C130.464 11.0553 130.138 10.849 129.767 10.6368L128.775 12.3732C129.103 12.561 129.358 12.7247 129.546 12.8642L130.735 11.2558ZM129.796 10.6542C129.379 10.3963 128.893 10.1776 128.354 9.99024L127.698 11.8798C128.138 12.0324 128.483 12.1937 128.745 12.3558L129.796 10.6542ZM128.36 9.99237C127.742 9.77359 127.037 9.68 126.271 9.68V11.68C126.885 11.68 127.35 11.7564 127.692 11.8776L128.36 9.99237ZM126.271 9.68C125.53 9.68 124.837 9.78237 124.207 10.0091L124.885 11.8909C125.255 11.7576 125.711 11.68 126.271 11.68V9.68ZM124.218 10.0052C123.623 10.2118 123.09 10.5076 122.639 10.9052L123.962 12.4048C124.192 12.2024 124.489 12.0282 124.874 11.8948L124.218 10.0052ZM122.628 10.9151C122.19 11.3136 121.854 11.7903 121.627 12.337L123.475 13.103C123.588 12.8297 123.752 12.5964 123.973 12.3949L122.628 10.9151ZM121.63 12.3289C121.404 12.8623 121.296 13.4316 121.296 14.025H123.296C123.296 13.6784 123.358 13.3777 123.471 13.1111L121.63 12.3289ZM121.296 14.025C121.296 14.7897 121.483 15.5074 121.921 16.112L123.54 14.938C123.399 14.7426 123.296 14.4603 123.296 14.025H121.296ZM121.938 16.1347C122.327 16.6397 122.82 17.057 123.397 17.3938L124.405 15.6662C124.022 15.443 123.735 15.1903 123.523 14.9153L121.938 16.1347ZM123.405 17.3982C123.956 17.7133 124.564 17.983 125.225 18.2105L125.876 16.3195C125.317 16.127 124.826 15.9067 124.397 15.6618L123.405 17.3982ZM125.244 18.2167C125.858 18.4147 126.481 18.6227 127.116 18.8407L127.766 16.9493C127.12 16.7273 126.484 16.5153 125.858 16.3133L125.244 18.2167ZM127.12 18.8422C127.738 19.0514 128.336 19.2886 128.914 19.5538L129.748 17.7362C129.106 17.4414 128.443 17.1786 127.761 16.9478L127.12 18.8422ZM128.932 19.5618C129.463 19.7932 129.924 20.0843 130.322 20.4326L131.639 18.9274C131.077 18.4357 130.439 18.0368 129.73 17.7282L128.932 19.5618ZM130.33 20.4393C130.709 20.7639 131.015 21.1648 131.248 21.6544L133.054 20.7956C132.707 20.0652 132.233 19.4361 131.632 18.9207L130.33 20.4393ZM131.253 21.6663C131.468 22.1033 131.601 22.6925 131.601 23.475H133.601C133.601 22.4774 133.433 21.5667 133.048 20.7837L131.253 21.6663ZM131.601 23.475C131.601 24.299 131.461 25.0614 131.188 25.7703L133.054 26.4897C133.421 25.5386 133.601 24.531 133.601 23.475H131.601ZM131.189 25.7665C130.92 26.4567 130.528 27.0523 130.009 27.5622L131.412 28.9878C132.134 28.2777 132.682 27.4433 133.052 26.4935L131.189 25.7665ZM130.004 27.5679C129.503 28.0688 128.87 28.4772 128.083 28.783L128.808 30.647C129.822 30.2528 130.699 29.7012 131.418 28.9821L130.004 27.5679ZM128.08 28.7844C127.326 29.0806 126.439 29.24 125.401 29.24V31.24C126.643 31.24 127.785 31.0494 128.812 30.6456L128.08 28.7844ZM125.401 29.24C124.122 29.24 122.991 29.0121 121.992 28.5742L121.189 30.4058C122.471 30.9679 123.88 31.24 125.401 31.24V29.24ZM121.999 28.5772C120.973 28.118 120.108 27.5079 119.394 26.7494L117.938 28.1206C118.843 29.0821 119.929 29.842 121.182 30.4028L121.999 28.5772ZM119.52 27.9549L120.36 26.5749L118.652 25.5351L117.812 26.9151L119.52 27.9549ZM120.315 26.6432C120.32 26.6358 120.323 26.6322 120.325 26.631C120.326 26.6298 120.327 26.6292 120.328 26.6287L119.254 24.9413C119.034 25.0816 118.848 25.2598 118.697 25.4668L120.315 26.6432ZM120.345 26.6171C120.33 26.6274 120.305 26.6407 120.272 26.6508C120.239 26.6609 120.208 26.665 120.181 26.665V24.665C119.837 24.665 119.515 24.7669 119.236 24.9529L120.345 26.6171ZM120.181 26.665C120.104 26.665 120.052 26.6486 120.032 26.6412C120.014 26.6343 120.019 26.6335 120.049 26.654L121.182 25.006C120.933 24.8347 120.59 24.665 120.181 24.665V26.665ZM120.109 26.6919C120.235 26.7663 120.392 26.872 120.58 27.0154L121.792 25.4246C121.56 25.248 121.336 25.0937 121.123 24.9681L120.109 26.6919ZM120.58 27.0154C120.802 27.1847 121.052 27.3672 121.33 27.5628L122.481 25.9272C122.219 25.7428 121.99 25.5753 121.792 25.4246L120.58 27.0154ZM121.33 27.5628C121.654 27.7903 122.01 27.9935 122.395 28.1748L123.247 26.3652C122.952 26.2265 122.698 26.0797 122.481 25.9272L121.33 27.5628ZM122.405 28.1795C122.82 28.369 123.274 28.5228 123.763 28.6451L124.248 26.7049C123.858 26.6072 123.522 26.491 123.237 26.3605L122.405 28.1795ZM123.784 28.6501C124.311 28.7698 124.882 28.825 125.491 28.825V26.825C125 26.825 124.581 26.7802 124.227 26.6999L123.784 28.6501ZM125.491 28.825C126.271 28.825 127.002 28.7176 127.668 28.4833L127.004 26.5967C126.59 26.7424 126.09 26.825 125.491 26.825V28.825ZM127.668 28.4833C128.318 28.2546 128.895 27.9248 129.377 27.4813L128.024 26.0087C127.767 26.2451 127.434 26.4454 127.004 26.5967L127.668 28.4833ZM129.378 27.4805C129.865 27.032 130.239 26.4971 130.494 25.8846L128.648 25.1154C128.503 25.4629 128.296 25.758 128.023 26.0095L129.378 27.4805ZM130.494 25.8846C130.751 25.2674 130.871 24.5993 130.871 23.895H128.871C128.871 24.3707 128.791 24.7726 128.648 25.1154L130.494 25.8846ZM130.871 23.895C130.871 23.0923 130.684 22.3384 130.228 21.7145L128.614 22.8955C128.757 23.0916 128.871 23.3977 128.871 23.895H130.871ZM130.244 21.7368C129.863 21.1857 129.365 20.7385 128.77 20.3912L127.762 22.1188C128.127 22.3315 128.398 22.5843 128.598 22.8732L130.244 21.7368ZM128.77 20.3912C128.213 20.0666 127.59 19.8028 126.909 19.5939L126.323 21.5061C126.881 21.6772 127.358 21.8834 127.762 22.1188L128.77 20.3912ZM126.923 19.5983C126.3 19.3973 125.667 19.1964 125.024 18.9955L124.428 20.9045C125.065 21.1036 125.692 21.3027 126.309 21.5017L126.923 19.5983ZM125.038 18.9998C124.427 18.7996 123.827 18.5707 123.235 18.3132L122.437 20.1468C123.085 20.4293 123.744 20.6804 124.414 20.9002L125.038 18.9998ZM123.235 18.3132C122.708 18.0837 122.25 17.7904 121.853 17.4352L120.519 18.9248C121.082 19.4296 121.723 19.8363 122.437 20.1468L123.235 18.3132ZM121.853 17.4352C121.482 17.1032 121.17 16.6807 120.921 16.1506L119.11 16.9994C119.462 17.7493 119.929 18.3968 120.519 18.9248L121.853 17.4352ZM120.929 16.1676C120.712 15.681 120.581 15.0292 120.581 14.175H118.581C118.581 15.2208 118.74 16.169 119.103 16.9824L120.929 16.1676ZM120.581 14.175C120.581 13.5459 120.7 12.9392 120.942 12.3481L119.09 11.5919C118.751 12.4208 118.581 13.2841 118.581 14.175H120.581ZM120.937 12.3592C121.185 11.773 121.539 11.2527 122.006 10.7934L120.605 9.36655C119.953 10.0073 119.447 10.747 119.095 11.5808L120.937 12.3592ZM122 10.7996C122.467 10.3488 123.05 9.9752 123.764 9.68769L123.017 7.83231C122.092 8.20479 121.284 8.71121 120.611 9.36038L122 10.7996ZM123.76 9.68925C124.452 9.41425 125.273 9.265 126.241 9.265V7.265C125.069 7.265 123.99 7.44575 123.021 7.83075L123.76 9.68925ZM126.241 9.265C127.334 9.265 128.3 9.43793 129.149 9.76736L129.872 7.90264C128.762 7.47207 127.547 7.265 126.241 7.265V9.265ZM129.152 9.76859C130.021 10.1018 130.776 10.5806 131.428 11.2064L132.813 9.76361C131.965 8.94944 130.981 8.32819 129.869 7.90141L129.152 9.76859ZM131.23 10.0301L130.525 11.4101L132.306 12.3199L133.011 10.9399L131.23 10.0301Z" fill="#58A6FF"/>
</g>
<g filter="url(#filter1_d)">
<rect x="5" y="36" width="129" height="10" rx="2" fill="#5965E0"/>
<rect x="5.5" y="36.5" width="128" height="9" rx="1.5" stroke="#5965E0"/>
</g>
<defs>
<filter id="filter0_d" x="0.739624" y="7.265" width="136.861" height="31.975" filterUnits="userSpaceOnUse" color-interpolation-filters="sRGB">
<feFlood flood-opacity="0" result="BackgroundImageFix"/>
<feColorMatrix in="SourceAlpha" type="matrix" values="0 0 0 0 0 0 0 0 0 0 0 0 0 0 0 0 0 0 127 0"/>
<feOffset dy="4"/>
<feGaussianBlur stdDeviation="2"/>
<feColorMatrix type="matrix" values="0 0 0 0 0 0 0 0 0 0 0 0 0 0 0 0 0 0 0.25 0"/>
<feBlend mode="normal" in2="BackgroundImageFix" result="effect1_dropShadow"/>
<feBlend mode="normal" in="SourceGraphic" in2="effect1_dropShadow" result="shape"/>
</filter>
<filter id="filter1_d" x="1" y="36" width="137" height="18" filterUnits="userSpaceOnUse" color-interpolation-filters="sRGB">
<feFlood flood-opacity="0" result="BackgroundImageFix"/>
<feColorMatrix in="SourceAlpha" type="matrix" values="0 0 0 0 0 0 0 0 0 0 0 0 0 0 0 0 0 0 127 0"/>
<feOffset dy="4"/>
<feGaussianBlur stdDeviation="2"/>
<feColorMatrix type="matrix" values="0 0 0 0 0 0 0 0 0 0 0 0 0 0 0 0 0 0 0.25 0"/>
<feBlend mode="normal" in2="BackgroundImageFix" result="effect1_dropShadow"/>
<feBlend mode="normal" in="SourceGraphic" in2="effect1_dropShadow" result="shape"/>
</filter>
</defs>
</svg>
