<svg width="236" height="54" viewBox="0 0 236 54" fill="none" xmlns="http://www.w3.org/2000/svg">
<g filter="url(#filter0_d)">
<path d="M22.28 10.95H15.32V30H12.425V10.95H5.45V8.505H22.28V10.95ZM38.7296 27.63L38.7146 30H25.4696V8.505H38.7146V10.875H28.3796V18.015H36.7496V20.295H28.3796V27.63H38.7296ZM57.4053 25.56C57.5653 25.56 57.7053 25.625 57.8253 25.755L58.9803 27C58.1003 28.02 57.0303 28.815 55.7703 29.385C54.5203 29.955 53.0053 30.24 51.2253 30.24C49.6853 30.24 48.2853 29.975 47.0253 29.445C45.7653 28.905 44.6903 28.155 43.8003 27.195C42.9103 26.225 42.2203 25.065 41.7303 23.715C41.2403 22.365 40.9953 20.88 40.9953 19.26C40.9953 17.64 41.2503 16.155 41.7603 14.805C42.2703 13.455 42.9853 12.295 43.9053 11.325C44.8353 10.355 45.9453 9.605 47.2353 9.075C48.5253 8.535 49.9503 8.265 51.5103 8.265C53.0403 8.265 54.3903 8.51 55.5603 9C56.7303 9.49 57.7603 10.155 58.6503 10.995L57.6903 12.33C57.6303 12.43 57.5503 12.515 57.4503 12.585C57.3603 12.645 57.2353 12.675 57.0753 12.675C56.8953 12.675 56.6753 12.58 56.4153 12.39C56.1553 12.19 55.8153 11.97 55.3953 11.73C54.9753 11.49 54.4503 11.275 53.8203 11.085C53.1903 10.885 52.4153 10.785 51.4953 10.785C50.3853 10.785 49.3703 10.98 48.4503 11.37C47.5303 11.75 46.7353 12.305 46.0653 13.035C45.4053 13.765 44.8903 14.655 44.5203 15.705C44.1503 16.755 43.9653 17.94 43.9653 19.26C43.9653 20.6 44.1553 21.795 44.5353 22.845C44.9253 23.895 45.4503 24.785 46.1103 25.515C46.7803 26.235 47.5653 26.785 48.4653 27.165C49.3753 27.545 50.3553 27.735 51.4053 27.735C52.0453 27.735 52.6203 27.7 53.1303 27.63C53.6503 27.55 54.1253 27.43 54.5553 27.27C54.9953 27.11 55.4003 26.91 55.7703 26.67C56.1503 26.42 56.5253 26.125 56.8953 25.785C57.0653 25.635 57.2353 25.56 57.4053 25.56ZM79.7694 8.505V30H76.8594V20.22H65.2644V30H62.3544V8.505H65.2644V18.09H76.8594V8.505H79.7694ZM102.68 8.505V30H101.225C100.995 30 100.8 29.96 100.64 29.88C100.49 29.8 100.34 29.665 100.19 29.475L87.7545 13.275C87.7745 13.525 87.7895 13.77 87.7995 14.01C87.8095 14.25 87.8145 14.475 87.8145 14.685V30H85.2645V8.505H86.7645C86.8945 8.505 87.0045 8.515 87.0945 8.535C87.1845 8.545 87.2645 8.57 87.3345 8.61C87.4045 8.64 87.4745 8.69 87.5445 8.76C87.6145 8.82 87.6895 8.9 87.7695 9L100.205 25.185C100.185 24.925 100.165 24.675 100.145 24.435C100.135 24.185 100.13 23.95 100.13 23.73V8.505H102.68ZM128.035 19.26C128.035 20.87 127.78 22.35 127.27 23.7C126.76 25.04 126.04 26.195 125.11 27.165C124.18 28.135 123.06 28.89 121.75 29.43C120.45 29.96 119.01 30.225 117.43 30.225C115.85 30.225 114.41 29.96 113.11 29.43C111.81 28.89 110.695 28.135 109.765 27.165C108.835 26.195 108.115 25.04 107.605 23.7C107.095 22.35 106.84 20.87 106.84 19.26C106.84 17.65 107.095 16.175 107.605 14.835C108.115 13.485 108.835 12.325 109.765 11.355C110.695 10.375 111.81 9.615 113.11 9.075C114.41 8.535 115.85 8.265 117.43 8.265C119.01 8.265 120.45 8.535 121.75 9.075C123.06 9.615 124.18 10.375 125.11 11.355C126.04 12.325 126.76 13.485 127.27 14.835C127.78 16.175 128.035 17.65 128.035 19.26ZM125.05 19.26C125.05 17.94 124.87 16.755 124.51 15.705C124.15 14.655 123.64 13.77 122.98 13.05C122.32 12.32 121.52 11.76 120.58 11.37C119.64 10.98 118.59 10.785 117.43 10.785C116.28 10.785 115.235 10.98 114.295 11.37C113.355 11.76 112.55 12.32 111.88 13.05C111.22 13.77 110.71 14.655 110.35 15.705C109.99 16.755 109.81 17.94 109.81 19.26C109.81 20.58 109.99 21.765 110.35 22.815C110.71 23.855 111.22 24.74 111.88 25.47C112.55 26.19 113.355 26.745 114.295 27.135C115.235 27.515 116.28 27.705 117.43 27.705C118.59 27.705 119.64 27.515 120.58 27.135C121.52 26.745 122.32 26.19 122.98 25.47C123.64 24.74 124.15 23.855 124.51 22.815C124.87 21.765 125.05 20.58 125.05 19.26ZM144.393 27.555V30H132.198V8.505H135.093V27.555H144.393ZM166.472 19.26C166.472 20.87 166.217 22.35 165.707 23.7C165.197 25.04 164.477 26.195 163.547 27.165C162.617 28.135 161.497 28.89 160.187 29.43C158.887 29.96 157.447 30.225 155.867 30.225C154.287 30.225 152.847 29.96 151.547 29.43C150.247 28.89 149.132 28.135 148.202 27.165C147.272 26.195 146.552 25.04 146.042 23.7C145.532 22.35 145.277 20.87 145.277 19.26C145.277 17.65 145.532 16.175 146.042 14.835C146.552 13.485 147.272 12.325 148.202 11.355C149.132 10.375 150.247 9.615 151.547 9.075C152.847 8.535 154.287 8.265 155.867 8.265C157.447 8.265 158.887 8.535 160.187 9.075C161.497 9.615 162.617 10.375 163.547 11.355C164.477 12.325 165.197 13.485 165.707 14.835C166.217 16.175 166.472 17.65 166.472 19.26ZM163.487 19.26C163.487 17.94 163.307 16.755 162.947 15.705C162.587 14.655 162.077 13.77 161.417 13.05C160.757 12.32 159.957 11.76 159.017 11.37C158.077 10.98 157.027 10.785 155.867 10.785C154.717 10.785 153.672 10.98 152.732 11.37C151.792 11.76 150.987 12.32 150.317 13.05C149.657 13.77 149.147 14.655 148.787 15.705C148.427 16.755 148.247 17.94 148.247 19.26C148.247 20.58 148.427 21.765 148.787 22.815C149.147 23.855 149.657 24.74 150.317 25.47C150.987 26.19 151.792 26.745 152.732 27.135C153.672 27.515 154.717 27.705 155.867 27.705C157.027 27.705 158.077 27.515 159.017 27.135C159.957 26.745 160.757 26.19 161.417 25.47C162.077 24.74 162.587 23.855 162.947 22.815C163.307 21.765 163.487 20.58 163.487 19.26ZM188.096 19.665V27.915C187.016 28.695 185.861 29.28 184.631 29.67C183.411 30.05 182.071 30.24 180.611 30.24C178.881 30.24 177.321 29.975 175.931 29.445C174.541 28.905 173.351 28.155 172.361 27.195C171.381 26.225 170.626 25.065 170.096 23.715C169.566 22.365 169.301 20.88 169.301 19.26C169.301 17.62 169.556 16.125 170.066 14.775C170.586 13.425 171.321 12.27 172.271 11.31C173.221 10.34 174.376 9.59 175.736 9.06C177.096 8.53 178.616 8.265 180.296 8.265C181.146 8.265 181.936 8.33 182.666 8.46C183.396 8.58 184.071 8.76 184.691 9C185.311 9.23 185.886 9.515 186.416 9.855C186.946 10.185 187.441 10.56 187.901 10.98L187.076 12.3C186.946 12.5 186.776 12.63 186.566 12.69C186.366 12.74 186.141 12.69 185.891 12.54C185.651 12.4 185.376 12.23 185.066 12.03C184.756 11.83 184.376 11.64 183.926 11.46C183.486 11.27 182.961 11.11 182.351 10.98C181.751 10.85 181.036 10.785 180.206 10.785C178.996 10.785 177.901 10.985 176.921 11.385C175.941 11.775 175.106 12.34 174.416 13.08C173.726 13.81 173.196 14.7 172.826 15.75C172.456 16.79 172.271 17.96 172.271 19.26C172.271 20.61 172.461 21.82 172.841 22.89C173.231 23.95 173.781 24.855 174.491 25.605C175.211 26.345 176.081 26.91 177.101 27.3C178.121 27.69 179.266 27.885 180.536 27.885C181.536 27.885 182.421 27.775 183.191 27.555C183.971 27.325 184.731 27.01 185.471 26.61V21.885H182.126C181.936 21.885 181.781 21.83 181.661 21.72C181.551 21.61 181.496 21.475 181.496 21.315V19.665H188.096ZM195.46 30H192.55V8.505H195.46V30ZM214.218 27.63L214.203 30H200.958V8.505H214.203V10.875H203.868V18.015H212.238V20.295H203.868V27.63H214.218ZM229.267 11.865C229.177 12.015 229.077 12.13 228.967 12.21C228.867 12.28 228.742 12.315 228.592 12.315C228.422 12.315 228.222 12.23 227.992 12.06C227.762 11.89 227.472 11.705 227.122 11.505C226.782 11.295 226.367 11.105 225.877 10.935C225.397 10.765 224.812 10.68 224.122 10.68C223.472 10.68 222.897 10.77 222.397 10.95C221.907 11.12 221.492 11.355 221.152 11.655C220.822 11.955 220.572 12.31 220.402 12.72C220.232 13.12 220.147 13.555 220.147 14.025C220.147 14.625 220.292 15.125 220.582 15.525C220.882 15.915 221.272 16.25 221.752 16.53C222.242 16.81 222.792 17.055 223.402 17.265C224.022 17.465 224.652 17.675 225.292 17.895C225.942 18.115 226.572 18.365 227.182 18.645C227.802 18.915 228.352 19.26 228.832 19.68C229.322 20.1 229.712 20.615 230.002 21.225C230.302 21.835 230.452 22.585 230.452 23.475C230.452 24.415 230.292 25.3 229.972 26.13C229.652 26.95 229.182 27.665 228.562 28.275C227.952 28.885 227.197 29.365 226.297 29.715C225.407 30.065 224.392 30.24 223.252 30.24C221.852 30.24 220.582 29.99 219.442 29.49C218.302 28.98 217.327 28.295 216.517 27.435L217.357 26.055C217.437 25.945 217.532 25.855 217.642 25.785C217.762 25.705 217.892 25.665 218.032 25.665C218.162 25.665 218.307 25.72 218.467 25.83C218.637 25.93 218.827 26.06 219.037 26.22C219.247 26.38 219.487 26.555 219.757 26.745C220.027 26.935 220.332 27.11 220.672 27.27C221.022 27.43 221.417 27.565 221.857 27.675C222.297 27.775 222.792 27.825 223.342 27.825C224.032 27.825 224.647 27.73 225.187 27.54C225.727 27.35 226.182 27.085 226.552 26.745C226.932 26.395 227.222 25.98 227.422 25.5C227.622 25.02 227.722 24.485 227.722 23.895C227.722 23.245 227.572 22.715 227.272 22.305C226.982 21.885 226.597 21.535 226.117 21.255C225.637 20.975 225.087 20.74 224.467 20.55C223.847 20.35 223.217 20.15 222.577 19.95C221.937 19.74 221.307 19.5 220.687 19.23C220.067 18.96 219.517 18.61 219.037 18.18C218.557 17.75 218.167 17.215 217.867 16.575C217.577 15.925 217.432 15.125 217.432 14.175C217.432 13.415 217.577 12.68 217.867 11.97C218.167 11.26 218.597 10.63 219.157 10.08C219.727 9.53 220.422 9.09 221.242 8.76C222.072 8.43 223.022 8.265 224.092 8.265C225.292 8.265 226.382 8.455 227.362 8.835C228.352 9.215 229.222 9.765 229.972 10.485L229.267 11.865Z" fill="#58A6FF"/>
<path d="M22.28 10.95V11.95H23.28V10.95H22.28ZM15.32 10.95V9.95H14.32V10.95H15.32ZM15.32 30V31H16.32V30H15.32ZM12.425 30H11.425V31H12.425V30ZM12.425 10.95H13.425V9.95H12.425V10.95ZM5.45 10.95H4.45V11.95H5.45V10.95ZM5.45 8.505V7.505H4.45V8.505H5.45ZM22.28 8.505H23.28V7.505H22.28V8.505ZM22.28 9.95H15.32V11.95H22.28V9.95ZM14.32 10.95V30H16.32V10.95H14.32ZM15.32 29H12.425V31H15.32V29ZM13.425 30V10.95H11.425V30H13.425ZM12.425 9.95H5.45V11.95H12.425V9.95ZM6.45 10.95V8.505H4.45V10.95H6.45ZM5.45 9.505H22.28V7.505H5.45V9.505ZM21.28 8.505V10.95H23.28V8.505H21.28ZM38.7296 27.63L39.7296 27.6363L39.736 26.63H38.7296V27.63ZM38.7146 30V31H39.7083L39.7146 30.0063L38.7146 30ZM25.4696 30H24.4696V31H25.4696V30ZM25.4696 8.505V7.505H24.4696V8.505H25.4696ZM38.7146 8.505H39.7146V7.505H38.7146V8.505ZM38.7146 10.875V11.875H39.7146V10.875H38.7146ZM28.3796 10.875V9.875H27.3796V10.875H28.3796ZM28.3796 18.015H27.3796V19.015H28.3796V18.015ZM36.7496 18.015H37.7496V17.015H36.7496V18.015ZM36.7496 20.295V21.295H37.7496V20.295H36.7496ZM28.3796 20.295V19.295H27.3796V20.295H28.3796ZM28.3796 27.63H27.3796V28.63H28.3796V27.63ZM37.7296 27.6237L37.7146 29.9937L39.7146 30.0063L39.7296 27.6363L37.7296 27.6237ZM38.7146 29H25.4696V31H38.7146V29ZM26.4696 30V8.505H24.4696V30H26.4696ZM25.4696 9.505H38.7146V7.505H25.4696V9.505ZM37.7146 8.505V10.875H39.7146V8.505H37.7146ZM38.7146 9.875H28.3796V11.875H38.7146V9.875ZM27.3796 10.875V18.015H29.3796V10.875H27.3796ZM28.3796 19.015H36.7496V17.015H28.3796V19.015ZM35.7496 18.015V20.295H37.7496V18.015H35.7496ZM36.7496 19.295H28.3796V21.295H36.7496V19.295ZM27.3796 20.295V27.63H29.3796V20.295H27.3796ZM28.3796 28.63H38.7296V26.63H28.3796V28.63ZM57.8253 25.755L57.0905 26.4333L57.0922 26.4351L57.8253 25.755ZM58.9803 27L59.7375 27.6532L60.3219 26.9758L59.7134 26.3199L58.9803 27ZM55.7703 29.385L55.3581 28.4739L55.3554 28.4751L55.7703 29.385ZM47.0253 29.445L46.6314 30.3642L46.6376 30.3668L47.0253 29.445ZM43.8003 27.195L43.0635 27.8711L43.067 27.8749L43.8003 27.195ZM41.7303 23.715L42.6703 23.3738L42.6703 23.3738L41.7303 23.715ZM41.7603 14.805L42.6958 15.1584L42.6958 15.1584L41.7603 14.805ZM43.9053 11.325L43.1835 10.6329L43.1798 10.6368L43.9053 11.325ZM47.2353 9.075L47.6154 9.99999L47.6215 9.99744L47.2353 9.075ZM55.5603 9L55.9466 8.07762L55.9466 8.07762L55.5603 9ZM58.6503 10.995L59.4622 11.5788L59.9731 10.8684L59.3367 10.2678L58.6503 10.995ZM57.6903 12.33L56.8784 11.7462L56.8542 11.7799L56.8328 11.8155L57.6903 12.33ZM57.4503 12.585L58.005 13.4171L58.0145 13.4107L58.0238 13.4042L57.4503 12.585ZM56.4153 12.39L55.8056 13.1826L55.8154 13.1901L55.8253 13.1974L56.4153 12.39ZM55.3953 11.73L55.8915 10.8618L55.8915 10.8618L55.3953 11.73ZM53.8203 11.085L53.5177 12.0381L53.5246 12.0403L53.5316 12.0424L53.8203 11.085ZM48.4503 11.37L48.8321 12.2943L48.8406 12.2907L48.4503 11.37ZM46.0653 13.035L45.3286 12.3588L45.3235 12.3644L46.0653 13.035ZM44.5203 15.705L43.5772 15.3726L44.5203 15.705ZM44.5353 22.845L43.595 23.1853L43.5979 23.1932L44.5353 22.845ZM46.1103 25.515L45.3685 26.1856L45.3734 26.191L45.3782 26.1962L46.1103 25.515ZM48.4653 27.165L48.0763 28.0863L48.08 28.0878L48.4653 27.165ZM53.1303 27.63L53.2663 28.6207L53.2743 28.6196L53.2824 28.6184L53.1303 27.63ZM54.5553 27.27L54.2136 26.3302L54.2066 26.3328L54.5553 27.27ZM55.7703 26.67L56.3145 27.509L56.3199 27.5054L55.7703 26.67ZM56.8953 25.785L56.2337 25.0352L56.2261 25.0418L56.2187 25.0487L56.8953 25.785ZM57.4053 26.56C57.3453 26.56 57.276 26.5468 57.2092 26.5158C57.1447 26.4858 57.1063 26.4504 57.0905 26.4333L58.5601 25.0767C58.2731 24.7657 57.8756 24.56 57.4053 24.56V26.56ZM57.0922 26.4351L58.2472 27.6801L59.7134 26.3199L58.5584 25.0749L57.0922 26.4351ZM58.2232 26.3468C57.4406 27.2538 56.4894 27.9621 55.3581 28.4739L56.1825 30.2961C57.5712 29.6679 58.76 28.7862 59.7375 27.6532L58.2232 26.3468ZM55.3554 28.4751C54.2682 28.9709 52.9028 29.24 51.2253 29.24V31.24C53.1079 31.24 54.7725 30.9391 56.1852 30.2949L55.3554 28.4751ZM51.2253 29.24C49.8017 29.24 48.5357 28.9954 47.413 28.5232L46.6376 30.3668C48.0349 30.9546 49.569 31.24 51.2253 31.24V29.24ZM47.4192 28.5259C46.2817 28.0383 45.324 27.3677 44.5336 26.5151L43.067 27.8749C44.0566 28.9423 45.249 29.7717 46.6314 30.3641L47.4192 28.5259ZM44.5372 26.5189C43.7441 25.6546 43.1194 24.6112 42.6703 23.3738L40.7903 24.0562C41.3212 25.5188 42.0765 26.7954 43.0635 27.8711L44.5372 26.5189ZM42.6703 23.3738C42.2247 22.1462 41.9953 20.7784 41.9953 19.26H39.9953C39.9953 20.9816 40.2559 22.5838 40.7903 24.0562L42.6703 23.3738ZM41.9953 19.26C41.9953 17.746 42.2334 16.3825 42.6958 15.1584L40.8248 14.4516C40.2673 15.9275 39.9953 17.534 39.9953 19.26H41.9953ZM42.6958 15.1584C43.1625 13.9229 43.8095 12.8792 44.6309 12.0132L43.1798 10.6368C42.1611 11.7108 41.3781 12.9871 40.8248 14.4516L42.6958 15.1584ZM44.6271 12.0171C45.457 11.1515 46.4493 10.4791 47.6153 9.99997L46.8553 8.15002C45.4414 8.73094 44.2136 9.5585 43.1835 10.6329L44.6271 12.0171ZM47.6215 9.99744C48.7758 9.51424 50.0676 9.265 51.5103 9.265V7.265C49.8331 7.265 48.2749 7.55576 46.8492 8.15256L47.6215 9.99744ZM51.5103 9.265C52.9344 9.265 54.1488 9.49301 55.174 9.92237L55.9466 8.07762C54.6318 7.52698 53.1462 7.265 51.5103 7.265V9.265ZM55.174 9.92237C56.2372 10.3676 57.1646 10.9678 57.9639 11.7222L59.3367 10.2678C58.356 9.34219 57.2234 8.61237 55.9466 8.07762L55.174 9.92237ZM57.8384 10.4112L56.8784 11.7462L58.5022 12.9138L59.4622 11.5788L57.8384 10.4112ZM56.8328 11.8155C56.8397 11.804 56.8481 11.793 56.8571 11.7834C56.8661 11.7739 56.8734 11.7682 56.8768 11.7658L58.0238 13.4042C58.2333 13.2576 58.4122 13.0705 58.5478 12.8445L56.8328 11.8155ZM56.8956 11.7529C56.9652 11.7066 57.0247 11.6875 57.0557 11.6801C57.0855 11.6729 57.095 11.675 57.0753 11.675V13.675C57.3435 13.675 57.6896 13.6273 58.005 13.4171L56.8956 11.7529ZM57.0753 11.675C57.1588 11.675 57.1959 11.6961 57.1717 11.6857C57.149 11.6759 57.0943 11.6476 57.0053 11.5826L55.8253 13.1974C56.1377 13.4257 56.5724 13.675 57.0753 13.675V11.675ZM57.025 11.5974C56.7164 11.36 56.3343 11.1148 55.8915 10.8618L54.8992 12.5982C55.2963 12.8252 55.5943 13.02 55.8056 13.1826L57.025 11.5974ZM55.8915 10.8618C55.3872 10.5736 54.7874 10.3322 54.1091 10.1276L53.5316 12.0424C54.1133 12.2178 54.5634 12.4064 54.8992 12.5982L55.8915 10.8618ZM54.1229 10.1319C53.3651 9.8913 52.4809 9.785 51.4953 9.785V11.785C52.3497 11.785 53.0155 11.8787 53.5177 12.0381L54.1229 10.1319ZM51.4953 9.785C50.2661 9.785 49.1165 10.0015 48.06 10.4493L48.8406 12.2907C49.6241 11.9585 50.5045 11.785 51.4953 11.785V9.785ZM48.0686 10.4457C47.0142 10.8812 46.0978 11.5207 45.3286 12.3588L46.802 13.7112C47.3728 13.0893 48.0465 12.6188 48.8321 12.2943L48.0686 10.4457ZM45.3235 12.3644C44.5637 13.2047 43.9854 14.214 43.5772 15.3726L45.4635 16.0373C45.7952 15.096 46.2469 14.3253 46.8071 13.7056L45.3235 12.3644ZM43.5772 15.3726C43.1633 16.5472 42.9653 17.8473 42.9653 19.26H44.9653C44.9653 18.0327 45.1373 16.9628 45.4635 16.0373L43.5772 15.3726ZM42.9653 19.26C42.9653 20.6935 43.1685 22.0068 43.595 23.1853L45.4756 22.5047C45.1421 21.5832 44.9653 20.5065 44.9653 19.26H42.9653ZM43.5979 23.1932C44.026 24.3458 44.6125 25.3495 45.3685 26.1856L46.8521 24.8444C46.2881 24.2205 45.8246 23.4442 45.4727 22.4968L43.5979 23.1932ZM45.3782 26.1962C46.1437 27.0188 47.0454 27.651 48.0763 28.0862L48.8543 26.2438C48.0852 25.919 47.4169 25.4512 46.8424 24.8338L45.3782 26.1962ZM48.08 28.0878C49.1198 28.522 50.2317 28.735 51.4053 28.735V26.735C50.4789 26.735 49.6308 26.568 48.8506 26.2422L48.08 28.0878ZM51.4053 28.735C52.0804 28.735 52.702 28.6982 53.2663 28.6207L52.9943 26.6393C52.5387 26.7018 52.0103 26.735 51.4053 26.735V28.735ZM53.2824 28.6184C53.8599 28.5295 54.4019 28.3941 54.904 28.2072L54.2066 26.3328C53.8487 26.4659 53.4407 26.5705 52.9783 26.6416L53.2824 28.6184ZM54.8971 28.2098C55.4038 28.0255 55.8773 27.7926 56.3145 27.509L55.2261 25.831C54.9233 26.0274 54.5868 26.1945 54.2136 26.3302L54.8971 28.2098ZM56.3199 27.5054C56.7492 27.223 57.1664 26.894 57.5719 26.5213L56.2187 25.0487C55.8842 25.356 55.5514 25.617 55.2207 25.8346L56.3199 27.5054ZM57.5569 26.5348C57.5812 26.5134 57.5809 26.5193 57.554 26.5312C57.5237 26.5445 57.4718 26.56 57.4053 26.56V24.56C56.9202 24.56 56.5246 24.7785 56.2337 25.0352L57.5569 26.5348ZM79.7694 8.505H80.7694V7.505H79.7694V8.505ZM79.7694 30V31H80.7694V30H79.7694ZM76.8594 30H75.8594V31H76.8594V30ZM76.8594 20.22H77.8594V19.22H76.8594V20.22ZM65.2644 20.22V19.22H64.2644V20.22H65.2644ZM65.2644 30V31H66.2644V30H65.2644ZM62.3544 30H61.3544V31H62.3544V30ZM62.3544 8.505V7.505H61.3544V8.505H62.3544ZM65.2644 8.505H66.2644V7.505H65.2644V8.505ZM65.2644 18.09H64.2644V19.09H65.2644V18.09ZM76.8594 18.09V19.09H77.8594V18.09H76.8594ZM76.8594 8.505V7.505H75.8594V8.505H76.8594ZM78.7694 8.505V30H80.7694V8.505H78.7694ZM79.7694 29H76.8594V31H79.7694V29ZM77.8594 30V20.22H75.8594V30H77.8594ZM76.8594 19.22H65.2644V21.22H76.8594V19.22ZM64.2644 20.22V30H66.2644V20.22H64.2644ZM65.2644 29H62.3544V31H65.2644V29ZM63.3544 30V8.505H61.3544V30H63.3544ZM62.3544 9.505H65.2644V7.505H62.3544V9.505ZM64.2644 8.505V18.09H66.2644V8.505H64.2644ZM65.2644 19.09H76.8594V17.09H65.2644V19.09ZM77.8594 18.09V8.505H75.8594V18.09H77.8594ZM76.8594 9.505H79.7694V7.505H76.8594V9.505ZM102.68 8.505H103.68V7.505H102.68V8.505ZM102.68 30V31H103.68V30H102.68ZM100.64 29.88L100.169 30.7624L100.181 30.7685L100.192 30.7744L100.64 29.88ZM100.19 29.475L99.3962 30.084L99.4046 30.0946L100.19 29.475ZM87.7545 13.275L88.5478 12.6661L86.4879 9.9826L86.7577 13.3547L87.7545 13.275ZM87.7995 14.01L88.7987 13.9684L88.7987 13.9684L87.7995 14.01ZM87.8145 30V31H88.8145V30H87.8145ZM85.2645 30H84.2645V31H85.2645V30ZM85.2645 8.505V7.505H84.2645V8.505H85.2645ZM87.0945 8.535L86.8776 9.51119L86.9304 9.52291L86.9841 9.52888L87.0945 8.535ZM87.3345 8.61L86.8384 9.47824L86.888 9.50662L86.9406 9.52914L87.3345 8.61ZM87.5445 8.76L86.8374 9.4671L86.8646 9.49426L86.8937 9.51926L87.5445 8.76ZM87.7695 9L88.5625 8.39075L88.5565 8.38297L88.5504 8.3753L87.7695 9ZM100.205 25.185L99.4116 25.7942L101.459 28.4596L101.202 25.1083L100.205 25.185ZM100.145 24.435L99.1453 24.475L99.1462 24.4965L99.148 24.518L100.145 24.435ZM100.13 8.505V7.505H99.1295V8.505H100.13ZM101.68 8.505V30H103.68V8.505H101.68ZM102.68 29H101.225V31H102.68V29ZM101.225 29C101.107 29 101.074 28.9792 101.087 28.9856L100.192 30.7744C100.525 30.9408 100.882 31 101.225 31V29ZM101.11 28.9976C101.118 29.0021 101.109 28.9985 101.083 28.9755C101.058 28.9524 101.021 28.9144 100.974 28.8554L99.4046 30.0946C99.6066 30.3504 99.8571 30.596 100.169 30.7624L101.11 28.9976ZM100.983 28.8661L88.5478 12.6661L86.9613 13.8839L99.3963 30.0839L100.983 28.8661ZM86.7577 13.3547C86.7767 13.5926 86.791 13.8249 86.8004 14.0516L88.7987 13.9684C88.7881 13.7151 88.7723 13.4574 88.7513 13.1953L86.7577 13.3547ZM86.8004 14.0516C86.8099 14.2797 86.8145 14.4907 86.8145 14.685H88.8145C88.8145 14.4593 88.8092 14.2203 88.7987 13.9684L86.8004 14.0516ZM86.8145 14.685V30H88.8145V14.685H86.8145ZM87.8145 29H85.2645V31H87.8145V29ZM86.2645 30V8.505H84.2645V30H86.2645ZM85.2645 9.505H86.7645V7.505H85.2645V9.505ZM86.7645 9.505C86.8044 9.505 86.8338 9.50656 86.854 9.50839C86.8745 9.51026 86.8815 9.51204 86.8776 9.51119L87.3115 7.55881C87.1279 7.51801 86.9403 7.505 86.7645 7.505V9.505ZM86.9841 9.52888C86.955 9.52565 86.9008 9.51392 86.8384 9.47824L87.8307 7.74175C87.6282 7.62608 87.414 7.56435 87.205 7.54112L86.9841 9.52888ZM86.9406 9.52914C86.8644 9.49648 86.8317 9.46139 86.8374 9.4671L88.2516 8.0529C88.1174 7.91861 87.9447 7.78352 87.7285 7.69085L86.9406 9.52914ZM86.8937 9.51926C86.902 9.52632 86.9339 9.55621 86.9887 9.62469L88.5504 8.3753C88.4452 8.24379 88.3271 8.11368 88.1953 8.00074L86.8937 9.51926ZM86.9766 9.60925L99.4116 25.7942L100.998 24.5758L88.5625 8.39075L86.9766 9.60925ZM101.202 25.1083C101.181 24.8464 101.161 24.5942 101.141 24.352L99.148 24.518C99.1678 24.7558 99.1876 25.0036 99.2075 25.2617L101.202 25.1083ZM101.144 24.395C101.134 24.1566 101.13 23.935 101.13 23.73H99.1295C99.1295 23.965 99.1349 24.2134 99.1453 24.475L101.144 24.395ZM101.13 23.73V8.505H99.1295V23.73H101.13ZM100.13 9.505H102.68V7.505H100.13V9.505ZM127.27 23.7L128.204 24.0557L128.205 24.0534L127.27 23.7ZM125.11 27.165L124.388 26.4729L124.388 26.4729L125.11 27.165ZM121.75 29.43L122.127 30.356L122.131 30.3545L121.75 29.43ZM113.11 29.43L112.726 30.3535L112.732 30.356L113.11 29.43ZM109.765 27.165L109.043 27.8571L109.043 27.8571L109.765 27.165ZM107.605 23.7L106.669 24.0534L106.67 24.0557L107.605 23.7ZM107.605 14.835L108.539 15.1907L108.54 15.1884L107.605 14.835ZM109.765 11.355L110.487 12.0471L110.49 12.0434L109.765 11.355ZM121.75 9.075L121.366 9.9985L121.369 9.99953L121.75 9.075ZM125.11 11.355L124.384 12.0434L124.388 12.0471L125.11 11.355ZM127.27 14.835L126.334 15.1884L126.335 15.1907L127.27 14.835ZM122.98 13.05L122.238 13.7207L122.243 13.7257L122.98 13.05ZM120.58 11.37L120.963 10.4463L120.963 10.4463L120.58 11.37ZM114.295 11.37L113.911 10.4463L113.911 10.4463L114.295 11.37ZM111.88 13.05L111.143 12.3738L111.143 12.3743L111.88 13.05ZM110.35 15.705L109.404 15.3807L109.404 15.3807L110.35 15.705ZM110.35 22.815L109.404 23.1393L109.405 23.1421L110.35 22.815ZM111.88 25.47L111.138 26.1406L111.143 26.146L111.148 26.1512L111.88 25.47ZM114.295 27.135L113.911 28.0587L113.92 28.0621L114.295 27.135ZM120.58 27.135L120.954 28.0621L120.963 28.0587L120.58 27.135ZM122.98 25.47L123.717 26.1457L123.721 26.1406L122.98 25.47ZM124.51 22.815L125.455 23.1421L125.456 23.1393L124.51 22.815ZM127.035 19.26C127.035 20.7632 126.797 22.1218 126.334 23.3466L128.205 24.0534C128.762 22.5782 129.035 20.9768 129.035 19.26H127.035ZM126.335 23.3443C125.87 24.5675 125.219 25.606 124.388 26.4729L125.832 27.8571C126.86 26.784 127.65 25.5125 128.204 24.0557L126.335 23.3443ZM124.388 26.4729C123.559 27.3372 122.557 28.0155 121.369 28.5055L122.131 30.3545C123.562 29.7645 124.8 28.9328 125.832 27.8571L124.388 26.4729ZM121.372 28.504C120.206 28.9794 118.896 29.225 117.43 29.225V31.225C119.123 31.225 120.693 30.9406 122.127 30.356L121.372 28.504ZM117.43 29.225C115.963 29.225 114.653 28.9794 113.487 28.504L112.732 30.356C114.166 30.9406 115.736 31.225 117.43 31.225V29.225ZM113.493 28.5065C112.315 28.0169 111.316 27.3385 110.487 26.4729L109.043 27.8571C110.073 28.9315 111.305 29.7631 112.726 30.3535L113.493 28.5065ZM110.487 26.4729C109.655 25.606 109.005 24.5675 108.539 23.3443L106.67 24.0557C107.225 25.5125 108.014 26.784 109.043 27.8571L110.487 26.4729ZM108.54 23.3466C108.077 22.1218 107.84 20.7632 107.84 19.26H105.84C105.84 20.9768 106.112 22.5782 106.669 24.0534L108.54 23.3466ZM107.84 19.26C107.84 17.7567 108.078 16.404 108.539 15.1907L106.67 14.4793C106.112 15.946 105.84 17.5433 105.84 19.26H107.84ZM108.54 15.1884C109.006 13.9551 109.657 12.9127 110.487 12.0471L109.043 10.6629C108.013 11.7373 107.223 13.0149 106.669 14.4816L108.54 15.1884ZM110.49 12.0434C111.32 11.169 112.317 10.4872 113.493 9.9985L112.726 8.1515C111.303 8.74283 110.07 9.58097 109.039 10.6666L110.49 12.0434ZM113.493 9.9985C114.658 9.51483 115.965 9.265 117.43 9.265V7.265C115.734 7.265 114.162 7.55517 112.726 8.1515L113.493 9.9985ZM117.43 9.265C118.894 9.265 120.202 9.51483 121.366 9.9985L122.133 8.1515C120.698 7.55517 119.125 7.265 117.43 7.265V9.265ZM121.369 9.99953C122.555 10.4886 123.556 11.1704 124.384 12.0434L125.835 10.6666C124.803 9.57961 123.564 8.74142 122.131 8.15047L121.369 9.99953ZM124.388 12.0471C125.218 12.9127 125.868 13.9551 126.334 15.1884L128.205 14.4816C127.651 13.0149 126.862 11.7373 125.832 10.6629L124.388 12.0471ZM126.335 15.1907C126.797 16.404 127.035 17.7567 127.035 19.26H129.035C129.035 17.5433 128.763 15.946 128.204 14.4793L126.335 15.1907ZM126.05 19.26C126.05 17.85 125.857 16.5527 125.456 15.3807L123.564 16.0293C123.882 16.9573 124.05 18.03 124.05 19.26H126.05ZM125.456 15.3807C125.057 14.2181 124.482 13.2087 123.717 12.3743L122.243 13.7257C122.798 14.3313 123.242 15.0919 123.564 16.0293L125.456 15.3807ZM123.721 12.3794C122.959 11.5357 122.035 10.8911 120.963 10.4463L120.196 12.2937C121.004 12.6289 121.681 13.1043 122.238 13.7206L123.721 12.3794ZM120.963 10.4463C119.886 9.99938 118.703 9.785 117.43 9.785V11.785C118.476 11.785 119.394 11.9606 120.196 12.2937L120.963 10.4463ZM117.43 9.785C116.165 9.785 114.988 9.9998 113.911 10.4463L114.678 12.2937C115.482 11.9602 116.394 11.785 117.43 11.785V9.785ZM113.911 10.4463C112.841 10.8906 111.914 11.5336 111.143 12.3738L112.616 13.7262C113.185 13.1064 113.869 12.6294 114.678 12.2937L113.911 10.4463ZM111.143 12.3743C110.378 13.2087 109.802 14.2181 109.404 15.3807L111.296 16.0293C111.617 15.0919 112.062 14.3313 112.617 13.7257L111.143 12.3743ZM109.404 15.3807C109.002 16.5527 108.81 17.85 108.81 19.26H110.81C110.81 18.03 110.977 16.9573 111.296 16.0293L109.404 15.3807ZM108.81 19.26C108.81 20.67 109.002 21.9673 109.404 23.1393L111.296 22.4907C110.977 21.5627 110.81 20.49 110.81 19.26H108.81ZM109.405 23.1421C109.803 24.2941 110.378 25.2998 111.138 26.1406L112.621 24.7994C112.062 24.1802 111.616 23.4159 111.295 22.4879L109.405 23.1421ZM111.148 26.1512C111.919 26.9798 112.844 27.6157 113.911 28.0587L114.678 26.2113C113.865 25.8743 113.181 25.4002 112.612 24.7888L111.148 26.1512ZM113.92 28.0621C114.994 28.4963 116.168 28.705 117.43 28.705V26.705C116.391 26.705 115.475 26.5337 114.669 26.2079L113.92 28.0621ZM117.43 28.705C118.7 28.705 119.879 28.4967 120.954 28.0621L120.205 26.2079C119.4 26.5333 118.48 26.705 117.43 26.705V28.705ZM120.963 28.0587C122.032 27.6152 122.954 26.9777 123.717 26.1457L122.243 24.7943C121.685 25.4023 121.008 25.8748 120.196 26.2113L120.963 28.0587ZM123.721 26.1406C124.482 25.2998 125.056 24.2941 125.455 23.1421L123.565 22.4879C123.243 23.4159 122.798 24.1802 122.238 24.7994L123.721 26.1406ZM125.456 23.1393C125.857 21.9673 126.05 20.67 126.05 19.26H124.05C124.05 20.49 123.882 21.5627 123.564 22.4907L125.456 23.1393ZM144.393 27.555H145.393V26.555H144.393V27.555ZM144.393 30V31H145.393V30H144.393ZM132.198 30H131.198V31H132.198V30ZM132.198 8.505V7.505H131.198V8.505H132.198ZM135.093 8.505H136.093V7.505H135.093V8.505ZM135.093 27.555H134.093V28.555H135.093V27.555ZM143.393 27.555V30H145.393V27.555H143.393ZM144.393 29H132.198V31H144.393V29ZM133.198 30V8.505H131.198V30H133.198ZM132.198 9.505H135.093V7.505H132.198V9.505ZM134.093 8.505V27.555H136.093V8.505H134.093ZM135.093 28.555H144.393V26.555H135.093V28.555ZM165.707 23.7L166.642 24.0557L166.643 24.0534L165.707 23.7ZM163.547 27.165L162.825 26.4729L162.825 26.4729L163.547 27.165ZM160.187 29.43L160.565 30.356L160.568 30.3545L160.187 29.43ZM151.547 29.43L151.164 30.3535L151.17 30.356L151.547 29.43ZM148.202 27.165L147.48 27.8571L147.48 27.8571L148.202 27.165ZM146.042 23.7L145.107 24.0534L145.108 24.0557L146.042 23.7ZM146.042 14.835L146.977 15.1907L146.978 15.1884L146.042 14.835ZM148.202 11.355L148.924 12.0471L148.928 12.0434L148.202 11.355ZM160.187 9.075L159.804 9.9985L159.806 9.99953L160.187 9.075ZM163.547 11.355L162.822 12.0434L162.825 12.0471L163.547 11.355ZM165.707 14.835L164.772 15.1884L164.773 15.1907L165.707 14.835ZM161.417 13.05L160.675 13.7207L160.68 13.7257L161.417 13.05ZM159.017 11.37L159.4 10.4463L159.4 10.4463L159.017 11.37ZM152.732 11.37L152.349 10.4463L152.349 10.4463L152.732 11.37ZM150.317 13.05L149.58 12.3738L149.58 12.3743L150.317 13.05ZM148.787 15.705L147.841 15.3807L147.841 15.3807L148.787 15.705ZM148.787 22.815L147.841 23.1393L147.842 23.1421L148.787 22.815ZM150.317 25.47L149.575 26.1406L149.58 26.146L149.585 26.1512L150.317 25.47ZM152.732 27.135L152.349 28.0587L152.357 28.0621L152.732 27.135ZM159.017 27.135L159.392 28.0621L159.4 28.0587L159.017 27.135ZM161.417 25.47L162.154 26.1457L162.159 26.1406L161.417 25.47ZM162.947 22.815L163.892 23.1421L163.893 23.1393L162.947 22.815ZM165.472 19.26C165.472 20.7632 165.234 22.1218 164.772 23.3466L166.643 24.0534C167.2 22.5782 167.472 20.9768 167.472 19.26H165.472ZM164.773 23.3443C164.307 24.5675 163.657 25.606 162.825 26.4729L164.269 27.8571C165.298 26.784 166.087 25.5125 166.642 24.0557L164.773 23.3443ZM162.825 26.4729C161.997 27.3372 160.995 28.0155 159.806 28.5055L160.568 30.3545C162 29.7645 163.238 28.9328 164.269 27.8571L162.825 26.4729ZM159.81 28.504C158.644 28.9794 157.334 29.225 155.867 29.225V31.225C157.56 31.225 159.131 30.9406 160.565 30.356L159.81 28.504ZM155.867 29.225C154.4 29.225 153.091 28.9794 151.925 28.504L151.17 30.356C152.604 30.9406 154.174 31.225 155.867 31.225V29.225ZM151.931 28.5065C150.752 28.0169 149.754 27.3385 148.924 26.4729L147.48 27.8571C148.51 28.9315 149.742 29.7631 151.164 30.3535L151.931 28.5065ZM148.924 26.4729C148.093 25.606 147.442 24.5675 146.977 23.3443L145.108 24.0557C145.662 25.5125 146.452 26.784 147.48 27.8571L148.924 26.4729ZM146.978 23.3466C146.515 22.1218 146.277 20.7632 146.277 19.26H144.277C144.277 20.9768 144.549 22.5782 145.107 24.0534L146.978 23.3466ZM146.277 19.26C146.277 17.7567 146.515 16.404 146.977 15.1907L145.108 14.4793C144.549 15.946 144.277 17.5433 144.277 19.26H146.277ZM146.978 15.1884C147.444 13.9551 148.094 12.9127 148.924 12.0471L147.48 10.6629C146.45 11.7373 145.661 13.0149 145.107 14.4816L146.978 15.1884ZM148.928 12.0434C149.757 11.169 150.754 10.4872 151.931 9.9985L151.164 8.1515C149.74 8.74283 148.507 9.58097 147.477 10.6666L148.928 12.0434ZM151.931 9.9985C153.095 9.51483 154.403 9.265 155.867 9.265V7.265C154.172 7.265 152.599 7.55517 151.164 8.1515L151.931 9.9985ZM155.867 9.265C157.332 9.265 158.639 9.51483 159.804 9.9985L160.571 8.1515C159.135 7.55517 157.563 7.265 155.867 7.265V9.265ZM159.806 9.99953C160.992 10.4886 161.993 11.1704 162.822 12.0434L164.273 10.6666C163.241 9.57961 162.002 8.74142 160.568 8.15047L159.806 9.99953ZM162.825 12.0471C163.655 12.9127 164.306 13.9551 164.772 15.1884L166.643 14.4816C166.089 13.0149 165.299 11.7373 164.269 10.6629L162.825 12.0471ZM164.773 15.1907C165.234 16.404 165.472 17.7567 165.472 19.26H167.472C167.472 17.5433 167.2 15.946 166.642 14.4793L164.773 15.1907ZM164.487 19.26C164.487 17.85 164.295 16.5527 163.893 15.3807L162.001 16.0293C162.319 16.9573 162.487 18.03 162.487 19.26H164.487ZM163.893 15.3807C163.495 14.2181 162.919 13.2087 162.154 12.3743L160.68 13.7257C161.235 14.3313 161.68 15.0919 162.001 16.0293L163.893 15.3807ZM162.159 12.3794C161.396 11.5357 160.472 10.8911 159.4 10.4463L158.634 12.2937C159.442 12.6289 160.118 13.1043 160.675 13.7206L162.159 12.3794ZM159.4 10.4463C158.323 9.99938 157.14 9.785 155.867 9.785V11.785C156.914 11.785 157.831 11.9606 158.634 12.2937L159.4 10.4463ZM155.867 9.785C154.603 9.785 153.425 9.9998 152.349 10.4463L153.115 12.2937C153.919 11.9602 154.832 11.785 155.867 11.785V9.785ZM152.349 10.4463C151.278 10.8906 150.352 11.5336 149.58 12.3738L151.054 13.7262C151.623 13.1064 152.306 12.6294 153.115 12.2937L152.349 10.4463ZM149.58 12.3743C148.815 13.2087 148.24 14.2181 147.841 15.3807L149.733 16.0293C150.055 15.0919 150.499 14.3313 151.054 13.7257L149.58 12.3743ZM147.841 15.3807C147.439 16.5527 147.247 17.85 147.247 19.26H149.247C149.247 18.03 149.415 16.9573 149.733 16.0293L147.841 15.3807ZM147.247 19.26C147.247 20.67 147.439 21.9673 147.841 23.1393L149.733 22.4907C149.415 21.5627 149.247 20.49 149.247 19.26H147.247ZM147.842 23.1421C148.241 24.2941 148.815 25.2998 149.575 26.1406L151.059 24.7994C150.499 24.1802 150.053 23.4159 149.732 22.4879L147.842 23.1421ZM149.585 26.1512C150.356 26.9798 151.281 27.6157 152.349 28.0587L153.115 26.2113C152.303 25.8743 151.618 25.4002 151.049 24.7888L149.585 26.1512ZM152.357 28.0621C153.431 28.4963 154.606 28.705 155.867 28.705V26.705C154.829 26.705 153.913 26.5337 153.107 26.2079L152.357 28.0621ZM155.867 28.705C157.137 28.705 158.317 28.4967 159.392 28.0621L158.642 26.2079C157.837 26.5333 156.917 26.705 155.867 26.705V28.705ZM159.4 28.0587C160.469 27.6152 161.392 26.9777 162.154 26.1457L160.68 24.7943C160.123 25.4023 159.445 25.8748 158.634 26.2113L159.4 28.0587ZM162.159 26.1406C162.919 25.2998 163.493 24.2941 163.892 23.1421L162.002 22.4879C161.681 23.4159 161.235 24.1802 160.675 24.7994L162.159 26.1406ZM163.893 23.1393C164.295 21.9673 164.487 20.67 164.487 19.26H162.487C162.487 20.49 162.319 21.5627 162.001 22.4907L163.893 23.1393ZM188.096 19.665H189.096V18.665H188.096V19.665ZM188.096 27.915L188.681 28.7257L189.096 28.4263V27.915H188.096ZM184.631 29.67L184.928 30.6248L184.933 30.6232L184.631 29.67ZM175.931 29.445L175.568 30.3771L175.574 30.3794L175.931 29.445ZM172.361 27.195L171.657 27.9058L171.664 27.9129L172.361 27.195ZM170.096 23.715L171.026 23.3496L171.026 23.3496L170.096 23.715ZM170.066 14.775L169.132 14.4155L169.13 14.4216L170.066 14.775ZM172.271 11.31L172.981 12.0134L172.985 12.0097L172.271 11.31ZM175.736 9.06L176.099 9.99175L176.099 9.99175L175.736 9.06ZM182.666 8.46L182.49 9.4446L182.503 9.44676L182.666 8.46ZM184.691 9L184.33 9.93266L184.343 9.93756L184.691 9ZM186.416 9.855L185.876 10.6968L185.887 10.7039L186.416 9.855ZM187.901 10.98L188.749 11.51L189.19 10.8034L188.575 10.2415L187.901 10.98ZM187.076 12.3L187.914 12.845L187.919 12.8375L187.924 12.83L187.076 12.3ZM186.566 12.69L186.808 13.6601L186.824 13.6561L186.84 13.6515L186.566 12.69ZM185.891 12.54L186.405 11.6824L186.394 11.6762L185.891 12.54ZM185.066 12.03L185.608 11.1897L185.608 11.1897L185.066 12.03ZM183.926 11.46L183.529 12.3781L183.542 12.3834L183.554 12.3885L183.926 11.46ZM182.351 10.98L182.139 11.9573L182.142 11.958L182.351 10.98ZM176.921 11.385L177.29 12.3142L177.299 12.3108L176.921 11.385ZM174.416 13.08L175.142 13.7669L175.147 13.762L174.416 13.08ZM172.826 15.75L173.768 16.0852L173.769 16.0823L172.826 15.75ZM172.841 22.89L171.898 23.2247L171.902 23.2353L172.841 22.89ZM174.491 25.605L173.764 26.2925L173.774 26.3024L174.491 25.605ZM183.191 27.555L183.465 28.5166L183.473 28.5142L183.191 27.555ZM185.471 26.61L185.946 27.4897L186.471 27.2062V26.61H185.471ZM185.471 21.885H186.471V20.885H185.471V21.885ZM181.661 21.72L180.954 22.4271L180.969 22.4425L180.985 22.4572L181.661 21.72ZM181.496 19.665V18.665H180.496V19.665H181.496ZM187.096 19.665V27.915H189.096V19.665H187.096ZM187.51 27.1043C186.514 27.8241 185.454 28.36 184.328 28.7168L184.933 30.6232C186.268 30.2 187.518 29.5659 188.681 28.7257L187.51 27.1043ZM184.333 28.7152C183.222 29.0613 181.984 29.24 180.611 29.24V31.24C182.157 31.24 183.599 31.0387 184.928 30.6248L184.333 28.7152ZM180.611 29.24C178.983 29.24 177.546 28.9908 176.287 28.5106L175.574 30.3794C177.095 30.9592 178.778 31.24 180.611 31.24V29.24ZM176.293 28.5129C175.017 28.0173 173.943 27.3367 173.057 26.4771L171.664 27.9129C172.758 28.9733 174.064 29.7927 175.569 30.3771L176.293 28.5129ZM173.064 26.4843C172.188 25.6173 171.508 24.5767 171.026 23.3496L169.165 24.0804C169.743 25.5533 170.573 26.8327 171.657 27.9057L173.064 26.4843ZM171.026 23.3496C170.547 22.1288 170.301 20.7695 170.301 19.26H168.301C168.301 20.9905 168.584 22.6012 169.165 24.0804L171.026 23.3496ZM170.301 19.26C170.301 17.7244 170.539 16.3511 171.001 15.1284L169.13 14.4216C168.572 15.8988 168.301 17.5156 168.301 19.26H170.301ZM170.999 15.1344C171.473 13.9039 172.135 12.8685 172.981 12.0134L171.56 10.6066C170.506 11.6715 169.698 12.9461 169.132 14.4156L170.999 15.1344ZM172.985 12.0097C173.828 11.1486 174.861 10.4741 176.099 9.99175L175.373 8.12825C173.89 8.70586 172.613 9.53144 171.556 10.6103L172.985 12.0097ZM176.099 9.99175C177.327 9.51312 178.721 9.265 180.296 9.265V7.265C178.51 7.265 176.864 7.54687 175.373 8.12825L176.099 9.99175ZM180.296 9.265C181.095 9.265 181.826 9.32618 182.49 9.44451L182.841 7.47549C182.045 7.33382 181.196 7.265 180.296 7.265V9.265ZM182.503 9.44676C183.173 9.55682 183.781 9.72003 184.33 9.93257L185.052 8.06743C184.361 7.79997 183.618 7.60318 182.828 7.47324L182.503 9.44676ZM184.343 9.93756C184.899 10.1438 185.409 10.3973 185.876 10.6967L186.956 9.01331C186.362 8.63265 185.722 8.31615 185.038 8.06243L184.343 9.93756ZM185.887 10.7039C186.365 11.0017 186.812 11.3398 187.226 11.7185L188.575 10.2415C188.07 9.78024 187.526 9.3683 186.944 9.0061L185.887 10.7039ZM187.053 10.45L186.228 11.77L187.924 12.83L188.749 11.51L187.053 10.45ZM186.237 11.755C186.227 11.7702 186.228 11.7649 186.243 11.7531C186.25 11.7476 186.259 11.7421 186.268 11.7374C186.278 11.7328 186.286 11.73 186.291 11.7285L186.84 13.6515C187.304 13.5189 187.666 13.2272 187.914 12.845L186.237 11.755ZM186.323 11.7199C186.355 11.7119 186.385 11.7087 186.411 11.7087C186.437 11.7087 186.455 11.7118 186.464 11.7138C186.48 11.7174 186.461 11.7162 186.405 11.6825L185.376 13.3975C185.758 13.6268 186.26 13.7972 186.808 13.6601L186.323 11.7199ZM186.394 11.6762C186.171 11.5457 185.909 11.384 185.608 11.1897L184.523 12.8703C184.842 13.076 185.13 13.2543 185.387 13.4038L186.394 11.6762ZM185.608 11.1897C185.23 10.946 184.789 10.7284 184.297 10.5315L183.554 12.3885C183.962 12.5516 184.281 12.714 184.524 12.8703L185.608 11.1897ZM184.322 10.5419C183.807 10.3194 183.215 10.1418 182.559 10.002L182.142 11.958C182.706 12.0782 183.165 12.2206 183.529 12.3781L184.322 10.5419ZM182.562 10.0027C181.873 9.85339 181.084 9.785 180.206 9.785V11.785C180.988 11.785 181.628 11.8466 182.139 11.9573L182.562 10.0027ZM180.206 9.785C178.884 9.785 177.659 10.0037 176.543 10.4592L177.299 12.3108C178.143 11.9663 179.107 11.785 180.206 11.785V9.785ZM176.551 10.4559C175.44 10.8981 174.479 11.5453 173.684 12.398L175.147 13.762C175.732 13.1347 176.442 12.6519 177.29 12.3141L176.551 10.4559ZM173.689 12.3931C172.893 13.2353 172.294 14.25 171.882 15.4176L173.769 16.0823C174.097 15.15 174.558 14.3847 175.142 13.7669L173.689 12.3931ZM171.883 15.4148C171.469 16.5796 171.271 17.8656 171.271 19.26H173.271C173.271 18.0544 173.442 17.0004 173.768 16.0852L171.883 15.4148ZM171.271 19.26C171.271 20.703 171.474 22.0291 171.898 23.2247L173.783 22.5553C173.448 21.6109 173.271 20.517 173.271 19.26H171.271ZM171.902 23.2353C172.335 24.4106 172.953 25.4351 173.764 26.2925L175.217 24.9175C174.608 24.2749 174.127 23.4894 173.779 22.5447L171.902 23.2353ZM173.774 26.3024C174.601 27.1524 175.596 27.7952 176.743 28.2341L177.458 26.3659C176.565 26.0248 175.82 25.5376 175.207 24.9076L173.774 26.3024ZM176.743 28.2341C177.894 28.6741 179.163 28.885 180.536 28.885V26.885C179.368 26.885 178.347 26.7059 177.458 26.3659L176.743 28.2341ZM180.536 28.885C181.607 28.885 182.587 28.7675 183.465 28.5165L182.916 26.5935C182.254 26.7825 181.465 26.885 180.536 26.885V28.885ZM183.473 28.5142C184.323 28.2638 185.147 27.9217 185.946 27.4897L184.995 25.7303C184.314 26.0983 183.619 26.3862 182.908 26.5958L183.473 28.5142ZM186.471 26.61V21.885H184.471V26.61H186.471ZM185.471 20.885H182.126V22.885H185.471V20.885ZM182.126 20.885C182.127 20.885 182.156 20.8853 182.201 20.9013C182.249 20.9182 182.296 20.9463 182.336 20.9828L180.985 22.4572C181.32 22.7641 181.73 22.885 182.126 22.885V20.885ZM182.368 21.0129C182.401 21.0457 182.437 21.0949 182.463 21.159C182.489 21.2225 182.496 21.2783 182.496 21.315H180.496C180.496 21.7318 180.65 22.1237 180.954 22.4271L182.368 21.0129ZM182.496 21.315V19.665H180.496V21.315H182.496ZM181.496 20.665H188.096V18.665H181.496V20.665ZM195.46 30V31H196.46V30H195.46ZM192.55 30H191.55V31H192.55V30ZM192.55 8.505V7.505H191.55V8.505H192.55ZM195.46 8.505H196.46V7.505H195.46V8.505ZM195.46 29H192.55V31H195.46V29ZM193.55 30V8.505H191.55V30H193.55ZM192.55 9.505H195.46V7.505H192.55V9.505ZM194.46 8.505V30H196.46V8.505H194.46ZM214.218 27.63L215.218 27.6363L215.224 26.63H214.218V27.63ZM214.203 30V31H215.197L215.203 30.0063L214.203 30ZM200.958 30H199.958V31H200.958V30ZM200.958 8.505V7.505H199.958V8.505H200.958ZM214.203 8.505H215.203V7.505H214.203V8.505ZM214.203 10.875V11.875H215.203V10.875H214.203ZM203.868 10.875V9.875H202.868V10.875H203.868ZM203.868 18.015H202.868V19.015H203.868V18.015ZM212.238 18.015H213.238V17.015H212.238V18.015ZM212.238 20.295V21.295H213.238V20.295H212.238ZM203.868 20.295V19.295H202.868V20.295H203.868ZM203.868 27.63H202.868V28.63H203.868V27.63ZM213.218 27.6237L213.203 29.9937L215.203 30.0063L215.218 27.6363L213.218 27.6237ZM214.203 29H200.958V31H214.203V29ZM201.958 30V8.505H199.958V30H201.958ZM200.958 9.505H214.203V7.505H200.958V9.505ZM213.203 8.505V10.875H215.203V8.505H213.203ZM214.203 9.875H203.868V11.875H214.203V9.875ZM202.868 10.875V18.015H204.868V10.875H202.868ZM203.868 19.015H212.238V17.015H203.868V19.015ZM211.238 18.015V20.295H213.238V18.015H211.238ZM212.238 19.295H203.868V21.295H212.238V19.295ZM202.868 20.295V27.63H204.868V20.295H202.868ZM203.868 28.63H214.218V26.63H203.868V28.63ZM229.267 11.865L230.125 12.3795L230.142 12.3503L230.158 12.3199L229.267 11.865ZM228.967 12.21L229.541 13.0292L229.548 13.024L229.556 13.0187L228.967 12.21ZM227.992 12.06L228.587 11.2558L228.587 11.2558L227.992 12.06ZM227.122 11.505L226.597 12.3558L226.611 12.3648L226.626 12.3732L227.122 11.505ZM225.877 10.935L225.543 11.8776L225.55 11.8798L225.877 10.935ZM222.397 10.95L222.725 11.8948L222.736 11.8909L222.397 10.95ZM221.152 11.655L220.491 10.9052L220.485 10.9101L220.48 10.9151L221.152 11.655ZM220.402 12.72L221.323 13.1112L221.326 13.103L220.402 12.72ZM220.582 15.525L219.773 16.112L219.781 16.1235L219.79 16.1347L220.582 15.525ZM221.752 16.53L221.248 17.3938L221.256 17.3982L221.752 16.53ZM223.402 17.265L223.077 18.2105L223.086 18.2137L223.095 18.2167L223.402 17.265ZM225.292 17.895L224.967 18.8407L224.972 18.8422L225.292 17.895ZM227.182 18.645L226.765 19.5538L226.774 19.5579L226.783 19.5618L227.182 18.645ZM228.832 19.68L228.174 20.4326L228.182 20.4393L228.832 19.68ZM230.002 21.225L229.099 21.6544L229.105 21.6663L230.002 21.225ZM229.972 26.13L230.904 26.4935L230.905 26.4897L229.972 26.13ZM228.562 28.275L227.861 27.5621L227.855 27.5679L228.562 28.275ZM226.297 29.715L225.935 28.783L225.931 28.7844L226.297 29.715ZM219.442 29.49L219.034 30.4028L219.041 30.4058L219.442 29.49ZM216.517 27.435L215.663 26.9151L215.267 27.5659L215.789 28.1206L216.517 27.435ZM217.357 26.055L216.549 25.4668L216.524 25.5L216.503 25.5351L217.357 26.055ZM217.642 25.785L218.179 26.6287L218.188 26.623L218.197 26.6171L217.642 25.785ZM218.467 25.83L217.901 26.654L217.93 26.674L217.96 26.6919L218.467 25.83ZM219.037 26.22L218.431 27.0154L218.431 27.0154L219.037 26.22ZM219.757 26.745L219.182 27.5628L219.182 27.5628L219.757 26.745ZM220.672 27.27L220.247 28.1749L220.257 28.1795L220.672 27.27ZM221.857 27.675L221.615 28.6451L221.625 28.6478L221.636 28.6501L221.857 27.675ZM225.187 27.54L225.519 28.4833L225.519 28.4833L225.187 27.54ZM226.552 26.745L227.229 27.4813L227.23 27.4805L226.552 26.745ZM227.272 22.305L226.449 22.8732L226.457 22.8845L226.465 22.8955L227.272 22.305ZM224.467 20.55L224.16 21.5017L224.167 21.504L224.174 21.5061L224.467 20.55ZM222.577 19.95L222.266 20.9002L222.272 20.9024L222.279 20.9045L222.577 19.95ZM219.037 18.18L219.705 17.4352L219.705 17.4352L219.037 18.18ZM217.867 16.575L216.954 16.9824L216.958 16.991L216.962 16.9994L217.867 16.575ZM217.867 11.97L216.946 11.5808L216.942 11.5919L217.867 11.97ZM219.157 10.08L218.463 9.36035L218.457 9.36655L219.157 10.08ZM221.242 8.76L220.873 7.83075L220.869 7.83231L221.242 8.76ZM227.362 8.835L227.001 9.76737L227.004 9.76859L227.362 8.835ZM229.972 10.485L230.863 10.9399L231.201 10.2782L230.665 9.76361L229.972 10.485ZM228.41 11.3505C228.391 11.3825 228.377 11.4001 228.37 11.4076C228.364 11.4148 228.366 11.4106 228.379 11.4013L229.556 13.0187C229.8 12.8406 229.985 12.6131 230.125 12.3795L228.41 11.3505ZM228.394 11.3908C228.497 11.3185 228.585 11.315 228.592 11.315V13.315C228.9 13.315 229.238 13.2415 229.541 13.0292L228.394 11.3908ZM228.592 11.315C228.674 11.315 228.715 11.3349 228.706 11.3309C228.702 11.3294 228.69 11.3239 228.669 11.3114C228.648 11.299 228.621 11.2811 228.587 11.2558L227.398 12.8642C227.694 13.0828 228.106 13.315 228.592 13.315V11.315ZM228.587 11.2558C228.315 11.0553 227.99 10.849 227.618 10.6368L226.626 12.3732C226.955 12.561 227.209 12.7247 227.398 12.8642L228.587 11.2558ZM227.648 10.6542C227.23 10.3963 226.745 10.1776 226.205 9.99024L225.55 11.8798C225.99 12.0324 226.334 12.1937 226.597 12.3558L227.648 10.6542ZM226.211 9.99237C225.593 9.77359 224.888 9.68 224.122 9.68V11.68C224.736 11.68 225.201 11.7564 225.543 11.8776L226.211 9.99237ZM224.122 9.68C223.382 9.68 222.688 9.78237 222.059 10.0091L222.736 11.8909C223.106 11.7576 223.563 11.68 224.122 11.68V9.68ZM222.07 10.0052C221.474 10.2118 220.941 10.5076 220.491 10.9052L221.814 12.4048C222.043 12.2024 222.34 12.0282 222.725 11.8948L222.07 10.0052ZM220.48 10.9151C220.041 11.3136 219.705 11.7903 219.479 12.337L221.326 13.103C221.439 12.8297 221.603 12.5964 221.825 12.3949L220.48 10.9151ZM219.482 12.3289C219.255 12.8623 219.147 13.4316 219.147 14.025H221.147C221.147 13.6784 221.209 13.3777 221.323 13.1111L219.482 12.3289ZM219.147 14.025C219.147 14.7897 219.334 15.5074 219.773 16.112L221.392 14.938C221.25 14.7426 221.147 14.4603 221.147 14.025H219.147ZM219.79 16.1347C220.178 16.6397 220.671 17.057 221.248 17.3938L222.256 15.6662C221.874 15.443 221.586 15.1903 221.375 14.9153L219.79 16.1347ZM221.256 17.3982C221.808 17.7133 222.416 17.983 223.077 18.2105L223.728 16.3195C223.169 16.127 222.677 15.9067 222.248 15.6618L221.256 17.3982ZM223.095 18.2167C223.709 18.4147 224.333 18.6227 224.967 18.8407L225.617 16.9493C224.972 16.7273 224.336 16.5153 223.709 16.3133L223.095 18.2167ZM224.972 18.8422C225.59 19.0514 226.187 19.2886 226.765 19.5538L227.6 17.7362C226.957 17.4414 226.295 17.1786 225.613 16.9478L224.972 18.8422ZM226.783 19.5618C227.314 19.7932 227.776 20.0843 228.174 20.4326L229.491 18.9274C228.929 18.4357 228.29 18.0368 227.582 17.7282L226.783 19.5618ZM228.182 20.4393C228.56 20.7639 228.866 21.1648 229.099 21.6544L230.905 20.7956C230.558 20.0652 230.084 19.4361 229.483 18.9207L228.182 20.4393ZM229.105 21.6663C229.32 22.1033 229.452 22.6925 229.452 23.475H231.452C231.452 22.4774 231.285 21.5667 230.9 20.7837L229.105 21.6663ZM229.452 23.475C229.452 24.299 229.313 25.0614 229.039 25.7703L230.905 26.4897C231.272 25.5386 231.452 24.531 231.452 23.475H229.452ZM229.041 25.7665C228.771 26.4567 228.379 27.0523 227.861 27.5622L229.264 28.9878C229.985 28.2777 230.533 27.4433 230.904 26.4935L229.041 25.7665ZM227.855 27.5679C227.354 28.0688 226.721 28.4772 225.935 28.783L226.66 30.647C227.674 30.2528 228.55 29.7012 229.269 28.9821L227.855 27.5679ZM225.931 28.7844C225.178 29.0806 224.291 29.24 223.252 29.24V31.24C224.494 31.24 225.637 31.0494 226.663 30.6456L225.931 28.7844ZM223.252 29.24C221.973 29.24 220.842 29.0121 219.844 28.5742L219.041 30.4058C220.322 30.9679 221.731 31.24 223.252 31.24V29.24ZM219.851 28.5772C218.824 28.118 217.96 27.5079 217.245 26.7494L215.789 28.1206C216.695 29.0821 217.78 29.842 219.034 30.4028L219.851 28.5772ZM217.372 27.9549L218.212 26.5749L216.503 25.5351L215.663 26.9151L217.372 27.9549ZM218.166 26.6432C218.171 26.6358 218.175 26.6322 218.176 26.631C218.178 26.6298 218.178 26.6292 218.179 26.6287L217.105 24.9413C216.885 25.0816 216.699 25.2598 216.549 25.4668L218.166 26.6432ZM218.197 26.6171C218.181 26.6274 218.157 26.6407 218.124 26.6508C218.091 26.6609 218.059 26.665 218.032 26.665V24.665C217.689 24.665 217.367 24.7669 217.088 24.9529L218.197 26.6171ZM218.032 26.665C217.955 26.665 217.903 26.6486 217.884 26.6412C217.866 26.6343 217.871 26.6335 217.901 26.654L219.034 25.006C218.785 24.8347 218.442 24.665 218.032 24.665V26.665ZM217.96 26.6919C218.087 26.7663 218.243 26.872 218.431 27.0154L219.643 25.4246C219.412 25.248 219.188 25.0937 218.974 24.9681L217.96 26.6919ZM218.431 27.0154C218.653 27.1847 218.904 27.3672 219.182 27.5628L220.333 25.9272C220.071 25.7428 219.841 25.5753 219.643 25.4246L218.431 27.0154ZM219.182 27.5628C219.505 27.7903 219.861 27.9935 220.247 28.1748L221.098 26.3652C220.803 26.2265 220.55 26.0797 220.333 25.9272L219.182 27.5628ZM220.257 28.1795C220.671 28.369 221.126 28.5228 221.615 28.6451L222.1 26.7049C221.709 26.6072 221.374 26.491 221.088 26.3605L220.257 28.1795ZM221.636 28.6501C222.162 28.7698 222.733 28.825 223.342 28.825V26.825C222.851 26.825 222.432 26.7802 222.079 26.6999L221.636 28.6501ZM223.342 28.825C224.123 28.825 224.853 28.7176 225.519 28.4833L224.855 26.5967C224.441 26.7424 223.942 26.825 223.342 26.825V28.825ZM225.519 28.4833C226.169 28.2546 226.746 27.9248 227.229 27.4813L225.876 26.0087C225.618 26.2451 225.285 26.4454 224.855 26.5967L225.519 28.4833ZM227.23 27.4805C227.717 27.032 228.09 26.4971 228.345 25.8846L226.499 25.1154C226.354 25.4629 226.148 25.758 225.875 26.0095L227.23 27.4805ZM228.345 25.8846C228.603 25.2674 228.722 24.5993 228.722 23.895H226.722C226.722 24.3707 226.642 24.7726 226.499 25.1154L228.345 25.8846ZM228.722 23.895C228.722 23.0923 228.536 22.3384 228.079 21.7145L226.465 22.8955C226.609 23.0916 226.722 23.3977 226.722 23.895H228.722ZM228.095 21.7368C227.715 21.1857 227.217 20.7385 226.621 20.3912L225.613 22.1188C225.978 22.3315 226.25 22.5843 226.449 22.8732L228.095 21.7368ZM226.621 20.3912C226.065 20.0666 225.442 19.8028 224.76 19.5939L224.174 21.5061C224.733 21.6772 225.21 21.8834 225.613 22.1188L226.621 20.3912ZM224.774 19.5983C224.151 19.3973 223.518 19.1964 222.876 18.9955L222.279 20.9045C222.916 21.1036 223.543 21.3027 224.16 21.5017L224.774 19.5983ZM222.889 18.9998C222.279 18.7996 221.678 18.5707 221.087 18.3132L220.288 20.1468C220.937 20.4293 221.596 20.6804 222.266 20.9002L222.889 18.9998ZM221.087 18.3132C220.56 18.0837 220.101 17.7904 219.705 17.4352L218.37 18.9248C218.934 19.4296 219.575 19.8363 220.288 20.1468L221.087 18.3132ZM219.705 17.4352C219.334 17.1032 219.021 16.6807 218.773 16.1506L216.962 16.9994C217.313 17.7493 217.781 18.3968 218.37 18.9248L219.705 17.4352ZM218.781 16.1676C218.564 15.681 218.432 15.0292 218.432 14.175H216.432C216.432 15.2208 216.591 16.169 216.954 16.9824L218.781 16.1676ZM218.432 14.175C218.432 13.5459 218.552 12.9392 218.793 12.3481L216.942 11.5919C216.603 12.4208 216.432 13.2841 216.432 14.175H218.432ZM218.788 12.3592C219.036 11.773 219.39 11.2527 219.858 10.7934L218.457 9.36655C217.804 10.0073 217.299 10.747 216.946 11.5808L218.788 12.3592ZM219.852 10.7996C220.319 10.3488 220.901 9.9752 221.616 9.68769L220.869 7.83231C219.943 8.20479 219.136 8.71121 218.463 9.36038L219.852 10.7996ZM221.612 9.68925C222.303 9.41425 223.124 9.265 224.092 9.265V7.265C222.92 7.265 221.841 7.44575 220.873 7.83075L221.612 9.68925ZM224.092 9.265C225.186 9.265 226.151 9.43793 227.001 9.76736L227.724 7.90264C226.613 7.47207 225.399 7.265 224.092 7.265V9.265ZM227.004 9.76859C227.872 10.1018 228.628 10.5806 229.28 11.2064L230.665 9.76361C229.817 8.94944 228.833 8.32819 227.721 7.90141L227.004 9.76859ZM229.082 10.0301L228.377 11.4101L230.158 12.3199L230.863 10.9399L229.082 10.0301Z" fill="#58A6FF"/>
</g>
<g filter="url(#filter1_d)">
<rect x="5" y="36" width="227" height="10" rx="2" fill="#5965E0"/>
<rect x="5.5" y="36.5" width="226" height="9" rx="1.5" stroke="#5965E0"/>
</g>
<defs>
<filter id="filter0_d" x="0.450012" y="7.265" width="235.002" height="31.975" filterUnits="userSpaceOnUse" color-interpolation-filters="sRGB">
<feFlood flood-opacity="0" result="BackgroundImageFix"/>
<feColorMatrix in="SourceAlpha" type="matrix" values="0 0 0 0 0 0 0 0 0 0 0 0 0 0 0 0 0 0 127 0"/>
<feOffset dy="4"/>
<feGaussianBlur stdDeviation="2"/>
<feColorMatrix type="matrix" values="0 0 0 0 0 0 0 0 0 0 0 0 0 0 0 0 0 0 0.25 0"/>
<feBlend mode="normal" in2="BackgroundImageFix" result="effect1_dropShadow"/>
<feBlend mode="normal" in="SourceGraphic" in2="effect1_dropShadow" result="shape"/>
</filter>
<filter id="filter1_d" x="1" y="36" width="235" height="18" filterUnits="userSpaceOnUse" color-interpolation-filters="sRGB">
<feFlood flood-opacity="0" result="BackgroundImageFix"/>
<feColorMatrix in="SourceAlpha" type="matrix" values="0 0 0 0 0 0 0 0 0 0 0 0 0 0 0 0 0 0 127 0"/>
<feOffset dy="4"/>
<feGaussianBlur stdDeviation="2"/>
<feColorMatrix type="matrix" values="0 0 0 0 0 0 0 0 0 0 0 0 0 0 0 0 0 0 0.25 0"/>
<feBlend mode="normal" in2="BackgroundImageFix" result="effect1_dropShadow"/>
<feBlend mode="normal" in="SourceGraphic" in2="effect1_dropShadow" result="shape"/>
</filter>
</defs>
</svg>
